<svg xmlns="http://www.w3.org/2000/svg" viewBox="0 0 70.19 17.09"><defs><style>.cls-1{fill:#0e174a;}.cls-2{fill:#ffbe03;}</style></defs><title>Asset 82</title><g id="Layer_2" data-name="Layer 2"><g id="Layer_1-2" data-name="Layer 1"><rect class="cls-1" width="70.19" height="17.09" rx="2.79" ry="2.79"/><path class="cls-2" d="M17.17,3.64v7.63c0,.56,0,1.2.05,1.63h-1l-.05-1.1h0A2.34,2.34,0,0,1,14,13c-1.53,0-2.7-1.29-2.7-3.21,0-2.1,1.29-3.39,2.83-3.39a2.11,2.11,0,0,1,1.9,1h0V3.64ZM16,9.16A2,2,0,0,0,16,8.67a1.69,1.69,0,0,0-1.66-1.33c-1.19,0-1.89,1-1.89,2.44s.63,2.33,1.87,2.33A1.73,1.73,0,0,0,16,10.75a2,2,0,0,0,.05-.5Z"/><path class="cls-2" d="M19.71,10a2,2,0,0,0,2.17,2.19,4.15,4.15,0,0,0,1.75-.33l.2.82a5.11,5.11,0,0,1-2.1.39,2.93,2.93,0,0,1-3.1-3.18c0-1.91,1.12-3.41,3-3.41,2.06,0,2.61,1.81,2.61,3a4.3,4.3,0,0,1,0,.54Zm3.37-.82a1.63,1.63,0,0,0-1.59-1.87,1.9,1.9,0,0,0-1.76,1.87Z"/><path class="cls-2" d="M26,6.59l1.24,3.55a16.19,16.19,0,0,1,.51,1.62h0c.14-.52.33-1,.54-1.62L29.6,6.59h1.2L28.32,12.9h-1.1l-2.4-6.31Z"/><path class="cls-2" d="M36,4.77V6.59h1.64v.87H36v3.41c0,.78.22,1.23.86,1.23a2.56,2.56,0,0,0,.67-.08l.05.86a2.8,2.8,0,0,1-1,.16,1.59,1.59,0,0,1-1.24-.48,2.34,2.34,0,0,1-.44-1.64V7.46h-1V6.59h1V5.07Z"/><path class="cls-2" d="M39.52,10a2,2,0,0,0,2.17,2.19,4.15,4.15,0,0,0,1.75-.33l.2.82a5.11,5.11,0,0,1-2.1.39,2.93,2.93,0,0,1-3.1-3.18c0-1.91,1.12-3.41,3-3.41,2.06,0,2.61,1.81,2.61,3A4.3,4.3,0,0,1,44,10Zm3.37-.82A1.63,1.63,0,0,0,41.3,7.26a1.9,1.9,0,0,0-1.76,1.87Z"/><path class="cls-2" d="M48.91,12.9l-.09-.8h0a2.35,2.35,0,0,1-1.93.94,1.8,1.8,0,0,1-1.93-1.81c0-1.53,1.36-2.36,3.8-2.35V8.75a1.3,1.3,0,0,0-1.44-1.46,3.15,3.15,0,0,0-1.64.47L45.38,7a3.91,3.91,0,0,1,2.07-.56c1.93,0,2.4,1.32,2.4,2.58v2.36A8.86,8.86,0,0,0,50,12.9Zm-.17-3.22c-1.25,0-2.67.2-2.67,1.42a1,1,0,0,0,1.08,1.1,1.57,1.57,0,0,0,1.53-1.06,1.2,1.2,0,0,0,.07-.37Z"/><path class="cls-2" d="M51.71,8.29c0-.65,0-1.19-.05-1.71h1l.05,1h0a2.18,2.18,0,0,1,2-1.16,1.87,1.87,0,0,1,1.79,1.27h0a2.61,2.61,0,0,1,.7-.82,2.15,2.15,0,0,1,1.4-.44c.83,0,2.07.55,2.07,2.74V12.9H59.6V9.33c0-1.21-.44-1.94-1.37-1.94a1.49,1.49,0,0,0-1.36,1,1.89,1.89,0,0,0-.09.57v3.9H55.66V9.12c0-1-.44-1.74-1.32-1.74a1.57,1.57,0,0,0-1.42,1.15,1.59,1.59,0,0,0-.09.56V12.9H51.71Z"/></g></g></svg>