<svg xmlns="http://www.w3.org/2000/svg" viewBox="0 0 77.19 17.09"><defs><style>.cls-1{fill:#0e174a;}.cls-2{fill:#ffbe03;}</style></defs><title>Asset 101</title><g id="Layer_2" data-name="Layer 2"><g id="Layer_1-2" data-name="Layer 1"><rect class="cls-1" width="77.19" height="17.09" rx="2.79" ry="2.79"/><path class="cls-2" d="M14.53,13a2.93,2.93,0,0,1-1.3-.29,3.39,3.39,0,0,1-1-.78,3.49,3.49,0,0,1-.68-1.12,3.68,3.68,0,0,1-.24-1.32,4,4,0,0,1,.23-1.36A3.64,3.64,0,0,1,12.15,7a3,3,0,0,1,1-.76A2.76,2.76,0,0,1,14.37,6a2.66,2.66,0,0,1,1.53.45A3.57,3.57,0,0,1,17,7.53V3.38h.89v8.37q0,.36.31.37v.78l-.35,0a.76.76,0,0,1-.53-.19.59.59,0,0,1-.21-.45v-.72A3.09,3.09,0,0,1,16,12.64,2.84,2.84,0,0,1,14.53,13Zm.18-.78a2.15,2.15,0,0,0,.71-.13,2.74,2.74,0,0,0,.69-.36,2.57,2.57,0,0,0,.55-.53,1.43,1.43,0,0,0,.29-.66V8.46a2.27,2.27,0,0,0-.38-.66A3.24,3.24,0,0,0,16,7.26a2.68,2.68,0,0,0-.68-.37,2.07,2.07,0,0,0-.71-.13,2.13,2.13,0,0,0-1,.23,2.42,2.42,0,0,0-.76.62,2.94,2.94,0,0,0-.49.88,3,3,0,0,0-.18,1,2.82,2.82,0,0,0,.2,1,2.79,2.79,0,0,0,.53.87,2.58,2.58,0,0,0,.8.59A2.27,2.27,0,0,0,14.71,12.25Z"/><path class="cls-2" d="M22.81,13A3.3,3.3,0,0,1,20.36,12a3.57,3.57,0,0,1-.71-1.13,3.67,3.67,0,0,1-.25-1.37,3.59,3.59,0,0,1,.25-1.35,3.41,3.41,0,0,1,1.79-1.87A3.31,3.31,0,0,1,25.23,7a3.59,3.59,0,0,1,.94,2.44c0,.07,0,.14,0,.21a.73.73,0,0,1,0,.14H20.33a2.87,2.87,0,0,0,.8,1.81,2.4,2.4,0,0,0,.77.53,2.32,2.32,0,0,0,.93.19,2.43,2.43,0,0,0,.67-.09,2.62,2.62,0,0,0,.6-.25,2.1,2.1,0,0,0,.49-.38,1.71,1.71,0,0,0,.33-.5l.77.21a2.27,2.27,0,0,1-.44.68,3.08,3.08,0,0,1-.67.54,3.26,3.26,0,0,1-.83.35A3.6,3.6,0,0,1,22.81,13Zm2.5-3.89a2.75,2.75,0,0,0-.25-1,2.72,2.72,0,0,0-.55-.78,2.42,2.42,0,0,0-.78-.51,2.51,2.51,0,0,0-1.88,0,2.42,2.42,0,0,0-.78.51,2.5,2.5,0,0,0-.53.78,3,3,0,0,0-.24,1Z"/><path class="cls-2" d="M29.35,12.9,26.58,6.1h.93l2.33,6,2.35-6h.86l-2.77,6.8Z"/><path class="cls-2" d="M40.5,12.57l-.23.1-.35.13-.44.12A2.57,2.57,0,0,1,39,13a1.91,1.91,0,0,1-.55-.08,1.27,1.27,0,0,1-.46-.24,1.19,1.19,0,0,1-.31-.41,1.32,1.32,0,0,1-.12-.57V6.81h-.94V6.1h.94V3.81h.89V6.1H40v.7H38.41v4.62a.71.71,0,0,0,.26.55.9.9,0,0,0,.56.18A1.67,1.67,0,0,0,39.9,12a2.87,2.87,0,0,0,.37-.18Z"/><path class="cls-2" d="M44.52,13A3.3,3.3,0,0,1,42.07,12a3.57,3.57,0,0,1-.71-1.13,3.67,3.67,0,0,1-.25-1.37,3.59,3.59,0,0,1,.25-1.35,3.41,3.41,0,0,1,1.79-1.87A3.31,3.31,0,0,1,46.93,7a3.59,3.59,0,0,1,.94,2.44c0,.07,0,.14,0,.21a.73.73,0,0,1,0,.14H42a2.87,2.87,0,0,0,.8,1.81,2.4,2.4,0,0,0,.77.53,2.32,2.32,0,0,0,.93.19,2.43,2.43,0,0,0,.67-.09,2.62,2.62,0,0,0,.6-.25,2.1,2.1,0,0,0,.49-.38,1.71,1.71,0,0,0,.33-.5l.77.21A2.27,2.27,0,0,1,47,12a3.08,3.08,0,0,1-.67.54,3.26,3.26,0,0,1-.83.35A3.6,3.6,0,0,1,44.52,13ZM47,9.14a2.75,2.75,0,0,0-.25-1,2.72,2.72,0,0,0-.55-.78,2.42,2.42,0,0,0-.78-.51,2.51,2.51,0,0,0-1.88,0,2.42,2.42,0,0,0-.78.51,2.5,2.5,0,0,0-.53.78,3,3,0,0,0-.24,1Z"/><path class="cls-2" d="M51,13a2.67,2.67,0,0,1-1-.16,2.22,2.22,0,0,1-.74-.45,2.06,2.06,0,0,1-.48-.67,1.93,1.93,0,0,1-.17-.8,1.76,1.76,0,0,1,.21-.85,2,2,0,0,1,.59-.66A2.88,2.88,0,0,1,50.37,9a4.28,4.28,0,0,1,1.17-.15,6.22,6.22,0,0,1,1,.09,4.62,4.62,0,0,1,1,.26V8.61A2,2,0,0,0,53,7.18a1.85,1.85,0,0,0-1.39-.53,3,3,0,0,0-1.09.21,5.26,5.26,0,0,0-1.1.6l-.31-.59a5.87,5.87,0,0,1,1.29-.67A3.86,3.86,0,0,1,51.72,6a2.69,2.69,0,0,1,2,.72,2.65,2.65,0,0,1,.73,2v3.07q0,.36.31.37v.78l-.2,0h-.16a.79.79,0,0,1-.48-.16.61.61,0,0,1-.24-.47l0-.54a3,3,0,0,1-1.17.93A3.48,3.48,0,0,1,51,13Zm.22-.68a2.9,2.9,0,0,0,1.17-.25,2.28,2.28,0,0,0,.92-.7,1.35,1.35,0,0,0,.16-.25.59.59,0,0,0,.07-.25V9.78a5.46,5.46,0,0,0-.93-.26,5.07,5.07,0,0,0-.94-.09,2.79,2.79,0,0,0-1.55.38,1.2,1.2,0,0,0-.59,1.06,1.42,1.42,0,0,0,.1.53,1.34,1.34,0,0,0,.32.47,1.65,1.65,0,0,0,.53.34A1.91,1.91,0,0,0,51.22,12.35Z"/><path class="cls-2" d="M66.46,12.9h-.89V9.1a3.22,3.22,0,0,0-.37-1.75,1.26,1.26,0,0,0-1.13-.56,1.9,1.9,0,0,0-.74.14,2.27,2.27,0,0,0-.64.4,2.75,2.75,0,0,0-.52.62,3,3,0,0,0-.34.79V12.9H61V9.1a3.26,3.26,0,0,0-.37-1.76,1.26,1.26,0,0,0-1.12-.55,2,2,0,0,0-1.37.53,3,3,0,0,0-.86,1.41V12.9h-.89V6.1h.81V7.64a3.21,3.21,0,0,1,1.1-1.22A2.71,2.71,0,0,1,59.75,6a2,2,0,0,1,1.38.48,2,2,0,0,1,.63,1.26A2.91,2.91,0,0,1,64.4,6a2,2,0,0,1,1,.21,1.65,1.65,0,0,1,.64.59,2.79,2.79,0,0,1,.35.93,6.05,6.05,0,0,1,.11,1.21Z"/></g></g></svg>