<svg xmlns="http://www.w3.org/2000/svg" viewBox="0 0 481 911.13"><defs><style>.cls-1{fill:#ffbe03;}.cls-2{opacity:0.45;}.cls-3{fill:#0e174a;}</style></defs><title>Asset 105</title><g id="Layer_2" data-name="Layer 2"><g id="Layer_2-2" data-name="Layer 2"><polygon class="cls-1" points="481 126.15 283.85 323.3 399.1 438.56 481 356.66 481 299.79 481 126.15"/><polygon class="cls-1" points="481 511.15 283.85 708.3 399.1 823.56 481 741.66 481 684.79 481 511.15"/><g class="cls-2"><polygon class="cls-3" points="346.54 165.32 481 299.79 481 36.57 346.54 165.32"/></g><polygon class="cls-1" points="481 36.57 480.95 72.58 444.66 36.29 480.95 0 481 36.57"/><polygon class="cls-1" points="174.88 471.06 0 296.18 0 492.33 76.8 569.13 174.88 471.06"/><polygon class="cls-1" points="174.88 813.06 0 638.18 0 834.33 76.8 911.13 174.88 813.06"/></g></g></svg>