<svg xmlns="http://www.w3.org/2000/svg" viewBox="0 0 263.96 28.61"><defs><style>.cls-1{opacity:0.09;}.cls-2{fill:#3e4eab;}.cls-3{fill:#0e174a;}.cls-4,.cls-5{fill:#ffbf03;}.cls-5{font-size:10.42px;font-family:MyriadPro-Regular, Myriad Pro;}.cls-6{letter-spacing:-0.01em;}.cls-7{letter-spacing:0em;}.cls-8{letter-spacing:-0.01em;}.cls-9{letter-spacing:0.03em;}.cls-10{letter-spacing:0.02em;}.cls-11{letter-spacing:-0.01em;}.cls-12{letter-spacing:0em;}</style></defs><title>Asset 29</title><g id="Layer_2" data-name="Layer 2"><g id="Layer_1-2" data-name="Layer 1"><g class="cls-1"><path class="cls-2" d="M259.71,28.61H15.25c-.69,0-1.25-.74-1.25-1.66V21.16c0-.92.56-1.66,1.25-1.66H259.69c.69,0,1.25.74,1.25,1.66l0,5.79C261,27.86,260.4,28.61,259.71,28.61Z"/></g><rect class="cls-3" x="13.86" y="4.09" width="250.1" height="19.98" rx="2.79" ry="2.79"/><rect class="cls-4" x="4.04" y="4.04" width="19.52" height="19.52" transform="translate(-5.72 13.8) rotate(-45)"/><text class="cls-5" transform="translate(30.61 17.79)"><tspan class="cls-6">c</tspan><tspan class="cls-7" x="4.61" y="0">omes p</tspan><tspan class="cls-8" x="36.52" y="0">r</tspan><tspan class="cls-9" x="39.82" y="0">e</tspan><tspan x="45.33" y="0">-pac</tspan><tspan class="cls-10" x="64.16" y="0">k</tspan><tspan x="69.24" y="0">aged with so</tspan><tspan class="cls-11" x="124.81" y="0">cc</tspan><tspan x="134.02" y="0">er and c</tspan><tspan class="cls-12" x="168.43" y="0">r</tspan><tspan x="171.88" y="0">icket leagues</tspan></text></g></g></svg>