<svg xmlns="http://www.w3.org/2000/svg" viewBox="0 0 481 1062.71"><defs><style>.cls-1{opacity:0.85;}.cls-2{fill:#020516;}.cls-3{fill:#ffbe03;}.cls-4{opacity:0.45;}.cls-5{fill:#0e174a;}</style></defs><title>Asset 91</title><g id="Layer_2" data-name="Layer 2"><g id="Layer_2-2" data-name="Layer 2"><g class="cls-1"><rect class="cls-2" y="0.53" width="481" height="1062.18"/></g><polygon class="cls-3" points="481 126.15 283.85 323.3 399.1 438.56 481 356.66 481 299.79 481 126.15"/><polygon class="cls-3" points="481 511.15 283.85 708.3 399.1 823.56 481 741.66 481 684.79 481 511.15"/><g class="cls-4"><polygon class="cls-5" points="346.54 165.32 481 299.79 481 36.57 346.54 165.32"/></g><polygon class="cls-3" points="481 36.57 480.95 72.58 444.66 36.29 480.95 0 481 36.57"/><polygon class="cls-3" points="174.88 471.06 0 296.18 0 492.33 76.8 569.13 174.88 471.06"/><polygon class="cls-3" points="174.88 813.06 0 638.18 0 834.33 76.8 911.13 174.88 813.06"/></g></g></svg>