<svg xmlns="http://www.w3.org/2000/svg" viewBox="0 0 481 1062.71"><defs><style>.cls-1{fill:#020516;}.cls-2,.cls-3{fill:#ffbf03;}.cls-2{opacity:0.22;}.cls-4{opacity:0.45;}.cls-5{fill:#0e174a;}</style></defs><title>Asset 35</title><g id="Layer_2" data-name="Layer 2"><g id="Layer_2-2" data-name="Layer 2"><rect class="cls-1" y="0.53" width="481" height="1062.18"/><polygon class="cls-2" points="481 126.15 283.85 323.3 399.1 438.56 481 356.66 481 299.79 481 126.15"/><polygon class="cls-2" points="481 511.15 283.85 708.3 399.1 823.56 481 741.66 481 684.79 481 511.15"/><rect class="cls-3" x="356.49" y="10.63" width="51.32" height="51.32" transform="translate(86.27 280.85) rotate(-45)"/><g class="cls-4"><polygon class="cls-5" points="346.54 165.32 481 299.79 481 36.57 346.54 165.32"/></g><rect class="cls-3" x="360.1" y="105.82" width="51.32" height="51.32" transform="translate(20.02 311.28) rotate(-45)"/><polygon class="cls-3" points="481 36.57 480.95 72.58 444.66 36.29 480.95 0 481 36.57"/><polygon class="cls-2" points="174.88 471.06 0 296.18 0 492.33 76.8 569.13 174.88 471.06"/><polygon class="cls-2" points="174.88 813.06 0 638.18 0 834.33 76.8 911.13 174.88 813.06"/></g></g></svg>