<svg xmlns="http://www.w3.org/2000/svg" viewBox="0 0 160.07 127.69"><defs><style>.cls-1{fill:#ffbe03;stroke:#020516;stroke-miterlimit:10;stroke-width:3px;}.cls-2{fill:#020516;}.cls-3{fill:none;}</style></defs><title>Asset 107</title><g id="Layer_2" data-name="Layer 2"><g id="Layer_1-2" data-name="Layer 1"><path class="cls-1" d="M134.5,14.54V74.46a13,13,0,0,1-13,13H46.57l-33.07,19,4.93-19H14.54a13,13,0,0,1-13-13V14.54a13,13,0,0,1,13-13H121.46A13,13,0,0,1,134.5,14.54Z"/><path class="cls-1" d="M143.5,33.5v47s2,14-14,14h-83s0,14,14,15h65l25,15-4-15s12,2,12-12v-54S160.5,32.5,143.5,33.5Z"/><circle class="cls-2" cx="36" cy="42" r="9.5"/><circle class="cls-2" cx="68" cy="42" r="9.5"/><circle class="cls-2" cx="101" cy="42" r="9.5"/><rect class="cls-3" x="1.5" y="1.5" width="157" height="125"/></g></g></svg>