<svg xmlns="http://www.w3.org/2000/svg" viewBox="0 0 293.67 20.63"><defs><style>.cls-1{opacity:0.2;}.cls-2{fill:#3e4eaa;}.cls-3{fill:#0e174a;}.cls-4{fill:#ffbe03;}</style></defs><title>Asset 79</title><g id="Layer_2" data-name="Layer 2"><g id="Layer_1-2" data-name="Layer 1"><g class="cls-1"><path class="cls-2" d="M288.85,20.63H11.57a1.32,1.32,0,0,1-1.42-1.2V15.26a1.32,1.32,0,0,1,1.42-1.2H288.83a1.32,1.32,0,0,1,1.42,1.2l0,4.17A1.32,1.32,0,0,1,288.85,20.63Z"/></g><rect class="cls-3" x="10" y="2.95" width="283.67" height="14.41" rx="2.79" ry="2.79"/><rect class="cls-4" x="2.92" y="2.92" width="14.08" height="14.08" transform="translate(-4.12 9.95) rotate(-45)"/><path class="cls-4" d="M25.22,12.69a2.43,2.43,0,0,1-1,.21A1.73,1.73,0,0,1,22.36,11a1.85,1.85,0,0,1,2-1.93,2.22,2.22,0,0,1,.92.19l-.15.51a1.54,1.54,0,0,0-.77-.17A1.26,1.26,0,0,0,23,11a1.25,1.25,0,0,0,1.26,1.36,1.88,1.88,0,0,0,.81-.18Z"/><path class="cls-4" d="M26,10.33c0-.43,0-.8,0-1.14h.58l0,.71h0a1.09,1.09,0,0,1,1-.8l.19,0v.62l-.23,0a.93.93,0,0,0-.89.85,1.85,1.85,0,0,0,0,.31v1.94H26Z"/><path class="cls-4" d="M28.74,11.13A1.17,1.17,0,0,0,30,12.39a2.41,2.41,0,0,0,1-.19l.11.47a3,3,0,0,1-1.21.23,1.69,1.69,0,0,1-1.79-1.84,1.77,1.77,0,0,1,1.71-2,1.54,1.54,0,0,1,1.5,1.71,2.53,2.53,0,0,1,0,.31Zm1.94-.47a.94.94,0,0,0-.92-1.08,1.1,1.1,0,0,0-1,1.08Z"/><path class="cls-4" d="M34.15,12.83l-.05-.46h0a1.36,1.36,0,0,1-1.11.54,1,1,0,0,1-1.11-1c0-.88.78-1.36,2.19-1.35v-.08a.75.75,0,0,0-.83-.84,1.82,1.82,0,0,0-.95.27l-.15-.44a2.26,2.26,0,0,1,1.2-.32c1.11,0,1.38.76,1.38,1.49V12a5.15,5.15,0,0,0,.06.87ZM34.06,11c-.72,0-1.54.11-1.54.82a.59.59,0,0,0,.62.63.91.91,0,0,0,.88-.61.69.69,0,0,0,0-.21Z"/><path class="cls-4" d="M36.53,8.14v1h.95v.5h-.95v2c0,.45.13.71.5.71a1.48,1.48,0,0,0,.38,0l0,.5a1.62,1.62,0,0,1-.59.09.92.92,0,0,1-.71-.28,1.35,1.35,0,0,1-.26-.95v-2h-.56v-.5h.56V8.32Z"/><path class="cls-4" d="M38.54,11.13a1.17,1.17,0,0,0,1.25,1.26,2.41,2.41,0,0,0,1-.19l.11.47a3,3,0,0,1-1.21.23,1.69,1.69,0,0,1-1.79-1.84,1.77,1.77,0,0,1,1.71-2,1.54,1.54,0,0,1,1.5,1.71,2.53,2.53,0,0,1,0,.31Zm1.94-.47a.94.94,0,0,0-.92-1.08,1.1,1.1,0,0,0-1,1.08Z"/><path class="cls-4" d="M43.77,9.19l.8,2.15c.08.24.17.53.23.74h0c.07-.22.14-.5.23-.76l.72-2.14h.7l-1,2.59a5.54,5.54,0,0,1-1.25,2.28,1.78,1.78,0,0,1-.81.43l-.17-.56a1.74,1.74,0,0,0,.58-.32,2,2,0,0,0,.56-.74.47.47,0,0,0,.05-.16.58.58,0,0,0,0-.17L43.05,9.19Z"/><path class="cls-4" d="M50.29,11a1.78,1.78,0,0,1-1.81,1.93A1.73,1.73,0,0,1,46.74,11a1.78,1.78,0,0,1,1.81-1.93A1.72,1.72,0,0,1,50.29,11Zm-2.89,0c0,.8.46,1.4,1.11,1.4s1.11-.59,1.11-1.41c0-.62-.31-1.4-1.09-1.4S47.41,10.33,47.41,11Z"/><path class="cls-4" d="M54.17,11.84c0,.38,0,.71,0,1h-.59l0-.59h0a1.37,1.37,0,0,1-1.2.68c-.57,0-1.26-.32-1.26-1.59V9.19h.66v2c0,.69.21,1.16.81,1.16a1,1,0,0,0,.87-.6,1,1,0,0,0,.06-.34V9.19h.66Z"/><path class="cls-4" d="M55.27,10.33c0-.43,0-.8,0-1.14h.58l0,.71h0a1.09,1.09,0,0,1,1-.8l.19,0v.62l-.23,0a.93.93,0,0,0-.89.85,1.85,1.85,0,0,0,0,.31v1.94h-.65Z"/><path class="cls-4" d="M59.58,9.19l.71,2a9.31,9.31,0,0,1,.29.93h0c.08-.3.19-.6.31-.93l.71-2h.69l-1.43,3.64h-.63L58.87,9.19Z"/><path class="cls-4" d="M63.23,11.13a1.17,1.17,0,0,0,1.25,1.26,2.41,2.41,0,0,0,1-.19l.11.47a3,3,0,0,1-1.21.23,1.69,1.69,0,0,1-1.79-1.84,1.77,1.77,0,0,1,1.71-2,1.54,1.54,0,0,1,1.5,1.71,2.53,2.53,0,0,1,0,.31Zm1.94-.47a.94.94,0,0,0-.92-1.08,1.1,1.1,0,0,0-1,1.08Z"/><path class="cls-4" d="M66.63,10.33c0-.43,0-.8,0-1.14h.58l0,.71h0a1.09,1.09,0,0,1,1-.8l.19,0v.62l-.23,0a.93.93,0,0,0-.89.85,1.85,1.85,0,0,0,0,.31v1.94h-.65Z"/><path class="cls-4" d="M69.51,9.19l.8,2.15c.08.24.17.53.23.74h0c.07-.22.14-.5.23-.76l.72-2.14h.7l-1,2.59A5.54,5.54,0,0,1,70,14.06a1.78,1.78,0,0,1-.81.43L69,13.94a1.74,1.74,0,0,0,.58-.32,2,2,0,0,0,.56-.74.47.47,0,0,0,.05-.16.58.58,0,0,0,0-.17L68.79,9.19Z"/><path class="cls-4" d="M77.7,11a1.78,1.78,0,0,1-1.81,1.93A1.73,1.73,0,0,1,74.14,11a1.78,1.78,0,0,1,1.81-1.93A1.72,1.72,0,0,1,77.7,11Zm-2.89,0c0,.8.46,1.4,1.11,1.4S77,11.82,77,11c0-.62-.31-1.4-1.09-1.4S74.81,10.33,74.81,11Z"/><path class="cls-4" d="M78.74,9.19,79.23,11c.11.41.2.78.27,1.16h0c.08-.37.2-.76.32-1.15l.59-1.86H81L81.56,11c.14.44.24.82.32,1.19h0A11,11,0,0,1,82.18,11l.52-1.83h.65l-1.17,3.64h-.6L81,11.09a12,12,0,0,1-.32-1.2h0a10.72,10.72,0,0,1-.33,1.2l-.59,1.73h-.6l-1.1-3.64Z"/><path class="cls-4" d="M84,10.18c0-.38,0-.68,0-1h.59l0,.6h0a1.34,1.34,0,0,1,1.2-.68c.5,0,1.29.3,1.29,1.55v2.17h-.66v-2.1c0-.59-.22-1.08-.84-1.08a1,1,0,0,0-.93,1v2.19H84Z"/><path class="cls-4" d="M89.78,7.49h.66v5.34h-.66Z"/><path class="cls-4" d="M91.92,11.13a1.17,1.17,0,0,0,1.25,1.26,2.41,2.41,0,0,0,1-.19l.11.47a3,3,0,0,1-1.21.23,1.69,1.69,0,0,1-1.79-1.84,1.77,1.77,0,0,1,1.71-2,1.54,1.54,0,0,1,1.5,1.71,2.53,2.53,0,0,1,0,.31Zm1.94-.47a.94.94,0,0,0-.92-1.08,1.1,1.1,0,0,0-1,1.08Z"/><path class="cls-4" d="M97.34,12.83l-.05-.46h0a1.35,1.35,0,0,1-1.11.54,1,1,0,0,1-1.11-1c0-.88.78-1.36,2.19-1.35v-.08a.75.75,0,0,0-.83-.84,1.82,1.82,0,0,0-.95.27l-.15-.44a2.26,2.26,0,0,1,1.2-.32c1.11,0,1.38.76,1.38,1.49V12a5.15,5.15,0,0,0,.06.87ZM97.24,11c-.72,0-1.54.11-1.54.82a.59.59,0,0,0,.62.63.91.91,0,0,0,.88-.61.69.69,0,0,0,0-.21Z"/><path class="cls-4" d="M102.08,9.19c0,.26,0,.56,0,1V12.3a2.09,2.09,0,0,1-.52,1.66,1.93,1.93,0,0,1-1.32.44A2.35,2.35,0,0,1,99,14.1l.17-.5a2.06,2.06,0,0,0,1.07.29c.68,0,1.17-.35,1.17-1.27v-.41h0a1.3,1.3,0,0,1-1.16.61A1.63,1.63,0,0,1,98.68,11a1.75,1.75,0,0,1,1.64-1.93,1.21,1.21,0,0,1,1.14.63h0l0-.55Zm-.68,1.44a.93.93,0,0,0,0-.3,1,1,0,0,0-.93-.7c-.63,0-1.08.53-1.08,1.38s.36,1.31,1.08,1.31a1,1,0,0,0,.92-.68,1.15,1.15,0,0,0,.05-.35Z"/><path class="cls-4" d="M106.19,11.84c0,.38,0,.71,0,1h-.59l0-.59h0a1.37,1.37,0,0,1-1.2.68c-.57,0-1.26-.32-1.26-1.59V9.19h.66v2c0,.69.21,1.16.81,1.16a1,1,0,0,0,.87-.6,1,1,0,0,0,.06-.34V9.19h.66Z"/><path class="cls-4" d="M107.66,11.13a1.17,1.17,0,0,0,1.25,1.26,2.41,2.41,0,0,0,1-.19l.11.47a3,3,0,0,1-1.21.23A1.69,1.69,0,0,1,107,11.07a1.77,1.77,0,0,1,1.71-2,1.54,1.54,0,0,1,1.5,1.71,2.53,2.53,0,0,1,0,.31Zm1.94-.47a.94.94,0,0,0-.92-1.08,1.1,1.1,0,0,0-1,1.08Z"/><path class="cls-4" d="M112.62,12.83c0-.25,0-.62,0-.94V7.49h.65V9.78h0a1.36,1.36,0,0,1,1.24-.67c.9,0,1.54.75,1.53,1.86a1.73,1.73,0,0,1-1.63,1.95,1.3,1.3,0,0,1-1.22-.68h0l0,.6Zm.68-1.46a1.23,1.23,0,0,0,0,.24,1,1,0,0,0,1,.78c.69,0,1.11-.56,1.11-1.4s-.38-1.35-1.08-1.35a1.06,1.06,0,0,0-1,.81,1.3,1.3,0,0,0,0,.27Z"/><path class="cls-4" d="M117.11,9.19l.8,2.15c.08.24.17.53.23.74h0c.07-.22.14-.5.23-.76l.72-2.14h.7l-1,2.59a5.54,5.54,0,0,1-1.25,2.28,1.78,1.78,0,0,1-.81.43l-.17-.56a1.74,1.74,0,0,0,.58-.32,2,2,0,0,0,.56-.74.47.47,0,0,0,.05-.16.58.58,0,0,0,0-.17l-1.35-3.35Z"/><path class="cls-4" d="M124.6,12.69a2.43,2.43,0,0,1-1,.21A1.73,1.73,0,0,1,121.74,11a1.85,1.85,0,0,1,2-1.93,2.22,2.22,0,0,1,.92.19l-.15.51a1.54,1.54,0,0,0-.77-.17A1.26,1.26,0,0,0,122.41,11a1.25,1.25,0,0,0,1.26,1.36,1.88,1.88,0,0,0,.81-.18Z"/><path class="cls-4" d="M125.37,7.49H126V9.76h0a1.23,1.23,0,0,1,.47-.47,1.36,1.36,0,0,1,.68-.19c.49,0,1.27.3,1.27,1.56v2.17h-.66V10.74c0-.59-.22-1.08-.84-1.08a1,1,0,0,0-.89.66.81.81,0,0,0,0,.32v2.2h-.66Z"/><path class="cls-4" d="M132.84,11A1.78,1.78,0,0,1,131,12.91,1.73,1.73,0,0,1,129.28,11a1.78,1.78,0,0,1,1.81-1.93A1.72,1.72,0,0,1,132.84,11ZM130,11c0,.8.46,1.4,1.11,1.4s1.11-.59,1.11-1.41c0-.62-.31-1.4-1.09-1.4S130,10.33,130,11Z"/><path class="cls-4" d="M137,11a1.78,1.78,0,0,1-1.81,1.93A1.73,1.73,0,0,1,133.41,11a1.78,1.78,0,0,1,1.81-1.93A1.72,1.72,0,0,1,137,11Zm-2.89,0c0,.8.46,1.4,1.11,1.4s1.11-.59,1.11-1.41c0-.62-.31-1.4-1.09-1.4S134.08,10.33,134.08,11Z"/><path class="cls-4" d="M137.71,12.15a1.73,1.73,0,0,0,.87.26c.48,0,.71-.24.71-.54s-.19-.49-.68-.67c-.65-.23-1-.59-1-1a1.12,1.12,0,0,1,1.26-1.07,1.82,1.82,0,0,1,.9.23l-.17.48a1.42,1.42,0,0,0-.74-.21c-.39,0-.61.23-.61.5s.22.44.69.62c.63.24,1,.56,1,1.1s-.5,1.09-1.36,1.09a2.08,2.08,0,0,1-1-.25Z"/><path class="cls-4" d="M141.51,8.17a.41.41,0,0,1-.82,0,.4.4,0,0,1,.41-.41A.39.39,0,0,1,141.51,8.17Zm-.74,4.66V9.19h.66v3.64Z"/><path class="cls-4" d="M142.54,10.18c0-.38,0-.68,0-1h.59l0,.6h0a1.34,1.34,0,0,1,1.2-.68c.5,0,1.29.3,1.29,1.55v2.17H145v-2.1c0-.59-.22-1.08-.84-1.08a1,1,0,0,0-.93,1v2.19h-.66Z"/><path class="cls-4" d="M149.84,9.19c0,.26,0,.56,0,1V12.3A2.09,2.09,0,0,1,149.3,14a1.93,1.93,0,0,1-1.32.44,2.35,2.35,0,0,1-1.21-.3l.17-.5a2.06,2.06,0,0,0,1.07.29c.68,0,1.17-.35,1.17-1.27v-.41h0a1.3,1.3,0,0,1-1.16.61A1.63,1.63,0,0,1,146.44,11a1.75,1.75,0,0,1,1.64-1.93,1.21,1.21,0,0,1,1.14.63h0l0-.55Zm-.68,1.44a.93.93,0,0,0,0-.3,1,1,0,0,0-.93-.7c-.63,0-1.08.53-1.08,1.38s.36,1.31,1.08,1.31a1,1,0,0,0,.92-.68,1.15,1.15,0,0,0,.05-.35Z"/><path class="cls-4" d="M152.47,12.83c0-.25,0-.62,0-.94V7.49h.65V9.78h0a1.36,1.36,0,0,1,1.24-.67c.9,0,1.54.75,1.53,1.86a1.73,1.73,0,0,1-1.63,1.95,1.3,1.3,0,0,1-1.22-.68h0l0,.6Zm.68-1.46a1.23,1.23,0,0,0,0,.24,1,1,0,0,0,1,.78c.69,0,1.11-.56,1.11-1.4s-.38-1.35-1.08-1.35a1.06,1.06,0,0,0-1,.81,1.3,1.3,0,0,0,0,.27Z"/><path class="cls-4" d="M157.15,11.13a1.17,1.17,0,0,0,1.25,1.26,2.41,2.41,0,0,0,1-.19l.11.47a3,3,0,0,1-1.21.23,1.69,1.69,0,0,1-1.79-1.84,1.77,1.77,0,0,1,1.71-2,1.54,1.54,0,0,1,1.5,1.71,2.53,2.53,0,0,1,0,.31Zm1.94-.47a.94.94,0,0,0-.92-1.08,1.1,1.1,0,0,0-1,1.08Z"/><path class="cls-4" d="M161.34,8.14v1h.95v.5h-.95v2c0,.45.13.71.5.71a1.48,1.48,0,0,0,.38,0l0,.5a1.62,1.62,0,0,1-.59.09.92.92,0,0,1-.71-.28,1.35,1.35,0,0,1-.26-.95v-2h-.56v-.5h.56V8.32Z"/><path class="cls-4" d="M163.37,9.19l.48,1.85c.11.41.2.78.27,1.16h0c.08-.37.2-.76.32-1.15l.59-1.86h.56l.56,1.82c.14.44.24.82.32,1.19h0A11,11,0,0,1,166.8,11l.52-1.83H168l-1.17,3.64h-.6l-.56-1.74a12,12,0,0,1-.32-1.2h0a10.72,10.72,0,0,1-.33,1.2l-.59,1.73h-.6l-1.1-3.64Z"/><path class="cls-4" d="M168.93,11.13a1.17,1.17,0,0,0,1.25,1.26,2.41,2.41,0,0,0,1-.19l.11.47a3,3,0,0,1-1.21.23,1.69,1.69,0,0,1-1.79-1.84,1.77,1.77,0,0,1,1.71-2,1.54,1.54,0,0,1,1.5,1.71,2.53,2.53,0,0,1,0,.31Zm1.94-.47A.94.94,0,0,0,170,9.58a1.1,1.1,0,0,0-1,1.08Z"/><path class="cls-4" d="M172.69,11.13a1.17,1.17,0,0,0,1.25,1.26,2.41,2.41,0,0,0,1-.19l.11.47a3,3,0,0,1-1.21.23,1.69,1.69,0,0,1-1.79-1.84,1.77,1.77,0,0,1,1.71-2,1.54,1.54,0,0,1,1.5,1.71,2.53,2.53,0,0,1,0,.31Zm1.94-.47a.94.94,0,0,0-.92-1.08,1.1,1.1,0,0,0-1,1.08Z"/><path class="cls-4" d="M176.09,10.18c0-.38,0-.68,0-1h.59l0,.6h0a1.34,1.34,0,0,1,1.2-.68c.5,0,1.29.3,1.29,1.55v2.17h-.66v-2.1c0-.59-.22-1.08-.84-1.08a1,1,0,0,0-.93,1v2.19h-.66Z"/><path class="cls-4" d="M185.15,11a1.78,1.78,0,0,1-1.81,1.93A1.73,1.73,0,0,1,181.59,11a1.78,1.78,0,0,1,1.81-1.93A1.72,1.72,0,0,1,185.15,11Zm-2.89,0c0,.8.46,1.4,1.11,1.4s1.11-.59,1.11-1.41c0-.62-.31-1.4-1.09-1.4S182.26,10.33,182.26,11Z"/><path class="cls-4" d="M189,11.84c0,.38,0,.71,0,1h-.59l0-.59h0a1.37,1.37,0,0,1-1.2.68c-.57,0-1.26-.32-1.26-1.59V9.19h.66v2c0,.69.21,1.16.81,1.16a1,1,0,0,0,.87-.6,1,1,0,0,0,.06-.34V9.19H189Z"/><path class="cls-4" d="M190.13,10.33c0-.43,0-.8,0-1.14h.58l0,.71h0a1.09,1.09,0,0,1,1-.8l.19,0v.62l-.23,0a.93.93,0,0,0-.89.85,1.85,1.85,0,0,0,0,.31v1.94h-.65Z"/><path class="cls-4" d="M194.09,12.15a1.73,1.73,0,0,0,.87.26c.48,0,.71-.24.71-.54s-.19-.49-.68-.67c-.65-.23-1-.59-1-1a1.12,1.12,0,0,1,1.26-1.07,1.82,1.82,0,0,1,.9.23l-.17.48a1.42,1.42,0,0,0-.74-.21c-.39,0-.61.23-.61.5s.22.44.69.62c.63.24,1,.56,1,1.1s-.5,1.09-1.36,1.09a2.08,2.08,0,0,1-1-.25Z"/><path class="cls-4" d="M197.4,9.19l.8,2.15c.08.24.17.53.23.74h0c.07-.22.14-.5.23-.76l.72-2.14h.7l-1,2.59a5.54,5.54,0,0,1-1.25,2.28,1.78,1.78,0,0,1-.81.43l-.17-.56a1.74,1.74,0,0,0,.58-.32,2,2,0,0,0,.56-.74.47.47,0,0,0,.05-.16.58.58,0,0,0,0-.17l-1.35-3.35Z"/><path class="cls-4" d="M200.56,12.15a1.73,1.73,0,0,0,.87.26c.48,0,.71-.24.71-.54s-.19-.49-.68-.67c-.65-.23-1-.59-1-1a1.12,1.12,0,0,1,1.26-1.07,1.82,1.82,0,0,1,.9.23l-.17.48a1.42,1.42,0,0,0-.74-.21c-.39,0-.61.23-.61.5s.22.44.69.62c.63.24,1,.56,1,1.1s-.5,1.09-1.36,1.09a2.08,2.08,0,0,1-1-.25Z"/><path class="cls-4" d="M204.43,8.14v1h.95v.5h-.95v2c0,.45.13.71.5.71a1.48,1.48,0,0,0,.38,0l0,.5a1.62,1.62,0,0,1-.59.09.92.92,0,0,1-.71-.28,1.35,1.35,0,0,1-.26-.95v-2h-.56v-.5h.56V8.32Z"/><path class="cls-4" d="M206.44,11.13a1.17,1.17,0,0,0,1.25,1.26,2.41,2.41,0,0,0,1-.19l.11.47a3,3,0,0,1-1.21.23,1.69,1.69,0,0,1-1.79-1.84,1.77,1.77,0,0,1,1.71-2,1.54,1.54,0,0,1,1.5,1.71,2.53,2.53,0,0,1,0,.31Zm1.94-.47a.94.94,0,0,0-.92-1.08,1.1,1.1,0,0,0-1,1.08Z"/><path class="cls-4" d="M209.84,10.18c0-.38,0-.68,0-1h.58l0,.59h0a1.25,1.25,0,0,1,1.14-.67,1.08,1.08,0,0,1,1,.73h0a1.49,1.49,0,0,1,.41-.47,1.24,1.24,0,0,1,.81-.26c.48,0,1.2.32,1.2,1.58v2.14h-.65V10.77c0-.7-.26-1.12-.79-1.12a.86.86,0,0,0-.78.6,1.08,1.08,0,0,0-.05.33v2.25h-.65V10.65c0-.58-.26-1-.76-1a.91.91,0,0,0-.82.66.92.92,0,0,0-.05.32v2.2h-.65Z"/><path class="cls-4" d="M217.61,12.15a1.73,1.73,0,0,0,.87.26c.48,0,.71-.24.71-.54s-.19-.49-.68-.67c-.65-.23-1-.59-1-1a1.12,1.12,0,0,1,1.26-1.07,1.82,1.82,0,0,1,.9.23l-.17.48a1.42,1.42,0,0,0-.74-.21c-.39,0-.61.23-.61.5s.22.44.69.62c.63.24,1,.56,1,1.1s-.5,1.09-1.36,1.09a2.08,2.08,0,0,1-1-.25Z"/><path class="cls-4" d="M220.68,10.38c0-.47,0-.84,0-1.19h.59l0,.62h0a1.43,1.43,0,0,1,1.29-.71A1.65,1.65,0,0,1,224.12,11a1.72,1.72,0,0,1-1.66,2,1.28,1.28,0,0,1-1.12-.57h0v2h-.65Zm.65,1a1.48,1.48,0,0,0,0,.27,1,1,0,0,0,1,.77c.7,0,1.11-.57,1.11-1.41s-.38-1.35-1.08-1.35a1.06,1.06,0,0,0-1,.82,1.08,1.08,0,0,0,0,.27Z"/><path class="cls-4" d="M228.25,11a1.78,1.78,0,0,1-1.81,1.93A1.73,1.73,0,0,1,224.69,11a1.78,1.78,0,0,1,1.81-1.93A1.72,1.72,0,0,1,228.25,11Zm-2.89,0c0,.8.46,1.4,1.11,1.4s1.11-.59,1.11-1.41c0-.62-.31-1.4-1.09-1.4S225.36,10.33,225.36,11Z"/><path class="cls-4" d="M229.08,10.33c0-.43,0-.8,0-1.14h.58l0,.71h0a1.09,1.09,0,0,1,1-.8l.19,0v.62l-.23,0a.93.93,0,0,0-.89.85,1.85,1.85,0,0,0,0,.31v1.94h-.65Z"/><path class="cls-4" d="M232.52,8.14v1h.95v.5h-.95v2c0,.45.13.71.5.71a1.48,1.48,0,0,0,.38,0l0,.5a1.62,1.62,0,0,1-.59.09.92.92,0,0,1-.71-.28,1.35,1.35,0,0,1-.26-.95v-2h-.56v-.5h.56V8.32Z"/><path class="cls-4" d="M238.95,7.49v4.4c0,.32,0,.69,0,.94h-.59l0-.63h0a1.35,1.35,0,0,1-1.24.71,1.66,1.66,0,0,1-1.56-1.85,1.74,1.74,0,0,1,1.63-2,1.22,1.22,0,0,1,1.1.56h0V7.49Zm-.66,3.18a1.17,1.17,0,0,0,0-.28,1,1,0,0,0-1-.77c-.68,0-1.09.6-1.09,1.41s.36,1.35,1.08,1.35a1,1,0,0,0,1-.79,1.15,1.15,0,0,0,0-.29Z"/><path class="cls-4" d="M242.06,12.83l-.05-.46h0a1.35,1.35,0,0,1-1.11.54,1,1,0,0,1-1.11-1c0-.88.78-1.36,2.19-1.35v-.08a.75.75,0,0,0-.83-.84,1.82,1.82,0,0,0-.95.27L240,9.43a2.26,2.26,0,0,1,1.2-.32c1.11,0,1.38.76,1.38,1.49V12a5.15,5.15,0,0,0,.06.87ZM242,11c-.72,0-1.54.11-1.54.82a.59.59,0,0,0,.62.63.91.91,0,0,0,.88-.61.69.69,0,0,0,0-.21Z"/><path class="cls-4" d="M244.43,8.14v1h.95v.5h-.95v2c0,.45.13.71.5.71a1.48,1.48,0,0,0,.38,0l0,.5a1.62,1.62,0,0,1-.59.09.92.92,0,0,1-.71-.28,1.35,1.35,0,0,1-.26-.95v-2h-.56v-.5h.56V8.32Z"/><path class="cls-4" d="M248.14,12.83l-.05-.46h0a1.36,1.36,0,0,1-1.11.54,1,1,0,0,1-1.11-1c0-.88.78-1.36,2.19-1.35v-.08a.75.75,0,0,0-.83-.84,1.82,1.82,0,0,0-.95.27l-.15-.44a2.26,2.26,0,0,1,1.2-.32c1.11,0,1.38.76,1.38,1.49V12a5.15,5.15,0,0,0,.06.87ZM248,11c-.72,0-1.54.11-1.54.82a.59.59,0,0,0,.62.63.91.91,0,0,0,.88-.61.69.69,0,0,0,0-.21Z"/><path class="cls-4" d="M254.63,11a1.78,1.78,0,0,1-1.81,1.93A1.73,1.73,0,0,1,251.08,11a1.78,1.78,0,0,1,1.81-1.93A1.72,1.72,0,0,1,254.63,11Zm-2.89,0c0,.8.46,1.4,1.11,1.4S254,11.82,254,11c0-.62-.31-1.4-1.09-1.4S251.75,10.33,251.75,11Z"/><path class="cls-4" d="M255.47,10.33c0-.43,0-.8,0-1.14H256l0,.71h0a1.09,1.09,0,0,1,1-.8l.19,0v.62l-.23,0a.93.93,0,0,0-.89.85,1.85,1.85,0,0,0,0,.31v1.94h-.65Z"/><path class="cls-4" d="M259.76,9.19l.8,2.15c.08.24.17.53.23.74h0c.07-.22.14-.5.23-.76l.72-2.14h.7l-1,2.59a5.54,5.54,0,0,1-1.25,2.28,1.78,1.78,0,0,1-.81.43l-.17-.56a1.74,1.74,0,0,0,.58-.32,2,2,0,0,0,.56-.74.47.47,0,0,0,.05-.16.58.58,0,0,0,0-.17L259,9.19Z"/><path class="cls-4" d="M266.28,11a1.78,1.78,0,0,1-1.81,1.93A1.73,1.73,0,0,1,262.72,11a1.78,1.78,0,0,1,1.81-1.93A1.72,1.72,0,0,1,266.28,11Zm-2.89,0c0,.8.46,1.4,1.11,1.4s1.11-.59,1.11-1.41c0-.62-.31-1.4-1.09-1.4S263.39,10.33,263.39,11Z"/><path class="cls-4" d="M270.16,11.84c0,.38,0,.71,0,1h-.59l0-.59h0a1.37,1.37,0,0,1-1.2.68c-.57,0-1.26-.32-1.26-1.59V9.19h.66v2c0,.69.21,1.16.81,1.16a1,1,0,0,0,.87-.6,1,1,0,0,0,.06-.34V9.19h.66Z"/><path class="cls-4" d="M271.25,10.33c0-.43,0-.8,0-1.14h.58l0,.71h0a1.09,1.09,0,0,1,1-.8l.19,0v.62l-.23,0a.93.93,0,0,0-.89.85,1.85,1.85,0,0,0,0,.31v1.94h-.65Z"/><path class="cls-4" d="M278.6,11a1.78,1.78,0,0,1-1.81,1.93A1.73,1.73,0,0,1,275,11a1.78,1.78,0,0,1,1.81-1.93A1.72,1.72,0,0,1,278.6,11Zm-2.89,0c0,.8.46,1.4,1.11,1.4s1.11-.59,1.11-1.41c0-.62-.31-1.4-1.09-1.4S275.71,10.33,275.71,11Z"/><path class="cls-4" d="M279.64,9.19l.48,1.85c.11.41.2.78.27,1.16h0c.08-.37.2-.76.32-1.15l.59-1.86h.56l.56,1.82c.14.44.24.82.32,1.19h0a11,11,0,0,1,.28-1.18l.52-1.83h.65l-1.17,3.64h-.6l-.56-1.74a12,12,0,0,1-.32-1.2h0a10.72,10.72,0,0,1-.33,1.2l-.59,1.73h-.6L279,9.19Z"/><path class="cls-4" d="M284.91,10.18c0-.38,0-.68,0-1h.59l0,.6h0a1.34,1.34,0,0,1,1.2-.68c.5,0,1.29.3,1.29,1.55v2.17h-.66v-2.1c0-.59-.22-1.08-.84-1.08a1,1,0,0,0-.93,1v2.19h-.66Z"/></g></g></svg>