<svg xmlns="http://www.w3.org/2000/svg" viewBox="0 0 210.92 20.63"><defs><style>.cls-1{opacity:0.2;}.cls-2{fill:#3e4eaa;}.cls-3{fill:#0e174a;}.cls-4{fill:#ffbe03;}</style></defs><title>Asset 92</title><g id="Layer_2" data-name="Layer 2"><g id="Layer_1-2" data-name="Layer 1"><g class="cls-1"><path class="cls-2" d="M207.5,20.63H11.11a1.11,1.11,0,0,1-1-1.2V15.26a1.11,1.11,0,0,1,1-1.2H207.49a1.11,1.11,0,0,1,1,1.2v4.17A1.12,1.12,0,0,1,207.5,20.63Z"/></g><rect class="cls-3" x="10" y="2.95" width="200.92" height="14.41" rx="2.79" ry="2.79"/><rect class="cls-4" x="2.92" y="2.92" width="14.08" height="14.08" transform="translate(-4.12 9.95) rotate(-45)"/><path class="cls-4" d="M22.36,10.86a2.14,2.14,0,0,1,.14-.78,2,2,0,0,1,.4-.64A1.87,1.87,0,0,1,23.53,9a2,2,0,0,1,.8-.16,1.83,1.83,0,0,1,1,.25,1.62,1.62,0,0,1,.62.68l-.5.16A1.19,1.19,0,0,0,25,9.47a1.28,1.28,0,0,0-.65-.17,1.32,1.32,0,0,0-.56.12,1.44,1.44,0,0,0-.45.33,1.51,1.51,0,0,0-.3.49,1.81,1.81,0,0,0,0,1.25,1.59,1.59,0,0,0,.31.51,1.46,1.46,0,0,0,.46.34,1.26,1.26,0,0,0,.55.12,1.34,1.34,0,0,0,.37-.05,1.41,1.41,0,0,0,.34-.15A1.22,1.22,0,0,0,25.3,12a.69.69,0,0,0,.16-.26l.5.15a1.29,1.29,0,0,1-.24.39,1.66,1.66,0,0,1-.37.31,1.83,1.83,0,0,1-.47.2,2,2,0,0,1-.54.07,1.9,1.9,0,0,1-1.41-.6,2.05,2.05,0,0,1-.41-.65A2.11,2.11,0,0,1,22.36,10.86Z"/><path class="cls-4" d="M28.4,12.91a1.88,1.88,0,0,1-.79-.16A1.91,1.91,0,0,1,27,12.3a2,2,0,0,1-.4-.65,2.12,2.12,0,0,1-.14-.77,2.09,2.09,0,0,1,.15-.78A2.05,2.05,0,0,1,27,9.46,2,2,0,0,1,27.62,9a1.91,1.91,0,0,1,1.56,0,2,2,0,0,1,.62.44,2.05,2.05,0,0,1,.41.65,2.1,2.1,0,0,1,.15.78,2.07,2.07,0,0,1-.15.77,2,2,0,0,1-.41.65,1.91,1.91,0,0,1-.62.44A1.86,1.86,0,0,1,28.4,12.91Zm-1.42-2a1.68,1.68,0,0,0,.11.61,1.61,1.61,0,0,0,.3.5,1.38,1.38,0,0,0,.45.33,1.3,1.3,0,0,0,.55.12,1.26,1.26,0,0,0,.55-.12A1.46,1.46,0,0,0,29.4,12a1.61,1.61,0,0,0,.31-.5,1.73,1.73,0,0,0,0-1.23,1.6,1.6,0,0,0-.31-.5A1.47,1.47,0,0,0,29,9.42a1.24,1.24,0,0,0-.55-.12,1.27,1.27,0,0,0-.55.12,1.39,1.39,0,0,0-.45.34A1.7,1.7,0,0,0,27,10.89Z"/><path class="cls-4" d="M37,12.83H36.5V10.64a1.86,1.86,0,0,0-.21-1,.73.73,0,0,0-.65-.32,1.1,1.1,0,0,0-.42.08,1.3,1.3,0,0,0-.37.23,1.59,1.59,0,0,0-.3.36,1.72,1.72,0,0,0-.2.45v2.39h-.51V10.64a1.88,1.88,0,0,0-.21-1A.72.72,0,0,0,33,9.31a1.15,1.15,0,0,0-.79.31,1.72,1.72,0,0,0-.5.81v2.4h-.51V8.91h.47V9.8a1.85,1.85,0,0,1,.63-.7,1.56,1.56,0,0,1,.86-.25,1.13,1.13,0,0,1,.8.28,1.17,1.17,0,0,1,.36.73,1.68,1.68,0,0,1,1.52-1,1.18,1.18,0,0,1,.55.12,1,1,0,0,1,.37.34,1.61,1.61,0,0,1,.2.53,3.49,3.49,0,0,1,.06.7Z"/><path class="cls-4" d="M39.78,12.91a1.9,1.9,0,0,1-1.41-.6,2.05,2.05,0,0,1-.41-.65,2.11,2.11,0,0,1-.15-.79,2.06,2.06,0,0,1,.15-.78A2,2,0,0,1,39,9a2,2,0,0,1,1.57,0,1.87,1.87,0,0,1,.61.44,2.07,2.07,0,0,1,.54,1.41s0,.08,0,.12a.38.38,0,0,1,0,.08H38.35a1.65,1.65,0,0,0,.46,1,1.38,1.38,0,0,0,.44.3,1.34,1.34,0,0,0,.54.11,1.41,1.41,0,0,0,.38-.05,1.53,1.53,0,0,0,.35-.14,1.21,1.21,0,0,0,.28-.22,1,1,0,0,0,.19-.29l.44.12a1.3,1.3,0,0,1-.26.39,1.79,1.79,0,0,1-.38.31,1.88,1.88,0,0,1-.48.2A2.07,2.07,0,0,1,39.78,12.91Zm1.44-2.24a1.57,1.57,0,0,0-.46-1,1.42,1.42,0,0,0-2,0,1.44,1.44,0,0,0-.31.45,1.71,1.71,0,0,0-.14.57Z"/><path class="cls-4" d="M43.8,12.91a2.73,2.73,0,0,1-.89-.15,2.15,2.15,0,0,1-.75-.44l.23-.35a2.53,2.53,0,0,0,.67.41,2,2,0,0,0,.73.14,1.32,1.32,0,0,0,.76-.19.62.62,0,0,0,.28-.54.47.47,0,0,0-.08-.27.65.65,0,0,0-.22-.19,1.73,1.73,0,0,0-.37-.15L43.65,11l-.59-.17a1.8,1.8,0,0,1-.41-.19.68.68,0,0,1-.24-.26.84.84,0,0,1-.08-.39,1.11,1.11,0,0,1,.12-.52,1.06,1.06,0,0,1,.32-.37,1.43,1.43,0,0,1,.47-.22,2.09,2.09,0,0,1,.57-.08,2.19,2.19,0,0,1,.82.15,1.62,1.62,0,0,1,.59.39l-.25.3a1.37,1.37,0,0,0-.53-.34,1.91,1.91,0,0,0-.65-.11,1.62,1.62,0,0,0-.38,0,.9.9,0,0,0-.3.13.64.64,0,0,0-.21.23.68.68,0,0,0-.08.33.54.54,0,0,0,.05.26.45.45,0,0,0,.17.17,1.39,1.39,0,0,0,.3.13l.45.12.66.18a2.07,2.07,0,0,1,.48.21.83.83,0,0,1,.29.29.85.85,0,0,1,.1.42,1,1,0,0,1-.41.86A1.79,1.79,0,0,1,43.8,12.91Z"/><path class="cls-4" d="M50.07,12.91a1.57,1.57,0,0,1-.88-.25,2,2,0,0,1-.62-.64v2.41h-.51V8.91h.46v.76a1.89,1.89,0,0,1,.62-.6A1.6,1.6,0,0,1,50,8.85a1.67,1.67,0,0,1,.75.17,1.91,1.91,0,0,1,.59.45,2.09,2.09,0,0,1,.39.65,2.13,2.13,0,0,1,.14.76,2.37,2.37,0,0,1-.13.78,2,2,0,0,1-.36.65,1.75,1.75,0,0,1-.56.44A1.6,1.6,0,0,1,50.07,12.91Zm-.14-.45a1.2,1.2,0,0,0,.57-.14,1.45,1.45,0,0,0,.44-.36,1.61,1.61,0,0,0,.28-.5,1.77,1.77,0,0,0,.1-.58,1.62,1.62,0,0,0-.11-.6,1.66,1.66,0,0,0-.31-.5,1.46,1.46,0,0,0-.46-.35,1.31,1.31,0,0,0-.58-.13,1.15,1.15,0,0,0-.41.08,1.79,1.79,0,0,0-.4.21,1.38,1.38,0,0,0-.32.31.83.83,0,0,0-.16.37v1.2a1.78,1.78,0,0,0,.23.39,1.63,1.63,0,0,0,.32.31,1.48,1.48,0,0,0,.38.21A1.23,1.23,0,0,0,49.93,12.45Z"/><path class="cls-4" d="M54.64,9.37a1.61,1.61,0,0,0-.9.29,1.44,1.44,0,0,0-.54.74v2.44h-.51V8.91h.48v.94a2.06,2.06,0,0,1,.53-.69,1.1,1.1,0,0,1,.71-.27h.23Z"/><path class="cls-4" d="M57,12.91a1.9,1.9,0,0,1-1.41-.6,2.05,2.05,0,0,1-.41-.65,2.11,2.11,0,0,1-.15-.79,2.06,2.06,0,0,1,.15-.78,2,2,0,0,1,1-1.08,2,2,0,0,1,1.57,0,1.87,1.87,0,0,1,.61.44A2.07,2.07,0,0,1,59,10.85s0,.08,0,.12a.38.38,0,0,1,0,.08H55.61a1.65,1.65,0,0,0,.46,1,1.38,1.38,0,0,0,.44.3,1.34,1.34,0,0,0,.54.11,1.41,1.41,0,0,0,.38-.05,1.53,1.53,0,0,0,.35-.14,1.21,1.21,0,0,0,.28-.22,1,1,0,0,0,.19-.29l.44.12a1.3,1.3,0,0,1-.26.39,1.79,1.79,0,0,1-.38.31,1.88,1.88,0,0,1-.48.2A2.07,2.07,0,0,1,57,12.91Zm1.44-2.24a1.57,1.57,0,0,0-.46-1,1.42,1.42,0,0,0-2,0,1.44,1.44,0,0,0-.31.45,1.71,1.71,0,0,0-.14.57Z"/><path class="cls-4" d="M59.69,11v-.47h2.19V11Z"/><path class="cls-4" d="M64.93,12.91a1.57,1.57,0,0,1-.88-.25,2,2,0,0,1-.62-.64v2.41h-.51V8.91h.46v.76a1.89,1.89,0,0,1,.62-.6,1.6,1.6,0,0,1,.83-.23,1.67,1.67,0,0,1,.75.17,1.91,1.91,0,0,1,.59.45,2.09,2.09,0,0,1,.39.65,2.13,2.13,0,0,1,.14.76,2.37,2.37,0,0,1-.13.78,2,2,0,0,1-.36.65,1.75,1.75,0,0,1-.56.44A1.6,1.6,0,0,1,64.93,12.91Zm-.14-.45a1.2,1.2,0,0,0,.57-.14A1.45,1.45,0,0,0,65.8,12a1.61,1.61,0,0,0,.28-.5,1.77,1.77,0,0,0,.1-.58,1.62,1.62,0,0,0-.11-.6,1.66,1.66,0,0,0-.31-.5,1.46,1.46,0,0,0-.46-.35,1.31,1.31,0,0,0-.58-.13,1.15,1.15,0,0,0-.41.08,1.79,1.79,0,0,0-.4.21,1.38,1.38,0,0,0-.32.31.83.83,0,0,0-.16.37v1.2a1.78,1.78,0,0,0,.23.39,1.63,1.63,0,0,0,.32.31,1.48,1.48,0,0,0,.38.21A1.23,1.23,0,0,0,64.78,12.45Z"/><path class="cls-4" d="M68.58,12.91a1.54,1.54,0,0,1-.55-.09,1.28,1.28,0,0,1-.42-.26,1.17,1.17,0,0,1-.27-.38,1.1,1.1,0,0,1-.1-.46,1,1,0,0,1,.12-.49,1.13,1.13,0,0,1,.34-.38,1.65,1.65,0,0,1,.52-.24,2.46,2.46,0,0,1,.67-.09,3.56,3.56,0,0,1,.6.05,2.62,2.62,0,0,1,.55.15v-.35a1.13,1.13,0,0,0-.3-.82,1.07,1.07,0,0,0-.8-.3,1.73,1.73,0,0,0-.63.12,3,3,0,0,0-.64.35l-.18-.34A3.41,3.41,0,0,1,68.24,9,2.24,2.24,0,0,1,69,8.85a1.55,1.55,0,0,1,1.14.41,1.53,1.53,0,0,1,.42,1.14v1.77c0,.14.06.21.18.21v.45h-.2a.46.46,0,0,1-.27-.09.35.35,0,0,1-.14-.27l0-.31a1.7,1.7,0,0,1-.67.54A2,2,0,0,1,68.58,12.91Zm.13-.39a1.66,1.66,0,0,0,.67-.15,1.31,1.31,0,0,0,.53-.4.79.79,0,0,0,.09-.15.34.34,0,0,0,0-.15V11a3.09,3.09,0,0,0-.53-.15,2.9,2.9,0,0,0-.54-.05,1.61,1.61,0,0,0-.89.22.69.69,0,0,0-.34.61.82.82,0,0,0,.06.31.78.78,0,0,0,.18.27,1,1,0,0,0,.3.2A1.1,1.1,0,0,0,68.71,12.51Z"/><path class="cls-4" d="M71.41,10.86a2.14,2.14,0,0,1,.14-.78,2,2,0,0,1,.4-.64A1.87,1.87,0,0,1,72.57,9a2,2,0,0,1,.8-.16,1.83,1.83,0,0,1,1,.25,1.62,1.62,0,0,1,.62.68l-.5.16A1.19,1.19,0,0,0,74,9.47a1.28,1.28,0,0,0-.65-.17,1.32,1.32,0,0,0-.56.12,1.44,1.44,0,0,0-.45.33,1.51,1.51,0,0,0-.3.49,1.81,1.81,0,0,0,0,1.25,1.59,1.59,0,0,0,.31.51,1.46,1.46,0,0,0,.46.34,1.26,1.26,0,0,0,.55.12,1.34,1.34,0,0,0,.37-.05,1.41,1.41,0,0,0,.34-.15,1.22,1.22,0,0,0,.27-.21.69.69,0,0,0,.16-.26l.5.15a1.29,1.29,0,0,1-.24.39,1.66,1.66,0,0,1-.37.31,1.83,1.83,0,0,1-.47.2,2,2,0,0,1-.54.07A1.9,1.9,0,0,1,72,12.3a2.05,2.05,0,0,1-.41-.65A2.11,2.11,0,0,1,71.41,10.86Z"/><path class="cls-4" d="M78.59,12.83l-1.44-2-.84.78v1.23H75.8V7.34h.51v3.73l2.2-2.15h.58l-1.6,1.6,1.66,2.31Z"/><path class="cls-4" d="M80.73,12.91a1.54,1.54,0,0,1-.55-.09,1.28,1.28,0,0,1-.42-.26,1.17,1.17,0,0,1-.27-.38,1.1,1.1,0,0,1-.1-.46,1,1,0,0,1,.12-.49,1.13,1.13,0,0,1,.34-.38,1.65,1.65,0,0,1,.52-.24,2.46,2.46,0,0,1,.67-.09,3.56,3.56,0,0,1,.6.05,2.62,2.62,0,0,1,.55.15v-.35a1.13,1.13,0,0,0-.3-.82,1.07,1.07,0,0,0-.8-.3,1.73,1.73,0,0,0-.63.12,3,3,0,0,0-.64.35l-.18-.34A3.41,3.41,0,0,1,80.39,9a2.24,2.24,0,0,1,.75-.13,1.55,1.55,0,0,1,1.14.41,1.53,1.53,0,0,1,.42,1.14v1.77c0,.14.06.21.18.21v.45h-.2a.46.46,0,0,1-.27-.09.35.35,0,0,1-.14-.27l0-.31a1.7,1.7,0,0,1-.67.54A2,2,0,0,1,80.73,12.91Zm.13-.39a1.66,1.66,0,0,0,.67-.15,1.31,1.31,0,0,0,.53-.4.79.79,0,0,0,.09-.15.34.34,0,0,0,0-.15V11a3.09,3.09,0,0,0-.53-.15,2.9,2.9,0,0,0-.54-.05,1.61,1.61,0,0,0-.89.22.69.69,0,0,0-.34.61.82.82,0,0,0,.06.31.78.78,0,0,0,.18.27,1,1,0,0,0,.3.2A1.1,1.1,0,0,0,80.86,12.51Z"/><path class="cls-4" d="M85.4,12.88a1.62,1.62,0,0,1-.74-.17,1.91,1.91,0,0,1-.58-.45,2.05,2.05,0,0,1-.38-.64,2.1,2.1,0,0,1-.14-.74,2.32,2.32,0,0,1,.13-.78,2,2,0,0,1,.37-.65A1.82,1.82,0,0,1,84.64,9a1.65,1.65,0,0,1,.74-.17,1.51,1.51,0,0,1,.87.25,2.43,2.43,0,0,1,.63.64V8.91h.46v3.93a1.6,1.6,0,0,1-.15.72,1.54,1.54,0,0,1-.41.52,1.76,1.76,0,0,1-.61.32,2.61,2.61,0,0,1-.74.1,2.14,2.14,0,0,1-1.08-.24,1.92,1.92,0,0,1-.67-.65l.32-.25a1.41,1.41,0,0,0,.62.55,1.94,1.94,0,0,0,.82.18A1.86,1.86,0,0,0,86,14a1.33,1.33,0,0,0,.45-.23,1.1,1.1,0,0,0,.3-.39,1.27,1.27,0,0,0,.11-.55v-.77a1.7,1.7,0,0,1-.62.59A1.64,1.64,0,0,1,85.4,12.88Zm.14-.43a1.24,1.24,0,0,0,.44-.08,1.49,1.49,0,0,0,.69-.53,1,1,0,0,0,.16-.35V10.28a1.47,1.47,0,0,0-.23-.39,1.63,1.63,0,0,0-.71-.51,1.22,1.22,0,0,0-.42-.08,1.21,1.21,0,0,0-.59.14,1.43,1.43,0,0,0-.44.36,1.62,1.62,0,0,0-.27.51,1.83,1.83,0,0,0-.09.58,1.62,1.62,0,0,0,.11.6,1.61,1.61,0,0,0,.31.5,1.44,1.44,0,0,0,.46.34A1.34,1.34,0,0,0,85.54,12.45Z"/><path class="cls-4" d="M90.16,12.91a1.9,1.9,0,0,1-1.41-.6,2.05,2.05,0,0,1-.41-.65,2.11,2.11,0,0,1-.15-.79,2.06,2.06,0,0,1,.15-.78,2,2,0,0,1,1-1.08,2,2,0,0,1,1.57,0,1.87,1.87,0,0,1,.61.44,2.07,2.07,0,0,1,.54,1.41s0,.08,0,.12a.38.38,0,0,1,0,.08H88.73a1.65,1.65,0,0,0,.46,1,1.38,1.38,0,0,0,.44.3,1.34,1.34,0,0,0,.54.11,1.41,1.41,0,0,0,.38-.05,1.53,1.53,0,0,0,.35-.14,1.21,1.21,0,0,0,.28-.22,1,1,0,0,0,.19-.29l.44.12a1.3,1.3,0,0,1-.26.39,1.79,1.79,0,0,1-.38.31,1.88,1.88,0,0,1-.48.2A2.07,2.07,0,0,1,90.16,12.91Zm1.44-2.24a1.57,1.57,0,0,0-.46-1,1.42,1.42,0,0,0-2,0,1.44,1.44,0,0,0-.31.45,1.71,1.71,0,0,0-.14.57Z"/><path class="cls-4" d="M94.48,12.91a1.69,1.69,0,0,1-.75-.17,2,2,0,0,1-.6-.45,2,2,0,0,1-.39-.64,2.12,2.12,0,0,1-.14-.76,2.28,2.28,0,0,1,.14-.79,2.09,2.09,0,0,1,.37-.65A1.75,1.75,0,0,1,93.67,9a1.6,1.6,0,0,1,.72-.16,1.53,1.53,0,0,1,.88.26,2,2,0,0,1,.61.63V7.34h.51v4.83c0,.14.06.21.18.21v.45l-.2,0a.44.44,0,0,1-.31-.11.34.34,0,0,1-.12-.26v-.41a1.78,1.78,0,0,1-.64.61A1.64,1.64,0,0,1,94.48,12.91Zm.11-.45a1.23,1.23,0,0,0,.41-.08,1.58,1.58,0,0,0,.4-.21,1.51,1.51,0,0,0,.32-.31.81.81,0,0,0,.17-.38V10.28a1.3,1.3,0,0,0-.22-.38,1.86,1.86,0,0,0-.33-.31,1.55,1.55,0,0,0-.39-.21,1.2,1.2,0,0,0-.41-.08,1.22,1.22,0,0,0-.58.14,1.39,1.39,0,0,0-.44.36,1.7,1.7,0,0,0-.28.51,1.73,1.73,0,0,0-.1.59,1.64,1.64,0,0,0,.42,1.1,1.5,1.5,0,0,0,.46.34A1.32,1.32,0,0,0,94.58,12.45Z"/><path class="cls-4" d="M104.21,8.91h.5L103,12.83h-.43l-.83-2-.83,2h-.43L98.83,8.91h.49l1.43,3.39.74-1.79-.67-1.59h.44l.51,1.28.5-1.28h.44L102,10.52l.74,1.79Z"/><path class="cls-4" d="M105.38,8.09V7.34h.51v.75Zm0,4.74V8.91h.51v3.92Z"/><path class="cls-4" d="M108.88,12.64l-.13.06-.2.08-.26.07a1.46,1.46,0,0,1-.3,0,1.09,1.09,0,0,1-.32,0,.74.74,0,0,1-.26-.14.68.68,0,0,1-.18-.24.77.77,0,0,1-.07-.33V9.32h-.54V8.91h.54V7.59h.51V8.91h.9v.41h-.9V12a.41.41,0,0,0,.15.32.53.53,0,0,0,.32.1,1,1,0,0,0,.38-.07l.21-.1Z"/><path class="cls-4" d="M112.77,12.83h-.51V10.64a1.77,1.77,0,0,0-.23-1,.77.77,0,0,0-.67-.33,1.14,1.14,0,0,0-.43.09,1.6,1.6,0,0,0-.4.24,1.61,1.61,0,0,0-.33.35,1.48,1.48,0,0,0-.21.44v2.4h-.51V7.34H110V9.8a1.83,1.83,0,0,1,.65-.7,1.66,1.66,0,0,1,.89-.26,1.23,1.23,0,0,1,.58.12,1,1,0,0,1,.38.35,1.56,1.56,0,0,1,.21.53,3.26,3.26,0,0,1,.07.69Z"/><path class="cls-4" d="M117.07,12.91a2.73,2.73,0,0,1-.89-.15,2.15,2.15,0,0,1-.75-.44l.23-.35a2.53,2.53,0,0,0,.67.41,2,2,0,0,0,.73.14,1.32,1.32,0,0,0,.76-.19.62.62,0,0,0,.28-.54.47.47,0,0,0-.08-.27.65.65,0,0,0-.22-.19,1.73,1.73,0,0,0-.37-.15l-.52-.13-.59-.17a1.8,1.8,0,0,1-.41-.19.68.68,0,0,1-.24-.26.84.84,0,0,1-.08-.39,1.11,1.11,0,0,1,.12-.52,1.06,1.06,0,0,1,.32-.37,1.43,1.43,0,0,1,.47-.22,2.09,2.09,0,0,1,.57-.08,2.19,2.19,0,0,1,.82.15,1.62,1.62,0,0,1,.59.39l-.25.3a1.37,1.37,0,0,0-.53-.34,1.91,1.91,0,0,0-.65-.11,1.62,1.62,0,0,0-.38,0,.9.9,0,0,0-.3.13.64.64,0,0,0-.21.23.68.68,0,0,0-.08.33.54.54,0,0,0,.05.26.45.45,0,0,0,.17.17,1.39,1.39,0,0,0,.3.13l.45.12.66.18a2.07,2.07,0,0,1,.48.21.83.83,0,0,1,.29.29.85.85,0,0,1,.1.42,1,1,0,0,1-.41.86A1.79,1.79,0,0,1,117.07,12.91Z"/><path class="cls-4" d="M121.11,12.91a1.88,1.88,0,0,1-.79-.16,1.91,1.91,0,0,1-.62-.44,2,2,0,0,1-.4-.65,2.12,2.12,0,0,1-.14-.77,2.09,2.09,0,0,1,.15-.78,2.05,2.05,0,0,1,.41-.65,2,2,0,0,1,.62-.44,1.91,1.91,0,0,1,1.56,0,2,2,0,0,1,.62.44,2.05,2.05,0,0,1,.41.65,2.1,2.1,0,0,1,.15.78,2.07,2.07,0,0,1-.15.77,2,2,0,0,1-.41.65,1.91,1.91,0,0,1-.62.44A1.86,1.86,0,0,1,121.11,12.91Zm-1.42-2a1.68,1.68,0,0,0,.11.61,1.61,1.61,0,0,0,.3.5,1.38,1.38,0,0,0,.45.33,1.3,1.3,0,0,0,.55.12,1.26,1.26,0,0,0,.55-.12,1.46,1.46,0,0,0,.45-.34,1.61,1.61,0,0,0,.31-.5,1.73,1.73,0,0,0,0-1.23,1.6,1.6,0,0,0-.31-.5,1.47,1.47,0,0,0-.45-.34,1.24,1.24,0,0,0-.55-.12,1.27,1.27,0,0,0-.55.12,1.39,1.39,0,0,0-.45.34,1.7,1.7,0,0,0-.42,1.13Z"/><path class="cls-4" d="M123.64,10.86a2.14,2.14,0,0,1,.14-.78,2,2,0,0,1,.4-.64A1.87,1.87,0,0,1,124.8,9a2,2,0,0,1,.8-.16,1.83,1.83,0,0,1,1,.25,1.62,1.62,0,0,1,.62.68l-.5.16a1.19,1.19,0,0,0-.46-.47,1.28,1.28,0,0,0-.65-.17,1.32,1.32,0,0,0-.56.12,1.44,1.44,0,0,0-.45.33,1.51,1.51,0,0,0-.3.49,1.81,1.81,0,0,0,0,1.25,1.59,1.59,0,0,0,.31.51,1.46,1.46,0,0,0,.46.34,1.26,1.26,0,0,0,.55.12,1.34,1.34,0,0,0,.37-.05,1.41,1.41,0,0,0,.34-.15,1.22,1.22,0,0,0,.27-.21.69.69,0,0,0,.16-.26l.5.15a1.29,1.29,0,0,1-.24.39,1.66,1.66,0,0,1-.37.31,1.83,1.83,0,0,1-.47.2,2,2,0,0,1-.54.07,1.9,1.9,0,0,1-1.41-.6,2.05,2.05,0,0,1-.41-.65A2.11,2.11,0,0,1,123.64,10.86Z"/><path class="cls-4" d="M127.77,10.86a2.14,2.14,0,0,1,.14-.78,2,2,0,0,1,.4-.64,1.87,1.87,0,0,1,.62-.43,2,2,0,0,1,.8-.16,1.83,1.83,0,0,1,1,.25,1.62,1.62,0,0,1,.62.68l-.5.16a1.19,1.19,0,0,0-.46-.47,1.28,1.28,0,0,0-.65-.17,1.32,1.32,0,0,0-.56.12,1.44,1.44,0,0,0-.45.33,1.51,1.51,0,0,0-.3.49,1.81,1.81,0,0,0,0,1.25,1.59,1.59,0,0,0,.31.51,1.46,1.46,0,0,0,.46.34,1.26,1.26,0,0,0,.55.12,1.34,1.34,0,0,0,.37-.05,1.41,1.41,0,0,0,.34-.15,1.22,1.22,0,0,0,.27-.21.69.69,0,0,0,.16-.26l.5.15a1.29,1.29,0,0,1-.24.39,1.66,1.66,0,0,1-.37.31,1.83,1.83,0,0,1-.47.2,2,2,0,0,1-.54.07,1.9,1.9,0,0,1-1.41-.6,2.05,2.05,0,0,1-.41-.65A2.11,2.11,0,0,1,127.77,10.86Z"/><path class="cls-4" d="M133.87,12.91a1.9,1.9,0,0,1-1.41-.6,2.05,2.05,0,0,1-.41-.65,2.11,2.11,0,0,1-.15-.79,2.06,2.06,0,0,1,.15-.78,2,2,0,0,1,1-1.08,2,2,0,0,1,1.57,0,1.87,1.87,0,0,1,.61.44,2.07,2.07,0,0,1,.54,1.41s0,.08,0,.12a.38.38,0,0,1,0,.08h-3.35a1.65,1.65,0,0,0,.46,1,1.38,1.38,0,0,0,.44.3,1.34,1.34,0,0,0,.54.11,1.41,1.41,0,0,0,.38-.05,1.53,1.53,0,0,0,.35-.14,1.21,1.21,0,0,0,.28-.22,1,1,0,0,0,.19-.29l.44.12a1.3,1.3,0,0,1-.26.39,1.79,1.79,0,0,1-.38.31,1.88,1.88,0,0,1-.48.2A2.07,2.07,0,0,1,133.87,12.91Zm1.44-2.24a1.57,1.57,0,0,0-.46-1,1.42,1.42,0,0,0-2,0,1.44,1.44,0,0,0-.31.45,1.71,1.71,0,0,0-.14.57Z"/><path class="cls-4" d="M138.53,9.37a1.61,1.61,0,0,0-.9.29,1.44,1.44,0,0,0-.54.74v2.44h-.51V8.91h.48v.94a2.06,2.06,0,0,1,.53-.69,1.1,1.1,0,0,1,.71-.27h.23Z"/><path class="cls-4" d="M142,12.91a1.54,1.54,0,0,1-.55-.09,1.28,1.28,0,0,1-.42-.26,1.17,1.17,0,0,1-.27-.38,1.1,1.1,0,0,1-.1-.46,1,1,0,0,1,.12-.49,1.13,1.13,0,0,1,.34-.38,1.65,1.65,0,0,1,.52-.24,2.46,2.46,0,0,1,.67-.09,3.56,3.56,0,0,1,.6.05,2.62,2.62,0,0,1,.55.15v-.35a1.13,1.13,0,0,0-.3-.82,1.07,1.07,0,0,0-.8-.3,1.73,1.73,0,0,0-.63.12,3,3,0,0,0-.64.35l-.18-.34a3.41,3.41,0,0,1,.74-.38,2.24,2.24,0,0,1,.75-.13,1.55,1.55,0,0,1,1.14.41A1.53,1.53,0,0,1,144,10.4v1.77c0,.14.06.21.18.21v.45H144a.46.46,0,0,1-.27-.09.35.35,0,0,1-.14-.27l0-.31a1.7,1.7,0,0,1-.67.54A2,2,0,0,1,142,12.91Zm.13-.39a1.66,1.66,0,0,0,.67-.15,1.31,1.31,0,0,0,.53-.4.79.79,0,0,0,.09-.15.34.34,0,0,0,0-.15V11a3.09,3.09,0,0,0-.53-.15,2.9,2.9,0,0,0-.54-.05,1.61,1.61,0,0,0-.89.22.69.69,0,0,0-.34.61.82.82,0,0,0,.06.31.78.78,0,0,0,.18.27,1,1,0,0,0,.3.2A1.1,1.1,0,0,0,142.14,12.51Z"/><path class="cls-4" d="M148.38,12.83h-.51V10.64a1.94,1.94,0,0,0-.2-1,.7.7,0,0,0-.63-.32,1.3,1.3,0,0,0-.45.08,1.57,1.57,0,0,0-.42.23,1.65,1.65,0,0,0-.34.36,1.58,1.58,0,0,0-.22.45v2.4h-.51V8.91h.47V9.8a1.81,1.81,0,0,1,.3-.39,2,2,0,0,1,.39-.3,1.92,1.92,0,0,1,.46-.2,1.9,1.9,0,0,1,.51-.07,1.15,1.15,0,0,1,.55.12.94.94,0,0,1,.36.34,1.56,1.56,0,0,1,.2.53,3.75,3.75,0,0,1,.06.7Z"/><path class="cls-4" d="M151.07,12.91a1.69,1.69,0,0,1-.75-.17,2,2,0,0,1-.6-.45,2,2,0,0,1-.39-.64,2.12,2.12,0,0,1-.14-.76,2.28,2.28,0,0,1,.14-.79,2.09,2.09,0,0,1,.37-.65,1.75,1.75,0,0,1,.56-.44,1.6,1.6,0,0,1,.72-.16,1.53,1.53,0,0,1,.88.26,2,2,0,0,1,.61.63V7.34H153v4.83c0,.14.06.21.18.21v.45l-.2,0a.44.44,0,0,1-.31-.11.34.34,0,0,1-.12-.26v-.41a1.78,1.78,0,0,1-.64.61A1.64,1.64,0,0,1,151.07,12.91Zm.11-.45a1.23,1.23,0,0,0,.41-.08,1.58,1.58,0,0,0,.4-.21,1.51,1.51,0,0,0,.32-.31.81.81,0,0,0,.17-.38V10.28a1.3,1.3,0,0,0-.22-.38,1.86,1.86,0,0,0-.33-.31,1.55,1.55,0,0,0-.39-.21,1.2,1.2,0,0,0-.41-.08,1.22,1.22,0,0,0-.58.14,1.39,1.39,0,0,0-.44.36,1.7,1.7,0,0,0-.28.51,1.73,1.73,0,0,0-.1.59,1.64,1.64,0,0,0,.42,1.1,1.5,1.5,0,0,0,.46.34A1.32,1.32,0,0,0,151.17,12.45Z"/><path class="cls-4" d="M155.8,10.86a2.14,2.14,0,0,1,.14-.78,2,2,0,0,1,.4-.64A1.87,1.87,0,0,1,157,9a2,2,0,0,1,.8-.16,1.83,1.83,0,0,1,1,.25,1.62,1.62,0,0,1,.62.68l-.5.16a1.19,1.19,0,0,0-.46-.47,1.28,1.28,0,0,0-.65-.17,1.32,1.32,0,0,0-.56.12,1.44,1.44,0,0,0-.45.33,1.51,1.51,0,0,0-.3.49,1.81,1.81,0,0,0,0,1.25,1.59,1.59,0,0,0,.31.51,1.46,1.46,0,0,0,.46.34,1.26,1.26,0,0,0,.55.12,1.34,1.34,0,0,0,.37-.05,1.41,1.41,0,0,0,.34-.15,1.22,1.22,0,0,0,.27-.21.69.69,0,0,0,.16-.26l.5.15a1.29,1.29,0,0,1-.24.39,1.66,1.66,0,0,1-.37.31,1.83,1.83,0,0,1-.47.2,2,2,0,0,1-.54.07,1.9,1.9,0,0,1-1.41-.6,2.05,2.05,0,0,1-.41-.65A2.11,2.11,0,0,1,155.8,10.86Z"/><path class="cls-4" d="M162.14,9.37a1.61,1.61,0,0,0-.9.29,1.44,1.44,0,0,0-.54.74v2.44h-.51V8.91h.48v.94a2.06,2.06,0,0,1,.53-.69,1.1,1.1,0,0,1,.71-.27h.23Z"/><path class="cls-4" d="M162.82,8.09V7.34h.51v.75Zm0,4.74V8.91h.51v3.92Z"/><path class="cls-4" d="M164.18,10.86a2.14,2.14,0,0,1,.14-.78,2,2,0,0,1,.4-.64,1.87,1.87,0,0,1,.62-.43,2,2,0,0,1,.8-.16,1.83,1.83,0,0,1,1,.25,1.62,1.62,0,0,1,.62.68l-.5.16a1.19,1.19,0,0,0-.46-.47,1.28,1.28,0,0,0-.65-.17,1.32,1.32,0,0,0-.56.12,1.44,1.44,0,0,0-.45.33,1.51,1.51,0,0,0-.3.49,1.81,1.81,0,0,0,0,1.25,1.59,1.59,0,0,0,.31.51,1.46,1.46,0,0,0,.46.34,1.26,1.26,0,0,0,.55.12,1.34,1.34,0,0,0,.37-.05,1.41,1.41,0,0,0,.34-.15,1.22,1.22,0,0,0,.27-.21.69.69,0,0,0,.16-.26l.5.15a1.29,1.29,0,0,1-.24.39,1.66,1.66,0,0,1-.37.31,1.83,1.83,0,0,1-.47.2,2,2,0,0,1-.54.07,1.9,1.9,0,0,1-1.41-.6,2.05,2.05,0,0,1-.41-.65A2.11,2.11,0,0,1,164.18,10.86Z"/><path class="cls-4" d="M171.36,12.83l-1.44-2-.84.78v1.23h-.51V7.34h.51v3.73l2.2-2.15h.58l-1.6,1.6,1.66,2.31Z"/><path class="cls-4" d="M174.24,12.91a1.9,1.9,0,0,1-1.41-.6,2.05,2.05,0,0,1-.41-.65,2.11,2.11,0,0,1-.15-.79,2.06,2.06,0,0,1,.15-.78,2,2,0,0,1,1-1.08A2,2,0,0,1,175,9a1.87,1.87,0,0,1,.61.44,2.07,2.07,0,0,1,.54,1.41s0,.08,0,.12a.38.38,0,0,1,0,.08h-3.35a1.65,1.65,0,0,0,.46,1,1.38,1.38,0,0,0,.44.3,1.34,1.34,0,0,0,.54.11,1.41,1.41,0,0,0,.38-.05,1.53,1.53,0,0,0,.35-.14,1.21,1.21,0,0,0,.28-.22,1,1,0,0,0,.19-.29l.44.12a1.3,1.3,0,0,1-.26.39,1.79,1.79,0,0,1-.38.31,1.88,1.88,0,0,1-.48.2A2.07,2.07,0,0,1,174.24,12.91Zm1.44-2.24a1.57,1.57,0,0,0-.46-1,1.42,1.42,0,0,0-2,0,1.44,1.44,0,0,0-.31.45,1.71,1.71,0,0,0-.14.57Z"/><path class="cls-4" d="M178.8,12.64l-.13.06-.2.08-.26.07a1.46,1.46,0,0,1-.3,0,1.09,1.09,0,0,1-.32,0,.74.74,0,0,1-.26-.14.68.68,0,0,1-.18-.24.77.77,0,0,1-.07-.33V9.32h-.54V8.91h.54V7.59h.51V8.91h.9v.41h-.9V12a.41.41,0,0,0,.15.32.53.53,0,0,0,.32.1,1,1,0,0,0,.38-.07l.21-.1Z"/><path class="cls-4" d="M181.35,7.34h.51v4.6a.47.47,0,0,0,.12.34.45.45,0,0,0,.34.12l.2,0,.21-.06.09.41a1.65,1.65,0,0,1-.35.1,2,2,0,0,1-.36,0,.76.76,0,0,1-.56-.2.75.75,0,0,1-.2-.56Z"/><path class="cls-4" d="M185,12.91a1.9,1.9,0,0,1-1.41-.6,2.05,2.05,0,0,1-.41-.65,2.11,2.11,0,0,1-.15-.79,2.06,2.06,0,0,1,.15-.78,2,2,0,0,1,1-1.08,2,2,0,0,1,1.57,0,1.87,1.87,0,0,1,.61.44,2.07,2.07,0,0,1,.54,1.41s0,.08,0,.12a.38.38,0,0,1,0,.08h-3.35a1.65,1.65,0,0,0,.46,1,1.38,1.38,0,0,0,.44.3,1.34,1.34,0,0,0,.54.11,1.41,1.41,0,0,0,.38-.05,1.53,1.53,0,0,0,.35-.14,1.21,1.21,0,0,0,.28-.22,1,1,0,0,0,.19-.29l.44.12a1.3,1.3,0,0,1-.26.39,1.79,1.79,0,0,1-.38.31,1.88,1.88,0,0,1-.48.2A2.07,2.07,0,0,1,185,12.91Zm1.44-2.24a1.57,1.57,0,0,0-.46-1,1.42,1.42,0,0,0-2,0,1.44,1.44,0,0,0-.31.45,1.71,1.71,0,0,0-.14.57Z"/><path class="cls-4" d="M188.76,12.91a1.54,1.54,0,0,1-.55-.09,1.28,1.28,0,0,1-.42-.26,1.17,1.17,0,0,1-.27-.38,1.1,1.1,0,0,1-.1-.46,1,1,0,0,1,.12-.49,1.13,1.13,0,0,1,.34-.38,1.65,1.65,0,0,1,.52-.24,2.46,2.46,0,0,1,.67-.09,3.56,3.56,0,0,1,.6.05,2.62,2.62,0,0,1,.55.15v-.35a1.13,1.13,0,0,0-.3-.82,1.07,1.07,0,0,0-.8-.3,1.73,1.73,0,0,0-.63.12,3,3,0,0,0-.64.35l-.18-.34a3.41,3.41,0,0,1,.74-.38,2.24,2.24,0,0,1,.75-.13,1.55,1.55,0,0,1,1.14.41,1.53,1.53,0,0,1,.42,1.14v1.77c0,.14.06.21.18.21v.45h-.2a.46.46,0,0,1-.27-.09.35.35,0,0,1-.14-.27l0-.31a1.7,1.7,0,0,1-.67.54A2,2,0,0,1,188.76,12.91Zm.13-.39a1.66,1.66,0,0,0,.67-.15,1.31,1.31,0,0,0,.53-.4.79.79,0,0,0,.09-.15.34.34,0,0,0,0-.15V11a3.09,3.09,0,0,0-.53-.15,2.9,2.9,0,0,0-.54-.05,1.61,1.61,0,0,0-.89.22.69.69,0,0,0-.34.61A.82.82,0,0,0,188,12a.78.78,0,0,0,.18.27,1,1,0,0,0,.3.2A1.1,1.1,0,0,0,188.89,12.51Z"/><path class="cls-4" d="M193.43,12.88a1.62,1.62,0,0,1-.74-.17,1.91,1.91,0,0,1-.58-.45,2.05,2.05,0,0,1-.38-.64,2.1,2.1,0,0,1-.14-.74,2.32,2.32,0,0,1,.13-.78,2,2,0,0,1,.37-.65,1.82,1.82,0,0,1,.58-.44,1.65,1.65,0,0,1,.74-.17,1.51,1.51,0,0,1,.87.25,2.43,2.43,0,0,1,.63.64V8.91h.46v3.93a1.6,1.6,0,0,1-.15.72,1.54,1.54,0,0,1-.41.52,1.76,1.76,0,0,1-.61.32,2.61,2.61,0,0,1-.74.1,2.14,2.14,0,0,1-1.08-.24,1.92,1.92,0,0,1-.67-.65l.32-.25a1.41,1.41,0,0,0,.62.55,1.94,1.94,0,0,0,.82.18A1.86,1.86,0,0,0,194,14a1.33,1.33,0,0,0,.45-.23,1.1,1.1,0,0,0,.3-.39,1.27,1.27,0,0,0,.11-.55v-.77a1.7,1.7,0,0,1-.62.59A1.64,1.64,0,0,1,193.43,12.88Zm.14-.43a1.24,1.24,0,0,0,.44-.08,1.49,1.49,0,0,0,.69-.53,1,1,0,0,0,.16-.35V10.28a1.47,1.47,0,0,0-.23-.39,1.63,1.63,0,0,0-.71-.51,1.22,1.22,0,0,0-.42-.08,1.21,1.21,0,0,0-.59.14,1.43,1.43,0,0,0-.44.36,1.62,1.62,0,0,0-.27.51,1.83,1.83,0,0,0-.09.58,1.62,1.62,0,0,0,.11.6,1.61,1.61,0,0,0,.31.5,1.44,1.44,0,0,0,.46.34A1.34,1.34,0,0,0,193.57,12.45Z"/><path class="cls-4" d="M197.68,12.91a1.09,1.09,0,0,1-.93-.42,2.11,2.11,0,0,1-.32-1.27V8.91h.51v2.21q0,1.33.91,1.33a1.35,1.35,0,0,0,.44-.08,1.39,1.39,0,0,0,.4-.22,1.77,1.77,0,0,0,.33-.34,1.71,1.71,0,0,0,.24-.44V8.91h.51v3.25c0,.14.06.21.19.21v.45l-.21,0a.44.44,0,0,1-.3-.1.33.33,0,0,1-.12-.26v-.54a1.88,1.88,0,0,1-1.65,1Z"/><path class="cls-4" d="M202.65,12.91a1.9,1.9,0,0,1-1.41-.6,2.05,2.05,0,0,1-.41-.65,2.11,2.11,0,0,1-.15-.79,2.06,2.06,0,0,1,.15-.78,2,2,0,0,1,1-1.08,2,2,0,0,1,1.57,0,1.87,1.87,0,0,1,.61.44,2.07,2.07,0,0,1,.54,1.41s0,.08,0,.12a.38.38,0,0,1,0,.08h-3.35a1.65,1.65,0,0,0,.46,1,1.38,1.38,0,0,0,.44.3,1.34,1.34,0,0,0,.54.11,1.41,1.41,0,0,0,.38-.05,1.53,1.53,0,0,0,.35-.14,1.21,1.21,0,0,0,.28-.22,1,1,0,0,0,.19-.29l.44.12a1.3,1.3,0,0,1-.26.39,1.79,1.79,0,0,1-.38.31,1.88,1.88,0,0,1-.48.2A2.07,2.07,0,0,1,202.65,12.91Zm1.44-2.24a1.57,1.57,0,0,0-.46-1,1.42,1.42,0,0,0-2,0,1.44,1.44,0,0,0-.31.45,1.71,1.71,0,0,0-.14.57Z"/><path class="cls-4" d="M206.66,12.91a2.73,2.73,0,0,1-.89-.15,2.15,2.15,0,0,1-.75-.44l.23-.35a2.53,2.53,0,0,0,.67.41,2,2,0,0,0,.73.14,1.32,1.32,0,0,0,.76-.19.62.62,0,0,0,.28-.54.47.47,0,0,0-.08-.27.65.65,0,0,0-.22-.19,1.73,1.73,0,0,0-.37-.15l-.52-.13-.59-.17a1.8,1.8,0,0,1-.41-.19.68.68,0,0,1-.24-.26.84.84,0,0,1-.08-.39,1.11,1.11,0,0,1,.12-.52,1.06,1.06,0,0,1,.32-.37,1.43,1.43,0,0,1,.47-.22,2.09,2.09,0,0,1,.57-.08,2.19,2.19,0,0,1,.82.15,1.62,1.62,0,0,1,.59.39l-.25.3a1.37,1.37,0,0,0-.53-.34,1.91,1.91,0,0,0-.65-.11,1.62,1.62,0,0,0-.38,0,.9.9,0,0,0-.3.13.64.64,0,0,0-.21.23.68.68,0,0,0-.08.33.54.54,0,0,0,.05.26.45.45,0,0,0,.17.17,1.39,1.39,0,0,0,.3.13l.45.12.66.18a2.07,2.07,0,0,1,.48.21.83.83,0,0,1,.29.29.85.85,0,0,1,.1.42,1,1,0,0,1-.41.86A1.79,1.79,0,0,1,206.66,12.91Z"/></g></g></svg>