<svg xmlns="http://www.w3.org/2000/svg" viewBox="0 0 185.71 20.63"><defs><style>.cls-1{opacity:0.2;}.cls-2{fill:#3e4eaa;}.cls-3{fill:#0e174a;}.cls-4{fill:#ffbe03;}</style></defs><title>Asset 93</title><g id="Layer_2" data-name="Layer 2"><g id="Layer_1-2" data-name="Layer 1"><g class="cls-1"><path class="cls-2" d="M182.73,20.63H11c-.48,0-.88-.54-.88-1.2V15.26c0-.66.39-1.2.88-1.2H182.72c.48,0,.88.53.88,1.2v4.17C183.61,20.09,183.22,20.63,182.73,20.63Z"/></g><rect class="cls-3" x="10" y="2.95" width="175.72" height="14.41" rx="2.79" ry="2.79"/><rect class="cls-4" x="2.92" y="2.92" width="14.08" height="14.08" transform="translate(-4.12 9.95) rotate(-45)"/><path class="cls-4" d="M22,14.19a1.57,1.57,0,0,1-.47-.07,1,1,0,0,1-.39-.23l.25-.35a.65.65,0,0,0,.26.14,1.1,1.1,0,0,0,.29,0,.66.66,0,0,0,.26-.05.72.72,0,0,0,.22-.15.74.74,0,0,0,.16-.22.64.64,0,0,0,.06-.28V8.91h.51V13a1.16,1.16,0,0,1-.1.48,1.21,1.21,0,0,1-.26.38,1.17,1.17,0,0,1-.37.24A1.1,1.1,0,0,1,22,14.19Zm.64-6.1V7.34h.51V8.1Z"/><path class="cls-4" d="M25.92,12.91a1.88,1.88,0,0,1-.79-.16,1.91,1.91,0,0,1-.62-.44,2,2,0,0,1-.4-.65,2.12,2.12,0,0,1-.14-.77,2.09,2.09,0,0,1,.15-.78,2.05,2.05,0,0,1,.41-.65A2,2,0,0,1,25.14,9,1.91,1.91,0,0,1,26.7,9a2,2,0,0,1,.62.44,2.05,2.05,0,0,1,.41.65,2.1,2.1,0,0,1,.15.78,2.07,2.07,0,0,1-.15.77,2,2,0,0,1-.41.65,1.91,1.91,0,0,1-.62.44A1.86,1.86,0,0,1,25.92,12.91Zm-1.42-2a1.68,1.68,0,0,0,.11.61,1.61,1.61,0,0,0,.3.5,1.38,1.38,0,0,0,.45.33,1.3,1.3,0,0,0,.55.12,1.26,1.26,0,0,0,.55-.12,1.46,1.46,0,0,0,.45-.34,1.61,1.61,0,0,0,.31-.5,1.73,1.73,0,0,0,0-1.23,1.6,1.6,0,0,0-.31-.5,1.47,1.47,0,0,0-.45-.34,1.24,1.24,0,0,0-.55-.12,1.27,1.27,0,0,0-.55.12,1.39,1.39,0,0,0-.45.34,1.7,1.7,0,0,0-.42,1.13Z"/><path class="cls-4" d="M28.7,8.1V7.34h.51V8.1Zm0,4.74V8.91h.51v3.92Z"/><path class="cls-4" d="M33.6,12.83h-.51V10.64a1.94,1.94,0,0,0-.2-1,.7.7,0,0,0-.63-.32,1.3,1.3,0,0,0-.45.08,1.57,1.57,0,0,0-.42.23A1.65,1.65,0,0,0,31,10a1.58,1.58,0,0,0-.22.45v2.4h-.51V8.91h.47V9.8a1.81,1.81,0,0,1,.3-.39,2,2,0,0,1,.39-.3,1.92,1.92,0,0,1,.46-.2,1.9,1.9,0,0,1,.51-.07A1.15,1.15,0,0,1,33,9a.94.94,0,0,1,.36.34,1.56,1.56,0,0,1,.2.53,3.75,3.75,0,0,1,.06.7Z"/><path class="cls-4" d="M38.28,12.91a1.88,1.88,0,0,1-.79-.16,1.91,1.91,0,0,1-.62-.44,2,2,0,0,1-.4-.65,2.12,2.12,0,0,1-.14-.77,2.09,2.09,0,0,1,.15-.78,2.05,2.05,0,0,1,.41-.65A2,2,0,0,1,37.5,9a1.91,1.91,0,0,1,1.56,0,2,2,0,0,1,.62.44,2.05,2.05,0,0,1,.41.65,2.1,2.1,0,0,1,.15.78,2.07,2.07,0,0,1-.15.77,2,2,0,0,1-.41.65,1.91,1.91,0,0,1-.62.44A1.86,1.86,0,0,1,38.28,12.91Zm-1.42-2a1.68,1.68,0,0,0,.11.61,1.61,1.61,0,0,0,.3.5,1.38,1.38,0,0,0,.45.33,1.3,1.3,0,0,0,.55.12,1.26,1.26,0,0,0,.55-.12,1.46,1.46,0,0,0,.45-.34,1.61,1.61,0,0,0,.31-.5,1.73,1.73,0,0,0,0-1.23,1.6,1.6,0,0,0-.31-.5,1.47,1.47,0,0,0-.45-.34,1.24,1.24,0,0,0-.55-.12,1.27,1.27,0,0,0-.55.12,1.39,1.39,0,0,0-.45.34,1.7,1.7,0,0,0-.42,1.13Z"/><path class="cls-4" d="M42.27,12.91a1.09,1.09,0,0,1-.93-.42A2.11,2.11,0,0,1,41,11.21V8.91h.51v2.21q0,1.33.91,1.33a1.35,1.35,0,0,0,.44-.08,1.39,1.39,0,0,0,.4-.22,1.77,1.77,0,0,0,.33-.34,1.71,1.71,0,0,0,.24-.44V8.91h.51v3.25c0,.14.06.21.19.21v.45l-.21,0a.44.44,0,0,1-.3-.1.33.33,0,0,1-.12-.26v-.54a1.88,1.88,0,0,1-1.65,1Z"/><path class="cls-4" d="M47.48,9.37a1.61,1.61,0,0,0-.9.29,1.44,1.44,0,0,0-.54.74v2.44h-.51V8.91H46v.94a2.06,2.06,0,0,1,.53-.69,1.1,1.1,0,0,1,.71-.27h.23Z"/><path class="cls-4" d="M51.93,12.91a1.57,1.57,0,0,1-.88-.25,2,2,0,0,1-.62-.64v2.41h-.51V8.91h.46v.76a1.89,1.89,0,0,1,.62-.6,1.6,1.6,0,0,1,.83-.23,1.67,1.67,0,0,1,.75.17,1.91,1.91,0,0,1,.59.45,2.09,2.09,0,0,1,.39.65,2.13,2.13,0,0,1,.14.76,2.37,2.37,0,0,1-.13.78,2,2,0,0,1-.36.65,1.75,1.75,0,0,1-.56.44A1.6,1.6,0,0,1,51.93,12.91Zm-.14-.45a1.2,1.2,0,0,0,.57-.14A1.45,1.45,0,0,0,52.8,12a1.61,1.61,0,0,0,.28-.5,1.77,1.77,0,0,0,.1-.58,1.62,1.62,0,0,0-.11-.6,1.66,1.66,0,0,0-.31-.5,1.46,1.46,0,0,0-.46-.35,1.31,1.31,0,0,0-.58-.13,1.15,1.15,0,0,0-.41.08,1.79,1.79,0,0,0-.4.21,1.38,1.38,0,0,0-.32.31.83.83,0,0,0-.16.37v1.2a1.78,1.78,0,0,0,.23.39,1.63,1.63,0,0,0,.32.31,1.48,1.48,0,0,0,.38.21A1.23,1.23,0,0,0,51.79,12.45Z"/><path class="cls-4" d="M55.76,12.91a1.09,1.09,0,0,1-.93-.42,2.11,2.11,0,0,1-.32-1.27V8.91H55v2.21q0,1.33.91,1.33a1.35,1.35,0,0,0,.44-.08,1.39,1.39,0,0,0,.4-.22,1.77,1.77,0,0,0,.33-.34,1.71,1.71,0,0,0,.24-.44V8.91h.51v3.25c0,.14.06.21.19.21v.45l-.21,0a.44.44,0,0,1-.3-.1.33.33,0,0,1-.12-.26v-.54a1.88,1.88,0,0,1-1.65,1Z"/><path class="cls-4" d="M60.93,12.91a1.63,1.63,0,0,1-.85-.23,1.71,1.71,0,0,1-.61-.6v.76H59V7.34h.51V9.73a2.23,2.23,0,0,1,.63-.64A1.53,1.53,0,0,1,61,8.85a1.57,1.57,0,0,1,.74.17,1.73,1.73,0,0,1,.56.46,2.18,2.18,0,0,1,.35.65,2.31,2.31,0,0,1,.12.75,2.14,2.14,0,0,1-.14.78,2,2,0,0,1-.39.64,1.9,1.9,0,0,1-.59.44A1.69,1.69,0,0,1,60.93,12.91Zm-.12-.45a1.32,1.32,0,0,0,.59-.13,1.45,1.45,0,0,0,.46-.35,1.69,1.69,0,0,0,.3-.5,1.6,1.6,0,0,0,.11-.58,1.76,1.76,0,0,0-.1-.59,1.64,1.64,0,0,0-.29-.51,1.4,1.4,0,0,0-.44-.35,1.21,1.21,0,0,0-.56-.13,1.19,1.19,0,0,0-.44.08,1.47,1.47,0,0,0-.38.21,1.83,1.83,0,0,0-.31.31,1.87,1.87,0,0,0-.23.37v1.22a.83.83,0,0,0,.16.38,1.32,1.32,0,0,0,.32.3,1.76,1.76,0,0,0,.4.2A1.2,1.2,0,0,0,60.81,12.45Z"/><path class="cls-4" d="M63.66,7.34h.51v4.6a.47.47,0,0,0,.12.34.45.45,0,0,0,.34.12l.2,0,.21-.06.09.41a1.65,1.65,0,0,1-.35.1,2,2,0,0,1-.36,0,.76.76,0,0,1-.56-.2.75.75,0,0,1-.2-.56Z"/><path class="cls-4" d="M65.63,8.1V7.34h.51V8.1Zm0,4.74V8.91h.51v3.92Z"/><path class="cls-4" d="M67,10.86a2.14,2.14,0,0,1,.14-.78,2,2,0,0,1,.4-.64A1.87,1.87,0,0,1,68.15,9a2,2,0,0,1,.8-.16,1.83,1.83,0,0,1,1,.25,1.62,1.62,0,0,1,.62.68l-.5.16a1.19,1.19,0,0,0-.46-.47,1.28,1.28,0,0,0-.65-.17,1.32,1.32,0,0,0-.56.12,1.44,1.44,0,0,0-.45.33,1.51,1.51,0,0,0-.3.49,1.81,1.81,0,0,0,0,1.25,1.59,1.59,0,0,0,.31.51,1.46,1.46,0,0,0,.46.34,1.26,1.26,0,0,0,.55.12,1.34,1.34,0,0,0,.37-.05,1.41,1.41,0,0,0,.34-.15,1.22,1.22,0,0,0,.27-.21.69.69,0,0,0,.16-.26l.5.15a1.29,1.29,0,0,1-.24.39,1.66,1.66,0,0,1-.37.31,1.83,1.83,0,0,1-.47.2,2,2,0,0,1-.54.07,1.9,1.9,0,0,1-1.41-.6,2.05,2.05,0,0,1-.41-.65A2.11,2.11,0,0,1,67,10.86Z"/><path class="cls-4" d="M73.32,7.34h.51v4.6a.47.47,0,0,0,.12.34.45.45,0,0,0,.34.12l.2,0,.21-.06.09.41a1.65,1.65,0,0,1-.35.1,2,2,0,0,1-.36,0,.76.76,0,0,1-.56-.2.75.75,0,0,1-.2-.56Z"/><path class="cls-4" d="M77,12.91a1.9,1.9,0,0,1-1.41-.6,2.05,2.05,0,0,1-.41-.65,2.11,2.11,0,0,1-.15-.79,2.06,2.06,0,0,1,.15-.78A2,2,0,0,1,76.2,9a2,2,0,0,1,1.57,0,1.87,1.87,0,0,1,.61.44,2.07,2.07,0,0,1,.54,1.41s0,.08,0,.12a.38.38,0,0,1,0,.08H75.56a1.65,1.65,0,0,0,.46,1,1.38,1.38,0,0,0,.44.3,1.34,1.34,0,0,0,.54.11,1.41,1.41,0,0,0,.38-.05,1.53,1.53,0,0,0,.35-.14A1.21,1.21,0,0,0,78,12.1a1,1,0,0,0,.19-.29l.44.12a1.3,1.3,0,0,1-.26.39,1.79,1.79,0,0,1-.38.31,1.88,1.88,0,0,1-.48.2A2.07,2.07,0,0,1,77,12.91Zm1.44-2.24a1.57,1.57,0,0,0-.46-1,1.42,1.42,0,0,0-2,0,1.44,1.44,0,0,0-.31.45,1.71,1.71,0,0,0-.14.57Z"/><path class="cls-4" d="M80.73,12.91a1.54,1.54,0,0,1-.55-.09,1.28,1.28,0,0,1-.42-.26,1.17,1.17,0,0,1-.27-.38,1.1,1.1,0,0,1-.1-.46,1,1,0,0,1,.12-.49,1.13,1.13,0,0,1,.34-.38,1.65,1.65,0,0,1,.52-.24,2.46,2.46,0,0,1,.67-.09,3.56,3.56,0,0,1,.6.05,2.62,2.62,0,0,1,.55.15v-.35a1.13,1.13,0,0,0-.3-.82,1.07,1.07,0,0,0-.8-.3,1.73,1.73,0,0,0-.63.12,3,3,0,0,0-.64.35l-.18-.34A3.41,3.41,0,0,1,80.39,9a2.24,2.24,0,0,1,.75-.13,1.55,1.55,0,0,1,1.14.41,1.53,1.53,0,0,1,.42,1.14v1.77c0,.14.06.21.18.21v.45h-.2a.46.46,0,0,1-.27-.09.35.35,0,0,1-.14-.27l0-.31a1.7,1.7,0,0,1-.67.54A2,2,0,0,1,80.73,12.91Zm.13-.39a1.66,1.66,0,0,0,.67-.15,1.31,1.31,0,0,0,.53-.4.79.79,0,0,0,.09-.15.34.34,0,0,0,0-.15V11a3.09,3.09,0,0,0-.53-.15,2.9,2.9,0,0,0-.54-.05,1.61,1.61,0,0,0-.89.22.69.69,0,0,0-.34.61.82.82,0,0,0,.06.31.78.78,0,0,0,.18.27,1,1,0,0,0,.3.2A1.1,1.1,0,0,0,80.86,12.52Z"/><path class="cls-4" d="M85.4,12.88a1.62,1.62,0,0,1-.74-.17,1.91,1.91,0,0,1-.58-.45,2.05,2.05,0,0,1-.38-.64,2.1,2.1,0,0,1-.14-.74,2.32,2.32,0,0,1,.13-.78,2,2,0,0,1,.37-.65A1.82,1.82,0,0,1,84.64,9a1.65,1.65,0,0,1,.74-.17,1.51,1.51,0,0,1,.87.25,2.43,2.43,0,0,1,.63.64V8.91h.46v3.93a1.6,1.6,0,0,1-.15.72,1.54,1.54,0,0,1-.41.52,1.76,1.76,0,0,1-.61.32,2.61,2.61,0,0,1-.74.1,2.14,2.14,0,0,1-1.08-.24,1.92,1.92,0,0,1-.67-.65l.32-.25a1.41,1.41,0,0,0,.62.55,1.94,1.94,0,0,0,.82.18A1.86,1.86,0,0,0,86,14a1.33,1.33,0,0,0,.45-.23,1.1,1.1,0,0,0,.3-.39,1.27,1.27,0,0,0,.11-.55v-.77a1.7,1.7,0,0,1-.62.59A1.64,1.64,0,0,1,85.4,12.88Zm.14-.43a1.24,1.24,0,0,0,.44-.08,1.49,1.49,0,0,0,.69-.53,1,1,0,0,0,.16-.35V10.28a1.47,1.47,0,0,0-.23-.39,1.63,1.63,0,0,0-.71-.51,1.22,1.22,0,0,0-.42-.08,1.21,1.21,0,0,0-.59.14,1.43,1.43,0,0,0-.44.36,1.62,1.62,0,0,0-.27.51,1.83,1.83,0,0,0-.09.58,1.62,1.62,0,0,0,.11.6,1.61,1.61,0,0,0,.31.5,1.44,1.44,0,0,0,.46.34A1.34,1.34,0,0,0,85.54,12.45Z"/><path class="cls-4" d="M89.65,12.91a1.09,1.09,0,0,1-.93-.42,2.11,2.11,0,0,1-.32-1.27V8.91h.51v2.21q0,1.33.91,1.33a1.35,1.35,0,0,0,.44-.08,1.39,1.39,0,0,0,.4-.22,1.77,1.77,0,0,0,.33-.34,1.71,1.71,0,0,0,.24-.44V8.91h.51v3.25c0,.14.06.21.19.21v.45l-.21,0a.44.44,0,0,1-.3-.1.33.33,0,0,1-.12-.26v-.54a1.88,1.88,0,0,1-1.65,1Z"/><path class="cls-4" d="M94.62,12.91a1.9,1.9,0,0,1-1.41-.6,2.05,2.05,0,0,1-.41-.65,2.11,2.11,0,0,1-.15-.79,2.06,2.06,0,0,1,.15-.78,2,2,0,0,1,1-1.08A2,2,0,0,1,95.4,9a1.87,1.87,0,0,1,.61.44,2.07,2.07,0,0,1,.54,1.41s0,.08,0,.12a.38.38,0,0,1,0,.08H93.19a1.65,1.65,0,0,0,.46,1,1.38,1.38,0,0,0,.44.3,1.34,1.34,0,0,0,.54.11,1.41,1.41,0,0,0,.38-.05,1.53,1.53,0,0,0,.35-.14,1.21,1.21,0,0,0,.28-.22,1,1,0,0,0,.19-.29l.44.12a1.3,1.3,0,0,1-.26.39,1.79,1.79,0,0,1-.38.31,1.88,1.88,0,0,1-.48.2A2.07,2.07,0,0,1,94.62,12.91Zm1.44-2.24a1.57,1.57,0,0,0-.46-1,1.42,1.42,0,0,0-2,0,1.44,1.44,0,0,0-.31.45,1.71,1.71,0,0,0-.14.57Z"/><path class="cls-4" d="M98.63,12.91a2.73,2.73,0,0,1-.89-.15,2.15,2.15,0,0,1-.75-.44l.23-.35a2.53,2.53,0,0,0,.67.41,2,2,0,0,0,.73.14,1.32,1.32,0,0,0,.76-.19.62.62,0,0,0,.28-.54.47.47,0,0,0-.08-.27.65.65,0,0,0-.22-.19,1.73,1.73,0,0,0-.37-.15L98.48,11l-.59-.17a1.8,1.8,0,0,1-.41-.19.68.68,0,0,1-.24-.26.84.84,0,0,1-.08-.39,1.11,1.11,0,0,1,.12-.52,1.06,1.06,0,0,1,.32-.37,1.43,1.43,0,0,1,.47-.22,2.09,2.09,0,0,1,.57-.08,2.19,2.19,0,0,1,.82.15,1.62,1.62,0,0,1,.59.39l-.25.3a1.37,1.37,0,0,0-.53-.34,1.91,1.91,0,0,0-.65-.11,1.62,1.62,0,0,0-.38,0,.9.9,0,0,0-.3.13.64.64,0,0,0-.21.23.68.68,0,0,0-.08.33.54.54,0,0,0,.05.26.45.45,0,0,0,.17.17,1.39,1.39,0,0,0,.3.13l.45.12.66.18a2.07,2.07,0,0,1,.48.21.83.83,0,0,1,.29.29.85.85,0,0,1,.1.42,1,1,0,0,1-.41.86A1.79,1.79,0,0,1,98.63,12.91Z"/><path class="cls-4" d="M103.11,12.83V9.78h-.54V9.37h.54V8.81a1.84,1.84,0,0,1,.31-1.13,1,1,0,0,1,.85-.41,1.49,1.49,0,0,1,.44.07,1.31,1.31,0,0,1,.38.18l-.16.37a.77.77,0,0,0-.26-.13,1.08,1.08,0,0,0-.3,0,.63.63,0,0,0-.55.28,1.42,1.42,0,0,0-.19.8v.58h1.08v.41h-1.08v3.05Z"/><path class="cls-4" d="M107.14,12.91a1.88,1.88,0,0,1-.79-.16,1.91,1.91,0,0,1-.62-.44,2,2,0,0,1-.4-.65,2.12,2.12,0,0,1-.14-.77,2.09,2.09,0,0,1,.15-.78,2.05,2.05,0,0,1,.41-.65,2,2,0,0,1,.62-.44,1.91,1.91,0,0,1,1.56,0,2,2,0,0,1,.62.44,2.05,2.05,0,0,1,.41.65,2.1,2.1,0,0,1,.15.78,2.07,2.07,0,0,1-.15.77,2,2,0,0,1-.41.65,1.91,1.91,0,0,1-.62.44A1.86,1.86,0,0,1,107.14,12.91Zm-1.42-2a1.68,1.68,0,0,0,.11.61,1.61,1.61,0,0,0,.3.5,1.38,1.38,0,0,0,.45.33,1.3,1.3,0,0,0,.55.12,1.26,1.26,0,0,0,.55-.12,1.46,1.46,0,0,0,.45-.34,1.61,1.61,0,0,0,.31-.5,1.73,1.73,0,0,0,0-1.23,1.6,1.6,0,0,0-.31-.5,1.47,1.47,0,0,0-.45-.34,1.24,1.24,0,0,0-.55-.12,1.27,1.27,0,0,0-.55.12,1.39,1.39,0,0,0-.45.34,1.7,1.7,0,0,0-.42,1.13Z"/><path class="cls-4" d="M111.87,9.37a1.61,1.61,0,0,0-.9.29,1.44,1.44,0,0,0-.54.74v2.44h-.51V8.91h.48v.94a2.06,2.06,0,0,1,.53-.69,1.1,1.1,0,0,1,.71-.27h.23Z"/><path class="cls-4" d="M116,12.91a1.9,1.9,0,0,1-1.41-.6,2.05,2.05,0,0,1-.41-.65,2.11,2.11,0,0,1-.15-.79,2.06,2.06,0,0,1,.15-.78,2,2,0,0,1,1-1.08,2,2,0,0,1,1.57,0,1.87,1.87,0,0,1,.61.44,2.07,2.07,0,0,1,.54,1.41s0,.08,0,.12a.38.38,0,0,1,0,.08H114.6a1.65,1.65,0,0,0,.46,1,1.38,1.38,0,0,0,.44.3,1.34,1.34,0,0,0,.54.11,1.41,1.41,0,0,0,.38-.05,1.53,1.53,0,0,0,.35-.14,1.21,1.21,0,0,0,.28-.22,1,1,0,0,0,.19-.29l.44.12a1.3,1.3,0,0,1-.26.39,1.79,1.79,0,0,1-.38.31,1.88,1.88,0,0,1-.48.2A2.07,2.07,0,0,1,116,12.91Zm1.44-2.24a1.57,1.57,0,0,0-.46-1,1.42,1.42,0,0,0-2,0,1.44,1.44,0,0,0-.31.45,1.71,1.71,0,0,0-.14.57Z"/><path class="cls-4" d="M119.77,12.91a1.54,1.54,0,0,1-.55-.09,1.28,1.28,0,0,1-.42-.26,1.17,1.17,0,0,1-.27-.38,1.1,1.1,0,0,1-.1-.46,1,1,0,0,1,.12-.49,1.13,1.13,0,0,1,.34-.38,1.65,1.65,0,0,1,.52-.24,2.46,2.46,0,0,1,.67-.09,3.56,3.56,0,0,1,.6.05,2.62,2.62,0,0,1,.55.15v-.35a1.13,1.13,0,0,0-.3-.82,1.07,1.07,0,0,0-.8-.3,1.73,1.73,0,0,0-.63.12,3,3,0,0,0-.64.35l-.18-.34a3.41,3.41,0,0,1,.74-.38,2.24,2.24,0,0,1,.75-.13,1.55,1.55,0,0,1,1.14.41,1.53,1.53,0,0,1,.42,1.14v1.77c0,.14.06.21.18.21v.45h-.2a.46.46,0,0,1-.27-.09.35.35,0,0,1-.14-.27l0-.31a1.7,1.7,0,0,1-.67.54A2,2,0,0,1,119.77,12.91Zm.13-.39a1.66,1.66,0,0,0,.67-.15,1.31,1.31,0,0,0,.53-.4.79.79,0,0,0,.09-.15.34.34,0,0,0,0-.15V11a3.09,3.09,0,0,0-.53-.15,2.9,2.9,0,0,0-.54-.05,1.61,1.61,0,0,0-.89.22.69.69,0,0,0-.34.61A.82.82,0,0,0,119,12a.78.78,0,0,0,.18.27,1,1,0,0,0,.3.2A1.1,1.1,0,0,0,119.89,12.52Z"/><path class="cls-4" d="M122.59,10.86a2.14,2.14,0,0,1,.14-.78,2,2,0,0,1,.4-.64,1.87,1.87,0,0,1,.62-.43,2,2,0,0,1,.8-.16,1.83,1.83,0,0,1,1,.25,1.62,1.62,0,0,1,.62.68l-.5.16a1.19,1.19,0,0,0-.46-.47,1.28,1.28,0,0,0-.65-.17,1.32,1.32,0,0,0-.56.12,1.44,1.44,0,0,0-.45.33,1.51,1.51,0,0,0-.3.49,1.81,1.81,0,0,0,0,1.25,1.59,1.59,0,0,0,.31.51,1.46,1.46,0,0,0,.46.34,1.26,1.26,0,0,0,.55.12,1.34,1.34,0,0,0,.37-.05,1.41,1.41,0,0,0,.34-.15,1.22,1.22,0,0,0,.27-.21.69.69,0,0,0,.16-.26l.5.15a1.29,1.29,0,0,1-.24.39,1.66,1.66,0,0,1-.37.31,1.83,1.83,0,0,1-.47.2,2,2,0,0,1-.54.07,1.9,1.9,0,0,1-1.41-.6,2.05,2.05,0,0,1-.41-.65A2.11,2.11,0,0,1,122.59,10.86Z"/><path class="cls-4" d="M130.27,12.83h-.51V10.64a1.77,1.77,0,0,0-.23-1,.77.77,0,0,0-.67-.33,1.14,1.14,0,0,0-.43.09,1.6,1.6,0,0,0-.4.24,1.61,1.61,0,0,0-.33.35,1.48,1.48,0,0,0-.21.44v2.4H127V7.34h.51V9.8a1.83,1.83,0,0,1,.65-.7,1.66,1.66,0,0,1,.89-.26,1.23,1.23,0,0,1,.58.12,1,1,0,0,1,.38.35,1.56,1.56,0,0,1,.21.53,3.26,3.26,0,0,1,.07.69Z"/><path class="cls-4" d="M135,12.91a1.88,1.88,0,0,1-.79-.16,1.91,1.91,0,0,1-.62-.44,2,2,0,0,1-.4-.65,2.12,2.12,0,0,1-.14-.77,2.09,2.09,0,0,1,.15-.78,2.05,2.05,0,0,1,.41-.65,2,2,0,0,1,.62-.44,1.91,1.91,0,0,1,1.56,0,2,2,0,0,1,.62.44,2.05,2.05,0,0,1,.41.65,2.1,2.1,0,0,1,.15.78,2.07,2.07,0,0,1-.15.77,2,2,0,0,1-.41.65,1.91,1.91,0,0,1-.62.44A1.86,1.86,0,0,1,135,12.91Zm-1.42-2a1.68,1.68,0,0,0,.11.61,1.61,1.61,0,0,0,.3.5,1.38,1.38,0,0,0,.45.33,1.3,1.3,0,0,0,.55.12,1.26,1.26,0,0,0,.55-.12,1.46,1.46,0,0,0,.45-.34,1.61,1.61,0,0,0,.31-.5,1.73,1.73,0,0,0,0-1.23,1.6,1.6,0,0,0-.31-.5,1.47,1.47,0,0,0-.45-.34A1.24,1.24,0,0,0,135,9.3a1.27,1.27,0,0,0-.55.12,1.39,1.39,0,0,0-.45.34,1.7,1.7,0,0,0-.42,1.13Z"/><path class="cls-4" d="M137.91,12.83V9.78h-.54V9.37h.54V8.81a1.84,1.84,0,0,1,.31-1.13,1,1,0,0,1,.85-.41,1.49,1.49,0,0,1,.44.07,1.31,1.31,0,0,1,.38.18l-.16.37a.77.77,0,0,0-.26-.13,1.08,1.08,0,0,0-.3,0,.63.63,0,0,0-.55.28,1.42,1.42,0,0,0-.19.8v.58h1.08v.41h-1.08v3.05Z"/><path class="cls-4" d="M144,12.64l-.13.06-.2.08-.26.07a1.46,1.46,0,0,1-.3,0,1.09,1.09,0,0,1-.32,0,.74.74,0,0,1-.26-.14.68.68,0,0,1-.18-.24.77.77,0,0,1-.07-.33V9.32h-.54V8.91h.54V7.59h.51V8.91h.9v.41h-.9V12a.41.41,0,0,0,.15.32.53.53,0,0,0,.32.1,1,1,0,0,0,.38-.07l.21-.1Z"/><path class="cls-4" d="M147.88,12.83h-.51V10.64a1.77,1.77,0,0,0-.23-1,.77.77,0,0,0-.67-.33,1.14,1.14,0,0,0-.43.09,1.6,1.6,0,0,0-.4.24,1.61,1.61,0,0,0-.33.35,1.48,1.48,0,0,0-.21.44v2.4h-.51V7.34h.51V9.8a1.83,1.83,0,0,1,.65-.7,1.66,1.66,0,0,1,.89-.26,1.23,1.23,0,0,1,.58.12,1,1,0,0,1,.38.35,1.56,1.56,0,0,1,.21.53,3.26,3.26,0,0,1,.07.69Z"/><path class="cls-4" d="M150.65,12.91a1.9,1.9,0,0,1-1.41-.6,2.05,2.05,0,0,1-.41-.65,2.11,2.11,0,0,1-.15-.79,2.06,2.06,0,0,1,.15-.78,2,2,0,0,1,1-1.08,2,2,0,0,1,1.57,0,1.87,1.87,0,0,1,.61.44,2.07,2.07,0,0,1,.54,1.41s0,.08,0,.12a.38.38,0,0,1,0,.08h-3.35a1.65,1.65,0,0,0,.46,1,1.38,1.38,0,0,0,.44.3,1.34,1.34,0,0,0,.54.11,1.41,1.41,0,0,0,.38-.05,1.53,1.53,0,0,0,.35-.14,1.21,1.21,0,0,0,.28-.22,1,1,0,0,0,.19-.29l.44.12a1.3,1.3,0,0,1-.26.39,1.79,1.79,0,0,1-.38.31,1.88,1.88,0,0,1-.48.2A2.07,2.07,0,0,1,150.65,12.91Zm1.44-2.24a1.57,1.57,0,0,0-.46-1,1.42,1.42,0,0,0-2,0,1.44,1.44,0,0,0-.31.45,1.71,1.71,0,0,0-.14.57Z"/><path class="cls-4" d="M154.67,12.91a2.73,2.73,0,0,1-.89-.15,2.15,2.15,0,0,1-.75-.44l.23-.35a2.53,2.53,0,0,0,.67.41,2,2,0,0,0,.73.14,1.32,1.32,0,0,0,.76-.19.62.62,0,0,0,.28-.54.47.47,0,0,0-.08-.27.65.65,0,0,0-.22-.19,1.73,1.73,0,0,0-.37-.15l-.52-.13-.59-.17a1.8,1.8,0,0,1-.41-.19.68.68,0,0,1-.24-.26.84.84,0,0,1-.08-.39,1.11,1.11,0,0,1,.12-.52,1.06,1.06,0,0,1,.32-.37,1.43,1.43,0,0,1,.47-.22,2.09,2.09,0,0,1,.57-.08,2.19,2.19,0,0,1,.82.15,1.62,1.62,0,0,1,.59.39l-.25.3a1.37,1.37,0,0,0-.53-.34,1.91,1.91,0,0,0-.65-.11,1.62,1.62,0,0,0-.38,0,.9.9,0,0,0-.3.13.64.64,0,0,0-.21.23.68.68,0,0,0-.08.33.54.54,0,0,0,.05.26.45.45,0,0,0,.17.17,1.39,1.39,0,0,0,.3.13l.45.12.66.18a2.07,2.07,0,0,1,.48.21.83.83,0,0,1,.29.29.85.85,0,0,1,.1.42,1,1,0,0,1-.41.86A1.79,1.79,0,0,1,154.67,12.91Z"/><path class="cls-4" d="M158.73,12.91a1.9,1.9,0,0,1-1.41-.6,2.05,2.05,0,0,1-.41-.65,2.11,2.11,0,0,1-.15-.79,2.06,2.06,0,0,1,.15-.78,2,2,0,0,1,1-1.08,2,2,0,0,1,1.57,0,1.87,1.87,0,0,1,.61.44,2.07,2.07,0,0,1,.54,1.41s0,.08,0,.12a.38.38,0,0,1,0,.08H157.3a1.65,1.65,0,0,0,.46,1,1.38,1.38,0,0,0,.44.3,1.34,1.34,0,0,0,.54.11,1.41,1.41,0,0,0,.38-.05,1.53,1.53,0,0,0,.35-.14,1.21,1.21,0,0,0,.28-.22,1,1,0,0,0,.19-.29l.44.12a1.3,1.3,0,0,1-.26.39,1.79,1.79,0,0,1-.38.31,1.88,1.88,0,0,1-.48.2A2.07,2.07,0,0,1,158.73,12.91Zm1.44-2.24a1.57,1.57,0,0,0-.46-1,1.42,1.42,0,0,0-2,0,1.44,1.44,0,0,0-.31.45,1.71,1.71,0,0,0-.14.57Z"/><path class="cls-4" d="M164.67,12.91a2.73,2.73,0,0,1-.89-.15,2.15,2.15,0,0,1-.75-.44l.23-.35a2.53,2.53,0,0,0,.67.41,2,2,0,0,0,.73.14,1.32,1.32,0,0,0,.76-.19.62.62,0,0,0,.28-.54.47.47,0,0,0-.08-.27.65.65,0,0,0-.22-.19,1.73,1.73,0,0,0-.37-.15l-.52-.13-.59-.17a1.8,1.8,0,0,1-.41-.19.68.68,0,0,1-.24-.26.84.84,0,0,1-.08-.39,1.11,1.11,0,0,1,.12-.52,1.06,1.06,0,0,1,.32-.37,1.43,1.43,0,0,1,.47-.22,2.09,2.09,0,0,1,.57-.08,2.19,2.19,0,0,1,.82.15,1.62,1.62,0,0,1,.59.39l-.25.3a1.37,1.37,0,0,0-.53-.34,1.91,1.91,0,0,0-.65-.11,1.62,1.62,0,0,0-.38,0,.9.9,0,0,0-.3.13.64.64,0,0,0-.21.23.68.68,0,0,0-.08.33.54.54,0,0,0,.05.26.45.45,0,0,0,.17.17,1.39,1.39,0,0,0,.3.13l.45.12.66.18a2.07,2.07,0,0,1,.48.21.83.83,0,0,1,.29.29.85.85,0,0,1,.1.42,1,1,0,0,1-.41.86A1.79,1.79,0,0,1,164.67,12.91Z"/><path class="cls-4" d="M169,12.91a1.57,1.57,0,0,1-.88-.25,2,2,0,0,1-.62-.64v2.41H167V8.91h.46v.76a1.89,1.89,0,0,1,.62-.6,1.6,1.6,0,0,1,.83-.23,1.67,1.67,0,0,1,.75.17,1.91,1.91,0,0,1,.59.45,2.09,2.09,0,0,1,.39.65,2.13,2.13,0,0,1,.14.76,2.37,2.37,0,0,1-.13.78,2,2,0,0,1-.36.65,1.75,1.75,0,0,1-.56.44A1.6,1.6,0,0,1,169,12.91Zm-.14-.45a1.2,1.2,0,0,0,.57-.14,1.45,1.45,0,0,0,.44-.36,1.61,1.61,0,0,0,.28-.5,1.77,1.77,0,0,0,.1-.58,1.62,1.62,0,0,0-.11-.6,1.66,1.66,0,0,0-.31-.5,1.46,1.46,0,0,0-.46-.35,1.31,1.31,0,0,0-.58-.13,1.15,1.15,0,0,0-.41.08,1.79,1.79,0,0,0-.4.21,1.38,1.38,0,0,0-.32.31.83.83,0,0,0-.16.37v1.2a1.78,1.78,0,0,0,.23.39,1.63,1.63,0,0,0,.32.31,1.48,1.48,0,0,0,.38.21A1.23,1.23,0,0,0,168.88,12.45Z"/><path class="cls-4" d="M173.33,12.91a1.88,1.88,0,0,1-.79-.16,1.91,1.91,0,0,1-.62-.44,2,2,0,0,1-.4-.65,2.12,2.12,0,0,1-.14-.77,2.09,2.09,0,0,1,.15-.78,2.05,2.05,0,0,1,.41-.65,2,2,0,0,1,.62-.44,1.91,1.91,0,0,1,1.56,0,2,2,0,0,1,.62.44,2.05,2.05,0,0,1,.41.65,2.1,2.1,0,0,1,.15.78,2.07,2.07,0,0,1-.15.77,2,2,0,0,1-.41.65,1.91,1.91,0,0,1-.62.44A1.86,1.86,0,0,1,173.33,12.91Zm-1.42-2a1.68,1.68,0,0,0,.11.61,1.61,1.61,0,0,0,.3.5,1.38,1.38,0,0,0,.45.33,1.3,1.3,0,0,0,.55.12,1.26,1.26,0,0,0,.55-.12,1.46,1.46,0,0,0,.45-.34,1.61,1.61,0,0,0,.31-.5,1.73,1.73,0,0,0,0-1.23,1.6,1.6,0,0,0-.31-.5,1.47,1.47,0,0,0-.45-.34,1.24,1.24,0,0,0-.55-.12,1.27,1.27,0,0,0-.55.12,1.39,1.39,0,0,0-.45.34,1.7,1.7,0,0,0-.42,1.13Z"/><path class="cls-4" d="M178.06,9.37a1.61,1.61,0,0,0-.9.29,1.44,1.44,0,0,0-.54.74v2.44h-.51V8.91h.48v.94a2.06,2.06,0,0,1,.53-.69,1.1,1.1,0,0,1,.71-.27h.23Z"/><path class="cls-4" d="M180.64,12.64l-.13.06-.2.08-.26.07a1.46,1.46,0,0,1-.3,0,1.09,1.09,0,0,1-.32,0,.74.74,0,0,1-.26-.14.68.68,0,0,1-.18-.24.77.77,0,0,1-.07-.33V9.32h-.54V8.91h.54V7.59h.51V8.91h.9v.41h-.9V12a.41.41,0,0,0,.15.32.53.53,0,0,0,.32.1,1,1,0,0,0,.38-.07l.21-.1Z"/><path class="cls-4" d="M182.56,12.91a2.73,2.73,0,0,1-.89-.15,2.15,2.15,0,0,1-.75-.44l.23-.35a2.53,2.53,0,0,0,.67.41,2,2,0,0,0,.73.14,1.32,1.32,0,0,0,.76-.19.62.62,0,0,0,.28-.54.47.47,0,0,0-.08-.27.65.65,0,0,0-.22-.19,1.73,1.73,0,0,0-.37-.15l-.52-.13-.59-.17a1.8,1.8,0,0,1-.41-.19.68.68,0,0,1-.24-.26.84.84,0,0,1-.08-.39,1.11,1.11,0,0,1,.12-.52,1.06,1.06,0,0,1,.32-.37,1.43,1.43,0,0,1,.47-.22,2.09,2.09,0,0,1,.57-.08,2.19,2.19,0,0,1,.82.15,1.62,1.62,0,0,1,.59.39l-.25.3a1.37,1.37,0,0,0-.53-.34,1.91,1.91,0,0,0-.65-.11,1.62,1.62,0,0,0-.38,0,.9.9,0,0,0-.3.13.64.64,0,0,0-.21.23.68.68,0,0,0-.08.33.54.54,0,0,0,.05.26.45.45,0,0,0,.17.17,1.39,1.39,0,0,0,.3.13l.45.12.66.18a2.07,2.07,0,0,1,.48.21.83.83,0,0,1,.29.29.85.85,0,0,1,.1.42,1,1,0,0,1-.41.86A1.79,1.79,0,0,1,182.56,12.91Z"/></g></g></svg>