<svg xmlns="http://www.w3.org/2000/svg" viewBox="0 0 223.98 20.63"><defs><style>.cls-1{opacity:0.2;}.cls-2{fill:#3e4eaa;}.cls-3{fill:#0e174a;}.cls-4{fill:#ffbe03;}</style></defs><title>Asset 95</title><g id="Layer_2" data-name="Layer 2"><g id="Layer_1-2" data-name="Layer 1"><g class="cls-1"><path class="cls-2" d="M220.34,20.63H11.18a1.14,1.14,0,0,1-1.07-1.2V15.26a1.14,1.14,0,0,1,1.07-1.2H220.33a1.14,1.14,0,0,1,1.07,1.2v4.17A1.14,1.14,0,0,1,220.34,20.63Z"/></g><rect class="cls-3" x="10" y="2.95" width="213.98" height="14.41" rx="2.79" ry="2.79"/><rect class="cls-4" x="2.92" y="2.92" width="14.08" height="14.08" transform="translate(-4.12 9.95) rotate(-45)"/><path class="cls-4" d="M27.58,8.91h.5L26.4,12.83H26l-.83-2-.83,2h-.43L22.2,8.91h.49l1.43,3.39.74-1.79-.67-1.59h.44l.51,1.28.5-1.28h.44l-.66,1.59.74,1.79Z"/><path class="cls-4" d="M29.68,12.91a1.54,1.54,0,0,1-.55-.09,1.28,1.28,0,0,1-.42-.26,1.17,1.17,0,0,1-.27-.38,1.1,1.1,0,0,1-.1-.46,1,1,0,0,1,.12-.49,1.13,1.13,0,0,1,.34-.38,1.65,1.65,0,0,1,.52-.24,2.46,2.46,0,0,1,.67-.09,3.56,3.56,0,0,1,.6.05,2.62,2.62,0,0,1,.55.15v-.35a1.13,1.13,0,0,0-.3-.82,1.07,1.07,0,0,0-.8-.3,1.73,1.73,0,0,0-.63.12,3,3,0,0,0-.64.35l-.18-.34A3.41,3.41,0,0,1,29.34,9a2.24,2.24,0,0,1,.75-.13,1.55,1.55,0,0,1,1.14.41,1.53,1.53,0,0,1,.42,1.14v1.77c0,.14.06.21.18.21v.45h-.2a.46.46,0,0,1-.27-.09.35.35,0,0,1-.14-.27l0-.31a1.7,1.7,0,0,1-.67.54A2,2,0,0,1,29.68,12.91Zm.13-.39a1.66,1.66,0,0,0,.67-.15A1.31,1.31,0,0,0,31,12a.79.79,0,0,0,.09-.15.34.34,0,0,0,0-.15V11a3.09,3.09,0,0,0-.53-.15,2.9,2.9,0,0,0-.54-.05,1.61,1.61,0,0,0-.89.22.69.69,0,0,0-.34.61.82.82,0,0,0,.06.31.78.78,0,0,0,.18.27,1,1,0,0,0,.3.2A1.1,1.1,0,0,0,29.81,12.51Z"/><path class="cls-4" d="M36.05,12.83h-.51V10.64a1.94,1.94,0,0,0-.2-1,.7.7,0,0,0-.63-.32,1.3,1.3,0,0,0-.45.08,1.57,1.57,0,0,0-.42.23,1.65,1.65,0,0,0-.34.36,1.58,1.58,0,0,0-.22.45v2.4h-.51V8.91h.47V9.8a1.81,1.81,0,0,1,.3-.39,2,2,0,0,1,.39-.3,1.92,1.92,0,0,1,.46-.2,1.9,1.9,0,0,1,.51-.07,1.15,1.15,0,0,1,.55.12.94.94,0,0,1,.36.34,1.56,1.56,0,0,1,.2.53,3.75,3.75,0,0,1,.06.7Z"/><path class="cls-4" d="M39,12.64l-.13.06-.2.08-.26.07a1.46,1.46,0,0,1-.3,0,1.09,1.09,0,0,1-.32,0,.74.74,0,0,1-.26-.14.68.68,0,0,1-.18-.24.77.77,0,0,1-.07-.33V9.32h-.54V8.91h.54V7.59h.51V8.91h.9v.41h-.9V12a.41.41,0,0,0,.15.32.53.53,0,0,0,.32.1,1,1,0,0,0,.38-.07l.21-.1Z"/><path class="cls-4" d="M43.4,12.64l-.13.06-.2.08-.26.07a1.46,1.46,0,0,1-.3,0,1.09,1.09,0,0,1-.32,0,.74.74,0,0,1-.26-.14.68.68,0,0,1-.18-.24.77.77,0,0,1-.07-.33V9.32h-.54V8.91h.54V7.59h.51V8.91h.9v.41h-.9V12a.41.41,0,0,0,.15.32.53.53,0,0,0,.32.1,1,1,0,0,0,.38-.07l.21-.1Z"/><path class="cls-4" d="M45.61,12.91a1.88,1.88,0,0,1-.79-.16,1.91,1.91,0,0,1-.62-.44,2,2,0,0,1-.4-.65,2.12,2.12,0,0,1-.14-.77,2.09,2.09,0,0,1,.15-.78,2.05,2.05,0,0,1,.41-.65A2,2,0,0,1,44.83,9a1.91,1.91,0,0,1,1.56,0,2,2,0,0,1,.62.44,2.05,2.05,0,0,1,.41.65,2.1,2.1,0,0,1,.15.78,2.07,2.07,0,0,1-.15.77,2,2,0,0,1-.41.65,1.91,1.91,0,0,1-.62.44A1.86,1.86,0,0,1,45.61,12.91Zm-1.42-2a1.68,1.68,0,0,0,.11.61,1.61,1.61,0,0,0,.3.5,1.38,1.38,0,0,0,.45.33,1.3,1.3,0,0,0,.55.12,1.26,1.26,0,0,0,.55-.12,1.46,1.46,0,0,0,.45-.34,1.61,1.61,0,0,0,.31-.5,1.73,1.73,0,0,0,0-1.23,1.6,1.6,0,0,0-.31-.5,1.47,1.47,0,0,0-.45-.34,1.24,1.24,0,0,0-.55-.12,1.27,1.27,0,0,0-.55.12,1.39,1.39,0,0,0-.45.34,1.7,1.7,0,0,0-.42,1.13Z"/><path class="cls-4" d="M52.32,12.91a1.57,1.57,0,0,1-.88-.25,2,2,0,0,1-.62-.64v2.41h-.51V8.91h.46v.76a1.89,1.89,0,0,1,.62-.6,1.6,1.6,0,0,1,.83-.23A1.67,1.67,0,0,1,53,9a1.91,1.91,0,0,1,.59.45,2.09,2.09,0,0,1,.39.65,2.13,2.13,0,0,1,.14.76,2.37,2.37,0,0,1-.13.78,2,2,0,0,1-.36.65,1.75,1.75,0,0,1-.56.44A1.6,1.6,0,0,1,52.32,12.91Zm-.14-.45a1.2,1.2,0,0,0,.57-.14,1.45,1.45,0,0,0,.44-.36,1.61,1.61,0,0,0,.28-.5,1.77,1.77,0,0,0,.1-.58,1.62,1.62,0,0,0-.11-.6,1.66,1.66,0,0,0-.31-.5,1.46,1.46,0,0,0-.46-.35,1.31,1.31,0,0,0-.58-.13,1.15,1.15,0,0,0-.41.08,1.79,1.79,0,0,0-.4.21A1.38,1.38,0,0,0,51,9.9a.83.83,0,0,0-.16.37v1.2a1.78,1.78,0,0,0,.23.39,1.63,1.63,0,0,0,.32.31,1.48,1.48,0,0,0,.38.21A1.23,1.23,0,0,0,52.18,12.45Z"/><path class="cls-4" d="M55,7.34h.51v4.6a.47.47,0,0,0,.12.34.45.45,0,0,0,.34.12l.2,0,.21-.06.09.41a1.65,1.65,0,0,1-.35.1,2,2,0,0,1-.36,0,.76.76,0,0,1-.56-.2.75.75,0,0,1-.2-.56Z"/><path class="cls-4" d="M58,12.91a1.54,1.54,0,0,1-.55-.09,1.28,1.28,0,0,1-.42-.26,1.17,1.17,0,0,1-.27-.38,1.1,1.1,0,0,1-.1-.46,1,1,0,0,1,.12-.49,1.13,1.13,0,0,1,.34-.38,1.65,1.65,0,0,1,.52-.24,2.46,2.46,0,0,1,.67-.09,3.56,3.56,0,0,1,.6.05,2.62,2.62,0,0,1,.55.15v-.35a1.13,1.13,0,0,0-.3-.82,1.07,1.07,0,0,0-.8-.3,1.73,1.73,0,0,0-.63.12,3,3,0,0,0-.64.35l-.18-.34A3.41,3.41,0,0,1,57.62,9a2.24,2.24,0,0,1,.75-.13,1.55,1.55,0,0,1,1.14.41,1.53,1.53,0,0,1,.42,1.14v1.77c0,.14.06.21.18.21v.45h-.2a.46.46,0,0,1-.27-.09.35.35,0,0,1-.14-.27l0-.31a1.7,1.7,0,0,1-.67.54A2,2,0,0,1,58,12.91Zm.13-.39a1.66,1.66,0,0,0,.67-.15,1.31,1.31,0,0,0,.53-.4.79.79,0,0,0,.09-.15.34.34,0,0,0,0-.15V11a3.09,3.09,0,0,0-.53-.15,2.9,2.9,0,0,0-.54-.05,1.61,1.61,0,0,0-.89.22.69.69,0,0,0-.34.61.82.82,0,0,0,.06.31.78.78,0,0,0,.18.27,1,1,0,0,0,.3.2A1.1,1.1,0,0,0,58.09,12.51Z"/><path class="cls-4" d="M61.14,14h.31l.12,0a.22.22,0,0,0,.08-.06,1,1,0,0,0,.11-.17l.16-.35.25-.6L60.46,8.91H61l1.45,3.44,1.34-3.44h.49l-2,5.05a.9.9,0,0,1-.3.41.92.92,0,0,1-.54.14l-.26,0Z"/><path class="cls-4" d="M67.75,12.91a1.54,1.54,0,0,1-.55-.09,1.28,1.28,0,0,1-.42-.26,1.17,1.17,0,0,1-.27-.38,1.1,1.1,0,0,1-.1-.46,1,1,0,0,1,.12-.49,1.13,1.13,0,0,1,.34-.38,1.65,1.65,0,0,1,.52-.24,2.46,2.46,0,0,1,.67-.09,3.56,3.56,0,0,1,.6.05,2.62,2.62,0,0,1,.55.15v-.35a1.13,1.13,0,0,0-.3-.82,1.07,1.07,0,0,0-.8-.3,1.73,1.73,0,0,0-.63.12,3,3,0,0,0-.64.35l-.18-.34A3.41,3.41,0,0,1,67.41,9a2.24,2.24,0,0,1,.75-.13,1.55,1.55,0,0,1,1.14.41,1.53,1.53,0,0,1,.42,1.14v1.77c0,.14.06.21.18.21v.45h-.2a.46.46,0,0,1-.27-.09.35.35,0,0,1-.14-.27l0-.31a1.7,1.7,0,0,1-.67.54A2,2,0,0,1,67.75,12.91Zm.13-.39a1.66,1.66,0,0,0,.67-.15,1.31,1.31,0,0,0,.53-.4.79.79,0,0,0,.09-.15.34.34,0,0,0,0-.15V11a3.09,3.09,0,0,0-.53-.15,2.9,2.9,0,0,0-.54-.05,1.61,1.61,0,0,0-.89.22.69.69,0,0,0-.34.61A.82.82,0,0,0,67,12a.78.78,0,0,0,.18.27,1,1,0,0,0,.3.2A1.1,1.1,0,0,0,67.87,12.51Z"/><path class="cls-4" d="M74.12,12.83h-.51V10.64a1.94,1.94,0,0,0-.2-1,.7.7,0,0,0-.63-.32,1.3,1.3,0,0,0-.45.08,1.57,1.57,0,0,0-.42.23,1.65,1.65,0,0,0-.34.36,1.58,1.58,0,0,0-.22.45v2.4h-.51V8.91h.47V9.8a1.81,1.81,0,0,1,.3-.39,2,2,0,0,1,.39-.3,1.92,1.92,0,0,1,.46-.2A1.9,1.9,0,0,1,73,8.85a1.15,1.15,0,0,1,.55.12.94.94,0,0,1,.36.34,1.56,1.56,0,0,1,.2.53,3.75,3.75,0,0,1,.06.7Z"/><path class="cls-4" d="M76.87,12.91a1.88,1.88,0,0,1-.79-.16,1.91,1.91,0,0,1-.62-.44,2,2,0,0,1-.4-.65,2.12,2.12,0,0,1-.14-.77,2.09,2.09,0,0,1,.15-.78,2.05,2.05,0,0,1,.41-.65A2,2,0,0,1,76.09,9a1.91,1.91,0,0,1,1.56,0,2,2,0,0,1,.62.44,2.05,2.05,0,0,1,.41.65,2.1,2.1,0,0,1,.15.78,2.07,2.07,0,0,1-.15.77,2,2,0,0,1-.41.65,1.91,1.91,0,0,1-.62.44A1.86,1.86,0,0,1,76.87,12.91Zm-1.42-2a1.68,1.68,0,0,0,.11.61,1.61,1.61,0,0,0,.3.5,1.38,1.38,0,0,0,.45.33,1.3,1.3,0,0,0,.55.12,1.26,1.26,0,0,0,.55-.12,1.46,1.46,0,0,0,.45-.34,1.61,1.61,0,0,0,.31-.5,1.73,1.73,0,0,0,0-1.23,1.6,1.6,0,0,0-.31-.5,1.47,1.47,0,0,0-.45-.34,1.24,1.24,0,0,0-.55-.12,1.27,1.27,0,0,0-.55.12,1.39,1.39,0,0,0-.45.34,1.7,1.7,0,0,0-.42,1.13Z"/><path class="cls-4" d="M81.49,12.64l-.13.06-.2.08-.26.07a1.46,1.46,0,0,1-.3,0,1.09,1.09,0,0,1-.32,0,.74.74,0,0,1-.26-.14.68.68,0,0,1-.18-.24.77.77,0,0,1-.07-.33V9.32h-.54V8.91h.54V7.59h.51V8.91h.9v.41h-.9V12a.41.41,0,0,0,.15.32.53.53,0,0,0,.32.1,1,1,0,0,0,.38-.07l.21-.1Z"/><path class="cls-4" d="M85.38,12.83h-.51V10.64a1.77,1.77,0,0,0-.23-1A.77.77,0,0,0,84,9.31a1.14,1.14,0,0,0-.43.09,1.6,1.6,0,0,0-.4.24,1.61,1.61,0,0,0-.33.35,1.48,1.48,0,0,0-.21.44v2.4h-.51V7.34h.51V9.8a1.83,1.83,0,0,1,.65-.7,1.66,1.66,0,0,1,.89-.26,1.23,1.23,0,0,1,.58.12,1,1,0,0,1,.38.35,1.56,1.56,0,0,1,.21.53,3.26,3.26,0,0,1,.07.69Z"/><path class="cls-4" d="M88.16,12.91a1.9,1.9,0,0,1-1.41-.6,2.05,2.05,0,0,1-.41-.65,2.11,2.11,0,0,1-.15-.79,2.06,2.06,0,0,1,.15-.78,2,2,0,0,1,1-1.08,2,2,0,0,1,1.57,0,1.87,1.87,0,0,1,.61.44,2.07,2.07,0,0,1,.54,1.41s0,.08,0,.12a.38.38,0,0,1,0,.08H86.73a1.65,1.65,0,0,0,.46,1,1.38,1.38,0,0,0,.44.3,1.34,1.34,0,0,0,.54.11,1.41,1.41,0,0,0,.38-.05,1.53,1.53,0,0,0,.35-.14,1.21,1.21,0,0,0,.28-.22,1,1,0,0,0,.19-.29l.44.12a1.3,1.3,0,0,1-.26.39,1.79,1.79,0,0,1-.38.31,1.88,1.88,0,0,1-.48.2A2.07,2.07,0,0,1,88.16,12.91Zm1.44-2.24a1.57,1.57,0,0,0-.46-1,1.42,1.42,0,0,0-2,0,1.44,1.44,0,0,0-.31.45,1.71,1.71,0,0,0-.14.57Z"/><path class="cls-4" d="M92.81,9.37a1.61,1.61,0,0,0-.9.29,1.44,1.44,0,0,0-.54.74v2.44h-.51V8.91h.48v.94a2.06,2.06,0,0,1,.53-.69,1.1,1.1,0,0,1,.71-.27h.23Z"/><path class="cls-4" d="M96.57,12.91a2.73,2.73,0,0,1-.89-.15,2.15,2.15,0,0,1-.75-.44l.23-.35a2.53,2.53,0,0,0,.67.41,2,2,0,0,0,.73.14,1.32,1.32,0,0,0,.76-.19.62.62,0,0,0,.28-.54.47.47,0,0,0-.08-.27.65.65,0,0,0-.22-.19,1.73,1.73,0,0,0-.37-.15L96.42,11l-.59-.17a1.8,1.8,0,0,1-.41-.19.68.68,0,0,1-.24-.26A.84.84,0,0,1,95.1,10a1.11,1.11,0,0,1,.12-.52,1.06,1.06,0,0,1,.32-.37A1.43,1.43,0,0,1,96,8.92a2.09,2.09,0,0,1,.57-.08,2.19,2.19,0,0,1,.82.15,1.62,1.62,0,0,1,.59.39l-.25.3a1.37,1.37,0,0,0-.53-.34,1.91,1.91,0,0,0-.65-.11,1.62,1.62,0,0,0-.38,0,.9.9,0,0,0-.3.13.64.64,0,0,0-.21.23.68.68,0,0,0-.08.33.54.54,0,0,0,.05.26.45.45,0,0,0,.17.17,1.39,1.39,0,0,0,.3.13l.45.12.66.18a2.07,2.07,0,0,1,.48.21.83.83,0,0,1,.29.29.85.85,0,0,1,.1.42,1,1,0,0,1-.41.86A1.79,1.79,0,0,1,96.57,12.91Z"/><path class="cls-4" d="M100.92,12.91a1.57,1.57,0,0,1-.88-.25,2,2,0,0,1-.62-.64v2.41h-.51V8.91h.46v.76a1.89,1.89,0,0,1,.62-.6,1.6,1.6,0,0,1,.83-.23,1.67,1.67,0,0,1,.75.17,1.91,1.91,0,0,1,.59.45,2.09,2.09,0,0,1,.39.65,2.13,2.13,0,0,1,.14.76,2.37,2.37,0,0,1-.13.78,2,2,0,0,1-.36.65,1.75,1.75,0,0,1-.56.44A1.6,1.6,0,0,1,100.92,12.91Zm-.14-.45a1.2,1.2,0,0,0,.57-.14,1.45,1.45,0,0,0,.44-.36,1.61,1.61,0,0,0,.28-.5,1.77,1.77,0,0,0,.1-.58,1.62,1.62,0,0,0-.11-.6,1.66,1.66,0,0,0-.31-.5,1.46,1.46,0,0,0-.46-.35,1.31,1.31,0,0,0-.58-.13,1.15,1.15,0,0,0-.41.08,1.79,1.79,0,0,0-.4.21,1.38,1.38,0,0,0-.32.31.83.83,0,0,0-.16.37v1.2a1.78,1.78,0,0,0,.23.39,1.63,1.63,0,0,0,.32.31,1.48,1.48,0,0,0,.38.21A1.23,1.23,0,0,0,100.78,12.45Z"/><path class="cls-4" d="M105.23,12.91a1.88,1.88,0,0,1-.79-.16,1.91,1.91,0,0,1-.62-.44,2,2,0,0,1-.4-.65,2.12,2.12,0,0,1-.14-.77,2.09,2.09,0,0,1,.15-.78,2.05,2.05,0,0,1,.41-.65,2,2,0,0,1,.62-.44A1.91,1.91,0,0,1,106,9a2,2,0,0,1,.62.44,2.05,2.05,0,0,1,.41.65,2.1,2.1,0,0,1,.15.78,2.07,2.07,0,0,1-.15.77,2,2,0,0,1-.41.65,1.91,1.91,0,0,1-.62.44A1.86,1.86,0,0,1,105.23,12.91Zm-1.42-2a1.68,1.68,0,0,0,.11.61,1.61,1.61,0,0,0,.3.5,1.38,1.38,0,0,0,.45.33,1.3,1.3,0,0,0,.55.12,1.26,1.26,0,0,0,.55-.12,1.46,1.46,0,0,0,.45-.34,1.61,1.61,0,0,0,.31-.5,1.73,1.73,0,0,0,0-1.23,1.6,1.6,0,0,0-.31-.5,1.47,1.47,0,0,0-.45-.34,1.24,1.24,0,0,0-.55-.12,1.27,1.27,0,0,0-.55.12,1.39,1.39,0,0,0-.45.34,1.7,1.7,0,0,0-.42,1.13Z"/><path class="cls-4" d="M110,9.37a1.61,1.61,0,0,0-.9.29,1.44,1.44,0,0,0-.54.74v2.44H108V8.91h.48v.94a2.06,2.06,0,0,1,.53-.69,1.1,1.1,0,0,1,.71-.27H110Z"/><path class="cls-4" d="M112.54,12.64l-.13.06-.2.08-.26.07a1.46,1.46,0,0,1-.3,0,1.09,1.09,0,0,1-.32,0,.74.74,0,0,1-.26-.14.68.68,0,0,1-.18-.24.77.77,0,0,1-.07-.33V9.32h-.54V8.91h.54V7.59h.51V8.91h.9v.41h-.9V12a.41.41,0,0,0,.15.32.53.53,0,0,0,.32.1,1,1,0,0,0,.38-.07l.21-.1Z"/><path class="cls-4" d="M116.1,12.91a1.54,1.54,0,0,1-.55-.09,1.28,1.28,0,0,1-.42-.26,1.17,1.17,0,0,1-.27-.38,1.1,1.1,0,0,1-.1-.46,1,1,0,0,1,.12-.49,1.13,1.13,0,0,1,.34-.38,1.65,1.65,0,0,1,.52-.24,2.46,2.46,0,0,1,.67-.09,3.56,3.56,0,0,1,.6.05,2.62,2.62,0,0,1,.55.15v-.35a1.13,1.13,0,0,0-.3-.82,1.07,1.07,0,0,0-.8-.3,1.73,1.73,0,0,0-.63.12,3,3,0,0,0-.64.35L115,9.36a3.41,3.41,0,0,1,.74-.38,2.24,2.24,0,0,1,.75-.13,1.55,1.55,0,0,1,1.14.41,1.53,1.53,0,0,1,.42,1.14v1.77c0,.14.06.21.18.21v.45h-.2a.46.46,0,0,1-.27-.09.35.35,0,0,1-.14-.27l0-.31a1.7,1.7,0,0,1-.67.54A2,2,0,0,1,116.1,12.91Zm.13-.39a1.66,1.66,0,0,0,.67-.15,1.31,1.31,0,0,0,.53-.4.79.79,0,0,0,.09-.15.34.34,0,0,0,0-.15V11a3.09,3.09,0,0,0-.53-.15,2.9,2.9,0,0,0-.54-.05,1.61,1.61,0,0,0-.89.22.69.69,0,0,0-.34.61.82.82,0,0,0,.06.31.78.78,0,0,0,.18.27,1,1,0,0,0,.3.2A1.1,1.1,0,0,0,116.23,12.51Z"/><path class="cls-4" d="M121.19,12.91a1.57,1.57,0,0,1-.88-.25,2,2,0,0,1-.62-.64v2.41h-.51V8.91h.46v.76a1.89,1.89,0,0,1,.62-.6,1.6,1.6,0,0,1,.83-.23,1.67,1.67,0,0,1,.75.17,1.91,1.91,0,0,1,.59.45,2.09,2.09,0,0,1,.39.65,2.13,2.13,0,0,1,.14.76,2.37,2.37,0,0,1-.13.78,2,2,0,0,1-.36.65,1.75,1.75,0,0,1-.56.44A1.6,1.6,0,0,1,121.19,12.91Zm-.14-.45a1.2,1.2,0,0,0,.57-.14,1.45,1.45,0,0,0,.44-.36,1.61,1.61,0,0,0,.28-.5,1.77,1.77,0,0,0,.1-.58,1.62,1.62,0,0,0-.11-.6,1.66,1.66,0,0,0-.31-.5,1.46,1.46,0,0,0-.46-.35A1.31,1.31,0,0,0,121,9.3a1.15,1.15,0,0,0-.41.08,1.79,1.79,0,0,0-.4.21,1.38,1.38,0,0,0-.32.31.83.83,0,0,0-.16.37v1.2a1.78,1.78,0,0,0,.23.39,1.63,1.63,0,0,0,.32.31,1.48,1.48,0,0,0,.38.21A1.23,1.23,0,0,0,121.05,12.45Z"/><path class="cls-4" d="M124.85,12.91a1.54,1.54,0,0,1-.55-.09,1.28,1.28,0,0,1-.42-.26,1.17,1.17,0,0,1-.27-.38,1.1,1.1,0,0,1-.1-.46,1,1,0,0,1,.12-.49,1.13,1.13,0,0,1,.34-.38,1.65,1.65,0,0,1,.52-.24,2.46,2.46,0,0,1,.67-.09,3.56,3.56,0,0,1,.6.05,2.62,2.62,0,0,1,.55.15v-.35a1.13,1.13,0,0,0-.3-.82,1.07,1.07,0,0,0-.8-.3,1.73,1.73,0,0,0-.63.12,3,3,0,0,0-.64.35l-.18-.34a3.41,3.41,0,0,1,.74-.38,2.24,2.24,0,0,1,.75-.13,1.55,1.55,0,0,1,1.14.41,1.53,1.53,0,0,1,.42,1.14v1.77c0,.14.06.21.18.21v.45h-.2a.46.46,0,0,1-.27-.09.35.35,0,0,1-.14-.27l0-.31a1.7,1.7,0,0,1-.67.54A2,2,0,0,1,124.85,12.91Zm.13-.39a1.66,1.66,0,0,0,.67-.15,1.31,1.31,0,0,0,.53-.4.79.79,0,0,0,.09-.15.34.34,0,0,0,0-.15V11a3.09,3.09,0,0,0-.53-.15,2.9,2.9,0,0,0-.54-.05,1.61,1.61,0,0,0-.89.22.69.69,0,0,0-.34.61.82.82,0,0,0,.06.31.78.78,0,0,0,.18.27,1,1,0,0,0,.3.2A1.1,1.1,0,0,0,125,12.51Z"/><path class="cls-4" d="M129.88,9.37a1.61,1.61,0,0,0-.9.29,1.44,1.44,0,0,0-.54.74v2.44h-.51V8.91h.48v.94a2.06,2.06,0,0,1,.53-.69,1.1,1.1,0,0,1,.71-.27h.23Z"/><path class="cls-4" d="M132.46,12.64l-.13.06-.2.08-.26.07a1.46,1.46,0,0,1-.3,0,1.09,1.09,0,0,1-.32,0,.74.74,0,0,1-.26-.14.68.68,0,0,1-.18-.24.77.77,0,0,1-.07-.33V9.32h-.54V8.91h.54V7.59h.51V8.91h.9v.41h-.9V12a.41.41,0,0,0,.15.32.53.53,0,0,0,.32.1,1,1,0,0,0,.38-.07l.21-.1Z"/><path class="cls-4" d="M135.2,12.83V9.78h-.54V9.37h.54V8.81a1.84,1.84,0,0,1,.31-1.13,1,1,0,0,1,.85-.41,1.49,1.49,0,0,1,.44.07,1.31,1.31,0,0,1,.38.18l-.16.37a.77.77,0,0,0-.26-.13,1.08,1.08,0,0,0-.3,0,.63.63,0,0,0-.55.28,1.42,1.42,0,0,0-.19.8v.58h1.08v.41h-1.08v3.05Z"/><path class="cls-4" d="M139.54,9.37a1.61,1.61,0,0,0-.9.29,1.44,1.44,0,0,0-.54.74v2.44h-.51V8.91h.48v.94a2.06,2.06,0,0,1,.53-.69,1.1,1.1,0,0,1,.71-.27h.23Z"/><path class="cls-4" d="M141.73,12.91a1.88,1.88,0,0,1-.79-.16,1.91,1.91,0,0,1-.62-.44,2,2,0,0,1-.4-.65,2.12,2.12,0,0,1-.14-.77,2.09,2.09,0,0,1,.15-.78,2.05,2.05,0,0,1,.41-.65A2,2,0,0,1,141,9a1.91,1.91,0,0,1,1.56,0,2,2,0,0,1,.62.44,2.05,2.05,0,0,1,.41.65,2.1,2.1,0,0,1,.15.78,2.07,2.07,0,0,1-.15.77,2,2,0,0,1-.41.65,1.91,1.91,0,0,1-.62.44A1.86,1.86,0,0,1,141.73,12.91Zm-1.42-2a1.68,1.68,0,0,0,.11.61,1.61,1.61,0,0,0,.3.5,1.38,1.38,0,0,0,.45.33,1.3,1.3,0,0,0,.55.12,1.26,1.26,0,0,0,.55-.12,1.46,1.46,0,0,0,.45-.34,1.61,1.61,0,0,0,.31-.5,1.73,1.73,0,0,0,0-1.23,1.6,1.6,0,0,0-.31-.5,1.47,1.47,0,0,0-.45-.34,1.24,1.24,0,0,0-.55-.12,1.27,1.27,0,0,0-.55.12,1.39,1.39,0,0,0-.45.34,1.7,1.7,0,0,0-.42,1.13Z"/><path class="cls-4" d="M150.34,12.83h-.51V10.64a1.86,1.86,0,0,0-.21-1,.73.73,0,0,0-.65-.32,1.1,1.1,0,0,0-.42.08,1.3,1.3,0,0,0-.37.23,1.59,1.59,0,0,0-.3.36,1.72,1.72,0,0,0-.2.45v2.39h-.51V10.64a1.88,1.88,0,0,0-.21-1,.72.72,0,0,0-.65-.32,1.15,1.15,0,0,0-.79.31,1.72,1.72,0,0,0-.5.81v2.4h-.51V8.91H145V9.8a1.85,1.85,0,0,1,.63-.7,1.56,1.56,0,0,1,.86-.25,1.13,1.13,0,0,1,.8.28,1.17,1.17,0,0,1,.36.73,1.68,1.68,0,0,1,1.52-1,1.18,1.18,0,0,1,.55.12,1,1,0,0,1,.37.34,1.61,1.61,0,0,1,.2.53,3.49,3.49,0,0,1,.06.7Z"/><path class="cls-4" d="M154.64,12.91a2.73,2.73,0,0,1-.89-.15,2.15,2.15,0,0,1-.75-.44l.23-.35a2.53,2.53,0,0,0,.67.41,2,2,0,0,0,.73.14,1.32,1.32,0,0,0,.76-.19.62.62,0,0,0,.28-.54.47.47,0,0,0-.08-.27.65.65,0,0,0-.22-.19,1.73,1.73,0,0,0-.37-.15l-.52-.13-.59-.17a1.8,1.8,0,0,1-.41-.19.68.68,0,0,1-.24-.26.84.84,0,0,1-.08-.39,1.11,1.11,0,0,1,.12-.52,1.06,1.06,0,0,1,.32-.37,1.43,1.43,0,0,1,.47-.22,2.09,2.09,0,0,1,.57-.08,2.19,2.19,0,0,1,.82.15,1.62,1.62,0,0,1,.59.39l-.25.3a1.37,1.37,0,0,0-.53-.34,1.91,1.91,0,0,0-.65-.11,1.62,1.62,0,0,0-.38,0,.9.9,0,0,0-.3.13.64.64,0,0,0-.21.23.68.68,0,0,0-.08.33.54.54,0,0,0,.05.26.45.45,0,0,0,.17.17,1.39,1.39,0,0,0,.3.13l.45.12.66.18a2.07,2.07,0,0,1,.48.21.83.83,0,0,1,.29.29.85.85,0,0,1,.1.42,1,1,0,0,1-.41.86A1.79,1.79,0,0,1,154.64,12.91Z"/><path class="cls-4" d="M158.68,12.91a1.88,1.88,0,0,1-.79-.16,1.91,1.91,0,0,1-.62-.44,2,2,0,0,1-.4-.65,2.12,2.12,0,0,1-.14-.77,2.09,2.09,0,0,1,.15-.78,2.05,2.05,0,0,1,.41-.65A2,2,0,0,1,157.9,9a1.91,1.91,0,0,1,1.56,0,2,2,0,0,1,.62.44,2.05,2.05,0,0,1,.41.65,2.1,2.1,0,0,1,.15.78,2.07,2.07,0,0,1-.15.77,2,2,0,0,1-.41.65,1.91,1.91,0,0,1-.62.44A1.86,1.86,0,0,1,158.68,12.91Zm-1.42-2a1.68,1.68,0,0,0,.11.61,1.61,1.61,0,0,0,.3.5,1.38,1.38,0,0,0,.45.33,1.3,1.3,0,0,0,.55.12,1.26,1.26,0,0,0,.55-.12,1.46,1.46,0,0,0,.45-.34,1.61,1.61,0,0,0,.31-.5,1.73,1.73,0,0,0,0-1.23,1.6,1.6,0,0,0-.31-.5,1.47,1.47,0,0,0-.45-.34,1.24,1.24,0,0,0-.55-.12,1.27,1.27,0,0,0-.55.12,1.39,1.39,0,0,0-.45.34,1.7,1.7,0,0,0-.42,1.13Z"/><path class="cls-4" d="M161.2,10.86a2.14,2.14,0,0,1,.14-.78,2,2,0,0,1,.4-.64,1.87,1.87,0,0,1,.62-.43,2,2,0,0,1,.8-.16,1.83,1.83,0,0,1,1,.25,1.62,1.62,0,0,1,.62.68l-.5.16a1.19,1.19,0,0,0-.46-.47,1.28,1.28,0,0,0-.65-.17,1.32,1.32,0,0,0-.56.12,1.44,1.44,0,0,0-.45.33,1.51,1.51,0,0,0-.3.49,1.81,1.81,0,0,0,0,1.25,1.59,1.59,0,0,0,.31.51,1.46,1.46,0,0,0,.46.34,1.26,1.26,0,0,0,.55.12,1.34,1.34,0,0,0,.37-.05,1.41,1.41,0,0,0,.34-.15,1.22,1.22,0,0,0,.27-.21.69.69,0,0,0,.16-.26l.5.15a1.29,1.29,0,0,1-.24.39,1.66,1.66,0,0,1-.37.31,1.83,1.83,0,0,1-.47.2,2,2,0,0,1-.54.07,1.9,1.9,0,0,1-1.41-.6,2.05,2.05,0,0,1-.41-.65A2.11,2.11,0,0,1,161.2,10.86Z"/><path class="cls-4" d="M165.33,10.86a2.14,2.14,0,0,1,.14-.78,2,2,0,0,1,.4-.64A1.87,1.87,0,0,1,166.5,9a2,2,0,0,1,.8-.16,1.83,1.83,0,0,1,1,.25,1.62,1.62,0,0,1,.62.68l-.5.16a1.19,1.19,0,0,0-.46-.47,1.28,1.28,0,0,0-.65-.17,1.32,1.32,0,0,0-.56.12,1.44,1.44,0,0,0-.45.33,1.51,1.51,0,0,0-.3.49,1.81,1.81,0,0,0,0,1.25,1.59,1.59,0,0,0,.31.51,1.46,1.46,0,0,0,.46.34,1.26,1.26,0,0,0,.55.12,1.34,1.34,0,0,0,.37-.05,1.41,1.41,0,0,0,.34-.15,1.22,1.22,0,0,0,.27-.21.69.69,0,0,0,.16-.26l.5.15a1.29,1.29,0,0,1-.24.39,1.66,1.66,0,0,1-.37.31,1.83,1.83,0,0,1-.47.2,2,2,0,0,1-.54.07,1.9,1.9,0,0,1-1.41-.6,2.05,2.05,0,0,1-.41-.65A2.11,2.11,0,0,1,165.33,10.86Z"/><path class="cls-4" d="M171.44,12.91a1.9,1.9,0,0,1-1.41-.6,2.05,2.05,0,0,1-.41-.65,2.11,2.11,0,0,1-.15-.79,2.06,2.06,0,0,1,.15-.78,2,2,0,0,1,1-1.08,2,2,0,0,1,1.57,0,1.87,1.87,0,0,1,.61.44,2.07,2.07,0,0,1,.54,1.41s0,.08,0,.12a.38.38,0,0,1,0,.08H170a1.65,1.65,0,0,0,.46,1,1.38,1.38,0,0,0,.44.3,1.34,1.34,0,0,0,.54.11,1.41,1.41,0,0,0,.38-.05,1.53,1.53,0,0,0,.35-.14,1.21,1.21,0,0,0,.28-.22,1,1,0,0,0,.19-.29l.44.12a1.3,1.3,0,0,1-.26.39,1.79,1.79,0,0,1-.38.31,1.88,1.88,0,0,1-.48.2A2.07,2.07,0,0,1,171.44,12.91Zm1.44-2.24a1.57,1.57,0,0,0-.46-1,1.42,1.42,0,0,0-2,0,1.44,1.44,0,0,0-.31.45,1.71,1.71,0,0,0-.14.57Z"/><path class="cls-4" d="M176.09,9.37a1.61,1.61,0,0,0-.9.29,1.44,1.44,0,0,0-.54.74v2.44h-.51V8.91h.48v.94a2.06,2.06,0,0,1,.53-.69,1.1,1.1,0,0,1,.71-.27h.23Z"/><path class="cls-4" d="M179.57,12.91a1.54,1.54,0,0,1-.55-.09,1.28,1.28,0,0,1-.42-.26,1.17,1.17,0,0,1-.27-.38,1.1,1.1,0,0,1-.1-.46,1,1,0,0,1,.12-.49,1.13,1.13,0,0,1,.34-.38,1.65,1.65,0,0,1,.52-.24,2.46,2.46,0,0,1,.67-.09,3.56,3.56,0,0,1,.6.05,2.62,2.62,0,0,1,.55.15v-.35a1.13,1.13,0,0,0-.3-.82,1.07,1.07,0,0,0-.8-.3,1.73,1.73,0,0,0-.63.12,3,3,0,0,0-.64.35l-.18-.34a3.41,3.41,0,0,1,.74-.38,2.24,2.24,0,0,1,.75-.13,1.55,1.55,0,0,1,1.14.41,1.53,1.53,0,0,1,.42,1.14v1.77c0,.14.06.21.18.21v.45h-.2a.46.46,0,0,1-.27-.09.35.35,0,0,1-.14-.27l0-.31a1.7,1.7,0,0,1-.67.54A2,2,0,0,1,179.57,12.91Zm.13-.39a1.66,1.66,0,0,0,.67-.15,1.31,1.31,0,0,0,.53-.4.79.79,0,0,0,.09-.15.34.34,0,0,0,0-.15V11a3.09,3.09,0,0,0-.53-.15,2.9,2.9,0,0,0-.54-.05,1.61,1.61,0,0,0-.89.22.69.69,0,0,0-.34.61.82.82,0,0,0,.06.31.78.78,0,0,0,.18.27,1,1,0,0,0,.3.2A1.1,1.1,0,0,0,179.7,12.51Z"/><path class="cls-4" d="M185.95,12.83h-.51V10.64a1.94,1.94,0,0,0-.2-1,.7.7,0,0,0-.63-.32,1.3,1.3,0,0,0-.45.08,1.57,1.57,0,0,0-.42.23,1.65,1.65,0,0,0-.34.36,1.58,1.58,0,0,0-.22.45v2.4h-.51V8.91h.47V9.8a1.81,1.81,0,0,1,.3-.39,2,2,0,0,1,.39-.3,1.92,1.92,0,0,1,.46-.2,1.9,1.9,0,0,1,.51-.07,1.15,1.15,0,0,1,.55.12.94.94,0,0,1,.36.34,1.56,1.56,0,0,1,.2.53,3.75,3.75,0,0,1,.06.7Z"/><path class="cls-4" d="M188.63,12.91a1.69,1.69,0,0,1-.75-.17,2,2,0,0,1-.6-.45,2,2,0,0,1-.39-.64,2.12,2.12,0,0,1-.14-.76,2.28,2.28,0,0,1,.14-.79,2.09,2.09,0,0,1,.37-.65,1.75,1.75,0,0,1,.56-.44,1.6,1.6,0,0,1,.72-.16,1.53,1.53,0,0,1,.88.26,2,2,0,0,1,.61.63V7.34h.51v4.83c0,.14.06.21.18.21v.45l-.2,0a.44.44,0,0,1-.31-.11.34.34,0,0,1-.12-.26v-.41a1.78,1.78,0,0,1-.64.61A1.64,1.64,0,0,1,188.63,12.91Zm.11-.45a1.23,1.23,0,0,0,.41-.08,1.58,1.58,0,0,0,.4-.21,1.51,1.51,0,0,0,.32-.31.81.81,0,0,0,.17-.38V10.28a1.3,1.3,0,0,0-.22-.38,1.86,1.86,0,0,0-.33-.31,1.55,1.55,0,0,0-.39-.21,1.2,1.2,0,0,0-.41-.08,1.22,1.22,0,0,0-.58.14,1.39,1.39,0,0,0-.44.36,1.7,1.7,0,0,0-.28.51,1.73,1.73,0,0,0-.1.59,1.64,1.64,0,0,0,.42,1.1,1.5,1.5,0,0,0,.46.34A1.32,1.32,0,0,0,188.74,12.45Z"/><path class="cls-4" d="M193.36,10.86a2.14,2.14,0,0,1,.14-.78,2,2,0,0,1,.4-.64,1.87,1.87,0,0,1,.62-.43,2,2,0,0,1,.8-.16,1.83,1.83,0,0,1,1,.25,1.62,1.62,0,0,1,.62.68l-.5.16a1.19,1.19,0,0,0-.46-.47,1.28,1.28,0,0,0-.65-.17,1.32,1.32,0,0,0-.56.12,1.44,1.44,0,0,0-.45.33,1.51,1.51,0,0,0-.3.49,1.81,1.81,0,0,0,0,1.25,1.59,1.59,0,0,0,.31.51,1.46,1.46,0,0,0,.46.34,1.26,1.26,0,0,0,.55.12,1.34,1.34,0,0,0,.37-.05,1.41,1.41,0,0,0,.34-.15,1.22,1.22,0,0,0,.27-.21.69.69,0,0,0,.16-.26l.5.15a1.29,1.29,0,0,1-.24.39,1.66,1.66,0,0,1-.37.31,1.83,1.83,0,0,1-.47.2,2,2,0,0,1-.54.07,1.9,1.9,0,0,1-1.41-.6,2.05,2.05,0,0,1-.41-.65A2.11,2.11,0,0,1,193.36,10.86Z"/><path class="cls-4" d="M199.7,9.37a1.61,1.61,0,0,0-.9.29,1.44,1.44,0,0,0-.54.74v2.44h-.51V8.91h.48v.94a2.06,2.06,0,0,1,.53-.69,1.1,1.1,0,0,1,.71-.27h.23Z"/><path class="cls-4" d="M200.39,8.09V7.34h.51v.75Zm0,4.74V8.91h.51v3.92Z"/><path class="cls-4" d="M201.74,10.86a2.14,2.14,0,0,1,.14-.78,2,2,0,0,1,.4-.64,1.87,1.87,0,0,1,.62-.43,2,2,0,0,1,.8-.16,1.83,1.83,0,0,1,1,.25,1.62,1.62,0,0,1,.62.68l-.5.16a1.19,1.19,0,0,0-.46-.47,1.28,1.28,0,0,0-.65-.17,1.32,1.32,0,0,0-.56.12,1.44,1.44,0,0,0-.45.33,1.51,1.51,0,0,0-.3.49,1.81,1.81,0,0,0,0,1.25,1.59,1.59,0,0,0,.31.51,1.46,1.46,0,0,0,.46.34,1.26,1.26,0,0,0,.55.12,1.34,1.34,0,0,0,.37-.05,1.41,1.41,0,0,0,.34-.15,1.22,1.22,0,0,0,.27-.21.69.69,0,0,0,.16-.26l.5.15a1.29,1.29,0,0,1-.24.39,1.66,1.66,0,0,1-.37.31,1.83,1.83,0,0,1-.47.2,2,2,0,0,1-.54.07,1.9,1.9,0,0,1-1.41-.6,2.05,2.05,0,0,1-.41-.65A2.11,2.11,0,0,1,201.74,10.86Z"/><path class="cls-4" d="M208.93,12.83l-1.44-2-.84.78v1.23h-.51V7.34h.51v3.73l2.2-2.15h.58l-1.6,1.6,1.66,2.31Z"/><path class="cls-4" d="M211.81,12.91a1.9,1.9,0,0,1-1.41-.6,2.05,2.05,0,0,1-.41-.65,2.11,2.11,0,0,1-.15-.79,2.06,2.06,0,0,1,.15-.78A2,2,0,0,1,211,9a2,2,0,0,1,1.57,0,1.87,1.87,0,0,1,.61.44,2.07,2.07,0,0,1,.54,1.41s0,.08,0,.12a.38.38,0,0,1,0,.08h-3.35a1.65,1.65,0,0,0,.46,1,1.38,1.38,0,0,0,.44.3,1.34,1.34,0,0,0,.54.11,1.41,1.41,0,0,0,.38-.05,1.53,1.53,0,0,0,.35-.14,1.21,1.21,0,0,0,.28-.22,1,1,0,0,0,.19-.29l.44.12a1.3,1.3,0,0,1-.26.39,1.79,1.79,0,0,1-.38.31,1.88,1.88,0,0,1-.48.2A2.07,2.07,0,0,1,211.81,12.91Zm1.44-2.24a1.57,1.57,0,0,0-.46-1,1.42,1.42,0,0,0-2,0,1.44,1.44,0,0,0-.31.45,1.71,1.71,0,0,0-.14.57Z"/><path class="cls-4" d="M216.36,12.64l-.13.06-.2.08-.26.07a1.46,1.46,0,0,1-.3,0,1.09,1.09,0,0,1-.32,0,.74.74,0,0,1-.26-.14.68.68,0,0,1-.18-.24.77.77,0,0,1-.07-.33V9.32h-.54V8.91h.54V7.59h.51V8.91h.9v.41h-.9V12a.41.41,0,0,0,.15.32.53.53,0,0,0,.32.1,1,1,0,0,0,.38-.07l.21-.1Z"/><path class="cls-4" d="M217.58,11.31a1.7,1.7,0,0,1,.15-.79,1.24,1.24,0,0,1,.48-.49l.33-.18a1.78,1.78,0,0,0,.34-.23,1.24,1.24,0,0,0,.27-.32.92.92,0,0,0,.11-.47,1,1,0,0,0-.09-.43.93.93,0,0,0-.23-.3.94.94,0,0,0-.33-.18,1.22,1.22,0,0,0-.38-.06,1.25,1.25,0,0,0-.73.22,1.48,1.48,0,0,0-.48.55l-.35-.23a1.54,1.54,0,0,1,.27-.41,1.68,1.68,0,0,1,.37-.3,1.74,1.74,0,0,1,.44-.19,1.84,1.84,0,0,1,.49-.06,1.72,1.72,0,0,1,.54.09,1.35,1.35,0,0,1,.47.27,1.33,1.33,0,0,1,.33.45,1.5,1.5,0,0,1,.12.63,1.32,1.32,0,0,1-.09.51,1.18,1.18,0,0,1-.23.36,1.51,1.51,0,0,1-.33.26l-.37.21-.26.15a.93.93,0,0,0-.22.2.94.94,0,0,0-.15.3,1.54,1.54,0,0,0-.06.45Zm0,1.52V12H218v.8Z"/></g></g></svg>