<svg xmlns="http://www.w3.org/2000/svg" viewBox="0 0 171.6 20.63"><defs><style>.cls-1{opacity:0.2;}.cls-2{fill:#3e4eaa;}.cls-3{fill:#0e174a;}.cls-4{fill:#ffbe03;}</style></defs><title>Asset 75</title><g id="Layer_2" data-name="Layer 2"><g id="Layer_1-2" data-name="Layer 1"><g class="cls-1"><path class="cls-2" d="M168.86,20.63h-158c-.45,0-.81-.54-.81-1.2V15.26c0-.66.36-1.2.81-1.2h158c.44,0,.81.53.81,1.2v4.17C169.67,20.09,169.3,20.63,168.86,20.63Z"/></g><rect class="cls-3" x="10" y="2.95" width="161.6" height="14.41" rx="2.79" ry="2.79"/><rect class="cls-4" x="2.92" y="2.92" width="14.08" height="14.08" transform="translate(-4.12 9.95) rotate(-45)"/><path class="cls-4" d="M21.73,13.88a1.07,1.07,0,0,0,.72-.28c.18-.21.25-.5.25-1.37v-3h.66v3.3a2,2,0,0,1-.44,1.5,1.68,1.68,0,0,1-1.13.41Zm1.71-5.72a.39.39,0,0,1-.41.41.4.4,0,0,1-.41-.41A.41.41,0,0,1,23,7.75.39.39,0,0,1,23.44,8.17Z"/><path class="cls-4" d="M27.74,11a1.78,1.78,0,0,1-1.81,1.93A1.73,1.73,0,0,1,24.18,11,1.78,1.78,0,0,1,26,9.11,1.72,1.72,0,0,1,27.74,11Zm-2.89,0c0,.8.46,1.4,1.11,1.4s1.11-.59,1.11-1.41c0-.62-.31-1.4-1.09-1.4S24.85,10.33,24.85,11Z"/><path class="cls-4" d="M29.31,8.17a.41.41,0,0,1-.82,0,.4.4,0,0,1,.41-.41A.39.39,0,0,1,29.31,8.17Zm-.74,4.66V9.19h.66v3.64Z"/><path class="cls-4" d="M30.33,10.18c0-.38,0-.68,0-1h.59l0,.6h0a1.34,1.34,0,0,1,1.2-.68c.5,0,1.29.3,1.29,1.55v2.17h-.66v-2.1c0-.59-.22-1.08-.84-1.08a1,1,0,0,0-.93,1v2.19h-.66Z"/><path class="cls-4" d="M39.39,11a1.78,1.78,0,0,1-1.81,1.93A1.73,1.73,0,0,1,35.84,11a1.78,1.78,0,0,1,1.81-1.93A1.72,1.72,0,0,1,39.39,11Zm-2.89,0c0,.8.46,1.4,1.11,1.4s1.11-.59,1.11-1.41c0-.62-.31-1.4-1.09-1.4S36.51,10.33,36.51,11Z"/><path class="cls-4" d="M43.27,11.84c0,.38,0,.71,0,1h-.59l0-.59h0a1.37,1.37,0,0,1-1.2.68c-.57,0-1.26-.32-1.26-1.59V9.19h.66v2c0,.69.21,1.16.81,1.16a.93.93,0,0,0,.93-.94V9.19h.66Z"/><path class="cls-4" d="M44.37,10.33c0-.43,0-.8,0-1.14h.58l0,.71h0a1.09,1.09,0,0,1,1-.8l.19,0v.62l-.23,0a.93.93,0,0,0-.89.85,1.84,1.84,0,0,0,0,.31v1.94h-.65Z"/><path class="cls-4" d="M48.42,10.38c0-.47,0-.84,0-1.19H49l0,.62h0a1.43,1.43,0,0,1,1.29-.71A1.65,1.65,0,0,1,51.87,11a1.72,1.72,0,0,1-1.66,2,1.28,1.28,0,0,1-1.12-.57h0v2h-.65Zm.65,1a1.49,1.49,0,0,0,0,.27,1,1,0,0,0,1,.77c.7,0,1.11-.57,1.11-1.41s-.38-1.35-1.08-1.35a1.06,1.06,0,0,0-1,.82,1.07,1.07,0,0,0,0,.27Z"/><path class="cls-4" d="M55.74,11.84c0,.38,0,.71,0,1h-.59l0-.59h0a1.37,1.37,0,0,1-1.2.68c-.57,0-1.26-.32-1.26-1.59V9.19h.66v2c0,.69.21,1.16.81,1.16a.93.93,0,0,0,.93-.94V9.19h.66Z"/><path class="cls-4" d="M56.81,12.83c0-.25,0-.62,0-.94V7.49h.65V9.78h0a1.36,1.36,0,0,1,1.24-.67A1.63,1.63,0,0,1,60.28,11a1.73,1.73,0,0,1-1.63,1.95,1.3,1.3,0,0,1-1.22-.68h0l0,.6Zm.68-1.46a1.23,1.23,0,0,0,0,.24,1,1,0,0,0,1,.77c.69,0,1.11-.56,1.11-1.4s-.38-1.35-1.08-1.35a1.06,1.06,0,0,0-1,.81,1.3,1.3,0,0,0,0,.27Z"/><path class="cls-4" d="M61.12,7.49h.66v5.34h-.66Z"/><path class="cls-4" d="M63.63,8.17a.41.41,0,0,1-.82,0,.4.4,0,0,1,.41-.41A.39.39,0,0,1,63.63,8.17Zm-.74,4.66V9.19h.66v3.64Z"/><path class="cls-4" d="M67.24,12.7a2.44,2.44,0,0,1-1,.21A1.73,1.73,0,0,1,64.39,11a1.85,1.85,0,0,1,2-1.93,2.22,2.22,0,0,1,.92.19l-.15.51a1.53,1.53,0,0,0-.77-.17A1.26,1.26,0,0,0,65.06,11a1.25,1.25,0,0,0,1.26,1.36,1.88,1.88,0,0,0,.81-.18Z"/><path class="cls-4" d="M69.61,7.49h.66v5.34h-.66Z"/><path class="cls-4" d="M71.75,11.13A1.17,1.17,0,0,0,73,12.39a2.39,2.39,0,0,0,1-.19l.11.47a3,3,0,0,1-1.21.23,1.69,1.69,0,0,1-1.79-1.84,1.77,1.77,0,0,1,1.71-2,1.54,1.54,0,0,1,1.5,1.72,2.53,2.53,0,0,1,0,.31Zm1.94-.47a.94.94,0,0,0-.92-1.08,1.1,1.1,0,0,0-1,1.08Z"/><path class="cls-4" d="M77.17,12.83l-.05-.46h0a1.36,1.36,0,0,1-1.11.54,1,1,0,0,1-1.11-1c0-.88.78-1.36,2.19-1.35v-.08a.75.75,0,0,0-.83-.84,1.81,1.81,0,0,0-.95.27l-.15-.44a2.26,2.26,0,0,1,1.2-.32c1.11,0,1.38.76,1.38,1.49V12a5.15,5.15,0,0,0,.06.87ZM77.07,11c-.72,0-1.54.11-1.54.82a.59.59,0,0,0,.62.63.91.91,0,0,0,.88-.61.69.69,0,0,0,0-.21Z"/><path class="cls-4" d="M81.91,9.19c0,.26,0,.56,0,1V12.3A2.09,2.09,0,0,1,81.36,14,1.93,1.93,0,0,1,80,14.4a2.35,2.35,0,0,1-1.21-.3l.17-.5a2.05,2.05,0,0,0,1.07.29c.68,0,1.17-.35,1.17-1.27v-.41h0a1.3,1.3,0,0,1-1.16.61A1.63,1.63,0,0,1,78.51,11a1.75,1.75,0,0,1,1.64-1.93,1.21,1.21,0,0,1,1.14.63h0l0-.55Zm-.68,1.44a.94.94,0,0,0,0-.3,1,1,0,0,0-.93-.7c-.63,0-1.08.53-1.08,1.38s.36,1.31,1.08,1.31a1,1,0,0,0,.92-.68,1.15,1.15,0,0,0,.05-.35Z"/><path class="cls-4" d="M86,11.84c0,.38,0,.71,0,1h-.59l0-.59h0a1.37,1.37,0,0,1-1.2.68c-.57,0-1.26-.32-1.26-1.59V9.19h.66v2c0,.69.21,1.16.81,1.16a.93.93,0,0,0,.93-.94V9.19H86Z"/><path class="cls-4" d="M87.49,11.13a1.17,1.17,0,0,0,1.25,1.26,2.39,2.39,0,0,0,1-.19l.11.47a3,3,0,0,1-1.21.23,1.69,1.69,0,0,1-1.79-1.84,1.77,1.77,0,0,1,1.71-2,1.54,1.54,0,0,1,1.5,1.72,2.53,2.53,0,0,1,0,.31Zm1.94-.47a.94.94,0,0,0-.92-1.08,1.1,1.1,0,0,0-1,1.08Z"/><path class="cls-4" d="M90.79,12.15a1.73,1.73,0,0,0,.87.26c.48,0,.71-.24.71-.54s-.19-.49-.68-.67c-.65-.23-1-.59-1-1A1.12,1.12,0,0,1,92,9.11a1.82,1.82,0,0,1,.9.23l-.17.48A1.42,1.42,0,0,0,92,9.6c-.39,0-.61.23-.61.5s.22.44.69.62c.63.24,1,.56,1,1.1s-.5,1.09-1.36,1.09a2.08,2.08,0,0,1-1-.25Z"/><path class="cls-4" d="M95.52,12.83V9.69H95v-.5h.51V9a1.72,1.72,0,0,1,.42-1.27,1.27,1.27,0,0,1,.89-.34,1.53,1.53,0,0,1,.56.11L97.31,8a1,1,0,0,0-.42-.08c-.56,0-.71.5-.71,1.05v.2h.88v.5h-.88v3.14Z"/><path class="cls-4" d="M100.85,11A1.78,1.78,0,0,1,99,12.91,1.73,1.73,0,0,1,97.29,11a1.78,1.78,0,0,1,1.81-1.93A1.72,1.72,0,0,1,100.85,11ZM98,11c0,.8.46,1.4,1.11,1.4s1.11-.59,1.11-1.41c0-.62-.31-1.4-1.09-1.4S98,10.33,98,11Z"/><path class="cls-4" d="M101.68,10.33c0-.43,0-.8,0-1.14h.58l0,.71h0a1.09,1.09,0,0,1,1-.8l.19,0v.62l-.23,0a.93.93,0,0,0-.89.85,1.84,1.84,0,0,0,0,.31v1.94h-.65Z"/><path class="cls-4" d="M106.1,11.13a1.17,1.17,0,0,0,1.25,1.26,2.39,2.39,0,0,0,1-.19l.11.47a3,3,0,0,1-1.21.23,1.69,1.69,0,0,1-1.79-1.84,1.77,1.77,0,0,1,1.71-2,1.54,1.54,0,0,1,1.5,1.72,2.53,2.53,0,0,1,0,.31Zm1.94-.47a.94.94,0,0,0-.92-1.08,1.1,1.1,0,0,0-1,1.08Z"/><path class="cls-4" d="M111.51,12.83l-.05-.46h0a1.35,1.35,0,0,1-1.11.54,1,1,0,0,1-1.11-1c0-.88.78-1.36,2.19-1.35v-.08a.75.75,0,0,0-.83-.84,1.81,1.81,0,0,0-.95.27l-.15-.44a2.26,2.26,0,0,1,1.2-.32c1.11,0,1.38.76,1.38,1.49V12a5.15,5.15,0,0,0,.06.87Zm-.1-1.86c-.72,0-1.54.11-1.54.82a.59.59,0,0,0,.62.63.91.91,0,0,0,.88-.61.69.69,0,0,0,0-.21Z"/><path class="cls-4" d="M115.72,12.7a2.44,2.44,0,0,1-1,.21A1.73,1.73,0,0,1,112.86,11a1.85,1.85,0,0,1,2-1.93,2.22,2.22,0,0,1,.92.19l-.15.51a1.54,1.54,0,0,0-.77-.17A1.26,1.26,0,0,0,113.53,11a1.25,1.25,0,0,0,1.26,1.36,1.88,1.88,0,0,0,.81-.18Z"/><path class="cls-4" d="M116.49,7.49h.66V9.76h0a1.23,1.23,0,0,1,.47-.47,1.36,1.36,0,0,1,.68-.19c.49,0,1.27.3,1.27,1.56v2.17h-.66V10.74c0-.59-.22-1.08-.84-1.08a1,1,0,0,0-.89.66.8.8,0,0,0,0,.32v2.2h-.66Z"/><path class="cls-4" d="M125.55,11a1.78,1.78,0,0,1-1.81,1.93A1.73,1.73,0,0,1,122,11a1.78,1.78,0,0,1,1.81-1.93A1.72,1.72,0,0,1,125.55,11Zm-2.89,0c0,.8.46,1.4,1.11,1.4s1.11-.59,1.11-1.41c0-.62-.31-1.4-1.09-1.4S122.66,10.33,122.66,11Z"/><path class="cls-4" d="M126.45,12.83V9.69h-.51v-.5h.51V9a1.72,1.72,0,0,1,.42-1.27,1.27,1.27,0,0,1,.89-.34,1.53,1.53,0,0,1,.56.11l-.09.51a1,1,0,0,0-.42-.08c-.56,0-.71.5-.71,1.05v.2H128v.5h-.88v3.14Z"/><path class="cls-4" d="M131,8.14v1h.95v.5H131v2c0,.45.13.71.5.71a1.45,1.45,0,0,0,.38,0l0,.5a1.62,1.62,0,0,1-.59.09.92.92,0,0,1-.71-.28,1.35,1.35,0,0,1-.26-.95v-2h-.56v-.5h.56V8.32Z"/><path class="cls-4" d="M132.66,7.49h.66V9.76h0a1.23,1.23,0,0,1,.47-.47,1.36,1.36,0,0,1,.68-.19c.49,0,1.27.3,1.27,1.56v2.17h-.66V10.74c0-.59-.22-1.08-.84-1.08a1,1,0,0,0-.89.66.8.8,0,0,0,0,.32v2.2h-.66Z"/><path class="cls-4" d="M137.2,11.13a1.17,1.17,0,0,0,1.25,1.26,2.39,2.39,0,0,0,1-.19l.11.47a3,3,0,0,1-1.21.23,1.69,1.69,0,0,1-1.79-1.84,1.77,1.77,0,0,1,1.71-2,1.54,1.54,0,0,1,1.5,1.72,2.53,2.53,0,0,1,0,.31Zm1.94-.47a.94.94,0,0,0-.92-1.08,1.1,1.1,0,0,0-1,1.08Z"/><path class="cls-4" d="M140.51,12.15a1.73,1.73,0,0,0,.87.26c.48,0,.71-.24.71-.54s-.19-.49-.68-.67c-.65-.23-1-.59-1-1a1.12,1.12,0,0,1,1.26-1.07,1.82,1.82,0,0,1,.9.23l-.17.48a1.42,1.42,0,0,0-.74-.21c-.39,0-.61.23-.61.5s.22.44.69.62c.63.24,1,.56,1,1.1s-.5,1.09-1.36,1.09a2.08,2.08,0,0,1-1-.25Z"/><path class="cls-4" d="M143.94,11.13a1.17,1.17,0,0,0,1.25,1.26,2.39,2.39,0,0,0,1-.19l.11.47a3,3,0,0,1-1.21.23,1.69,1.69,0,0,1-1.79-1.84,1.77,1.77,0,0,1,1.71-2,1.54,1.54,0,0,1,1.5,1.72,2.53,2.53,0,0,1,0,.31Zm1.94-.47A.94.94,0,0,0,145,9.58a1.1,1.1,0,0,0-1,1.08Z"/><path class="cls-4" d="M148.84,12.15a1.73,1.73,0,0,0,.87.26c.48,0,.71-.24.71-.54s-.19-.49-.68-.67c-.65-.23-1-.59-1-1A1.12,1.12,0,0,1,150,9.11a1.82,1.82,0,0,1,.9.23l-.17.48A1.42,1.42,0,0,0,150,9.6c-.39,0-.61.23-.61.5s.22.44.69.62c.63.24,1,.56,1,1.1s-.5,1.09-1.36,1.09a2.08,2.08,0,0,1-1-.25Z"/><path class="cls-4" d="M151.91,10.38c0-.47,0-.84,0-1.19h.59l0,.62h0a1.43,1.43,0,0,1,1.29-.71A1.65,1.65,0,0,1,155.35,11a1.72,1.72,0,0,1-1.66,2,1.28,1.28,0,0,1-1.12-.57h0v2h-.65Zm.65,1a1.49,1.49,0,0,0,0,.27,1,1,0,0,0,1,.77c.7,0,1.11-.57,1.11-1.41s-.38-1.35-1.08-1.35a1.06,1.06,0,0,0-1,.82,1.07,1.07,0,0,0,0,.27Z"/><path class="cls-4" d="M159.48,11a1.78,1.78,0,0,1-1.81,1.93A1.73,1.73,0,0,1,155.92,11a1.78,1.78,0,0,1,1.81-1.93A1.72,1.72,0,0,1,159.48,11Zm-2.89,0c0,.8.46,1.4,1.11,1.4s1.11-.59,1.11-1.41c0-.62-.31-1.4-1.09-1.4S156.59,10.33,156.59,11Z"/><path class="cls-4" d="M160.31,10.33c0-.43,0-.8,0-1.14h.58l0,.71h0a1.09,1.09,0,0,1,1-.8l.19,0v.62l-.23,0a.93.93,0,0,0-.89.85,1.84,1.84,0,0,0,0,.31v1.94h-.65Z"/><path class="cls-4" d="M163.75,8.14v1h.95v.5h-.95v2c0,.45.13.71.5.71a1.45,1.45,0,0,0,.38,0l0,.5a1.62,1.62,0,0,1-.59.09.92.92,0,0,1-.71-.28,1.35,1.35,0,0,1-.26-.95v-2h-.56v-.5h.56V8.32Z"/><path class="cls-4" d="M165.35,12.15a1.73,1.73,0,0,0,.87.26c.48,0,.71-.24.71-.54s-.19-.49-.68-.67c-.65-.23-1-.59-1-1a1.12,1.12,0,0,1,1.26-1.07,1.82,1.82,0,0,1,.9.23l-.17.48a1.42,1.42,0,0,0-.74-.21c-.39,0-.61.23-.61.5s.22.44.69.62c.63.24,1,.56,1,1.1s-.5,1.09-1.36,1.09a2.08,2.08,0,0,1-1-.25Z"/></g></g></svg>