<svg xmlns="http://www.w3.org/2000/svg" viewBox="0 0 217.18 20.63"><defs><style>.cls-1{opacity:0.2;}.cls-2{fill:#3e4eaa;}.cls-3{fill:#0e174a;}.cls-4{fill:#ffbe03;}</style></defs><title>Asset 81</title><g id="Layer_2" data-name="Layer 2"><g id="Layer_1-2" data-name="Layer 1"><g class="cls-1"><path class="cls-2" d="M213.66,20.63H11.15a1.13,1.13,0,0,1-1-1.2V15.26a1.13,1.13,0,0,1,1-1.2h202.5a1.13,1.13,0,0,1,1,1.2v4.17A1.13,1.13,0,0,1,213.66,20.63Z"/></g><rect class="cls-3" x="10" y="2.95" width="207.19" height="14.41" rx="2.79" ry="2.79"/><rect class="cls-4" x="2.92" y="2.92" width="14.08" height="14.08" transform="translate(-4.12 9.95) rotate(-45)"/><path class="cls-4" d="M23.42,8.14v1h.95v.5h-.95v2c0,.45.13.71.5.71a1.48,1.48,0,0,0,.38,0l0,.5a1.62,1.62,0,0,1-.59.09.92.92,0,0,1-.71-.28,1.35,1.35,0,0,1-.26-.95v-2h-.56v-.5h.56V8.32Z"/><path class="cls-4" d="M27.13,12.83l-.05-.46h0a1.35,1.35,0,0,1-1.11.54,1,1,0,0,1-1.11-1c0-.88.78-1.36,2.19-1.35v-.08a.75.75,0,0,0-.83-.84,1.81,1.81,0,0,0-.95.27l-.15-.44a2.26,2.26,0,0,1,1.2-.32c1.11,0,1.38.76,1.38,1.49V12a5.15,5.15,0,0,0,.06.87ZM27,11c-.72,0-1.54.11-1.54.82a.59.59,0,0,0,.62.63.91.91,0,0,0,.88-.61.69.69,0,0,0,0-.21Z"/><path class="cls-4" d="M28.73,7.49h.66v5.34h-.66Z"/><path class="cls-4" d="M31.16,10.86h0c.09-.13.22-.29.32-.41l1.07-1.26h.8L32,10.69l1.6,2.14h-.81L31.5,11.09l-.34.38v1.37h-.65V7.49h.65Z"/><path class="cls-4" d="M35.89,9.19,36.37,11c.11.41.2.78.27,1.16h0c.08-.37.2-.76.32-1.15l.59-1.86h.56L38.7,11c.14.44.24.82.32,1.19h0A11,11,0,0,1,39.33,11l.52-1.83h.65l-1.17,3.64h-.6l-.56-1.74a12,12,0,0,1-.32-1.2h0a10.72,10.72,0,0,1-.33,1.2l-.59,1.73h-.6l-1.1-3.64Z"/><path class="cls-4" d="M41.9,8.17a.41.41,0,0,1-.82,0,.4.4,0,0,1,.41-.41A.39.39,0,0,1,41.9,8.17Zm-.74,4.66V9.19h.66v3.64Z"/><path class="cls-4" d="M43.71,8.14v1h.95v.5h-.95v2c0,.45.13.71.5.71a1.48,1.48,0,0,0,.38,0l0,.5a1.62,1.62,0,0,1-.59.09.92.92,0,0,1-.71-.28,1.35,1.35,0,0,1-.26-.95v-2H42.5v-.5h.56V8.32Z"/><path class="cls-4" d="M45.41,7.49h.66V9.76h0a1.23,1.23,0,0,1,.47-.47,1.36,1.36,0,0,1,.68-.19c.49,0,1.27.3,1.27,1.56v2.17h-.66V10.74c0-.59-.22-1.08-.84-1.08a1,1,0,0,0-.89.66.81.81,0,0,0,0,.32v2.2h-.66Z"/><path class="cls-4" d="M54.47,11a1.78,1.78,0,0,1-1.81,1.93A1.73,1.73,0,0,1,50.91,11a1.78,1.78,0,0,1,1.81-1.93A1.72,1.72,0,0,1,54.47,11Zm-2.89,0c0,.8.46,1.4,1.11,1.4s1.11-.59,1.11-1.41c0-.62-.31-1.4-1.09-1.4S51.58,10.33,51.58,11Z"/><path class="cls-4" d="M56.1,8.14v1H57v.5H56.1v2c0,.45.13.71.5.71a1.48,1.48,0,0,0,.38,0l0,.5a1.62,1.62,0,0,1-.59.09.92.92,0,0,1-.71-.28,1.35,1.35,0,0,1-.26-.95v-2h-.56v-.5h.56V8.32Z"/><path class="cls-4" d="M57.79,7.49h.66V9.76h0a1.23,1.23,0,0,1,.47-.47,1.36,1.36,0,0,1,.68-.19c.49,0,1.27.3,1.27,1.56v2.17h-.66V10.74c0-.59-.22-1.08-.84-1.08a1,1,0,0,0-.89.66.81.81,0,0,0,0,.32v2.2h-.66Z"/><path class="cls-4" d="M62.33,11.13a1.17,1.17,0,0,0,1.25,1.26,2.41,2.41,0,0,0,1-.19l.11.47a3,3,0,0,1-1.21.23,1.69,1.69,0,0,1-1.79-1.84,1.77,1.77,0,0,1,1.71-2,1.54,1.54,0,0,1,1.5,1.71,2.53,2.53,0,0,1,0,.31Zm1.94-.47a.94.94,0,0,0-.92-1.08,1.1,1.1,0,0,0-1,1.08Z"/><path class="cls-4" d="M65.72,10.33c0-.43,0-.8,0-1.14h.58l0,.71h0a1.09,1.09,0,0,1,1-.8l.19,0v.62l-.23,0a.93.93,0,0,0-.89.85,1.85,1.85,0,0,0,0,.31v1.94h-.65Z"/><path class="cls-4" d="M72.37,12.69a2.43,2.43,0,0,1-1,.21A1.73,1.73,0,0,1,69.51,11a1.85,1.85,0,0,1,2-1.93,2.22,2.22,0,0,1,.92.19l-.15.51a1.54,1.54,0,0,0-.77-.17A1.26,1.26,0,0,0,70.18,11a1.25,1.25,0,0,0,1.26,1.36,1.88,1.88,0,0,0,.81-.18Z"/><path class="cls-4" d="M76.39,11a1.78,1.78,0,0,1-1.81,1.93A1.73,1.73,0,0,1,72.84,11a1.78,1.78,0,0,1,1.81-1.93A1.72,1.72,0,0,1,76.39,11Zm-2.89,0c0,.8.46,1.4,1.11,1.4s1.11-.59,1.11-1.41c0-.62-.31-1.4-1.09-1.4S73.51,10.33,73.51,11Z"/><path class="cls-4" d="M77.23,10.18c0-.38,0-.68,0-1h.58l0,.59h0A1.25,1.25,0,0,1,79,9.11a1.08,1.08,0,0,1,1,.73h0a1.49,1.49,0,0,1,.41-.47,1.24,1.24,0,0,1,.81-.26c.48,0,1.2.32,1.2,1.58v2.14h-.65V10.77c0-.7-.26-1.12-.79-1.12a.86.86,0,0,0-.78.6,1.08,1.08,0,0,0-.05.33v2.25h-.65V10.65c0-.58-.26-1-.76-1a.91.91,0,0,0-.82.66.92.92,0,0,0-.05.32v2.2h-.65Z"/><path class="cls-4" d="M83.5,10.38c0-.47,0-.84,0-1.19h.59l0,.62h0a1.43,1.43,0,0,1,1.29-.71A1.65,1.65,0,0,1,86.94,11a1.72,1.72,0,0,1-1.66,2,1.28,1.28,0,0,1-1.12-.57h0v2H83.5Zm.65,1a1.48,1.48,0,0,0,0,.27,1,1,0,0,0,1,.77c.7,0,1.11-.57,1.11-1.41s-.38-1.35-1.08-1.35a1.06,1.06,0,0,0-1,.82,1.08,1.08,0,0,0,0,.27Z"/><path class="cls-4" d="M88.14,11.13a1.17,1.17,0,0,0,1.25,1.26,2.41,2.41,0,0,0,1-.19l.11.47a3,3,0,0,1-1.21.23,1.69,1.69,0,0,1-1.79-1.84,1.77,1.77,0,0,1,1.71-2,1.54,1.54,0,0,1,1.5,1.71,2.53,2.53,0,0,1,0,.31Zm1.94-.47a.94.94,0,0,0-.92-1.08,1.1,1.1,0,0,0-1,1.08Z"/><path class="cls-4" d="M92.34,8.14v1h.95v.5h-.95v2c0,.45.13.71.5.71a1.48,1.48,0,0,0,.38,0l0,.5a1.62,1.62,0,0,1-.59.09.92.92,0,0,1-.71-.28,1.35,1.35,0,0,1-.26-.95v-2h-.56v-.5h.56V8.32Z"/><path class="cls-4" d="M94.76,8.17a.41.41,0,0,1-.82,0,.4.4,0,0,1,.41-.41A.39.39,0,0,1,94.76,8.17ZM94,12.83V9.19h.66v3.64Z"/><path class="cls-4" d="M96.58,8.14v1h.95v.5h-.95v2c0,.45.13.71.5.71a1.48,1.48,0,0,0,.38,0l0,.5a1.62,1.62,0,0,1-.59.09.92.92,0,0,1-.71-.28,1.35,1.35,0,0,1-.26-.95v-2h-.56v-.5h.56V8.32Z"/><path class="cls-4" d="M101.52,11a1.78,1.78,0,0,1-1.81,1.93A1.73,1.73,0,0,1,98,11a1.78,1.78,0,0,1,1.81-1.93A1.72,1.72,0,0,1,101.52,11Zm-2.89,0c0,.8.46,1.4,1.11,1.4s1.11-.59,1.11-1.41c0-.62-.31-1.4-1.09-1.4S98.63,10.33,98.63,11Z"/><path class="cls-4" d="M102.36,10.33c0-.43,0-.8,0-1.14h.58l0,.71h0a1.09,1.09,0,0,1,1-.8l.19,0v.62l-.23,0a.93.93,0,0,0-.89.85,1.85,1.85,0,0,0,0,.31v1.94h-.65Z"/><path class="cls-4" d="M104.72,12.15a1.73,1.73,0,0,0,.87.26c.48,0,.71-.24.71-.54s-.19-.49-.68-.67c-.65-.23-1-.59-1-1a1.12,1.12,0,0,1,1.26-1.07,1.82,1.82,0,0,1,.9.23l-.17.48a1.42,1.42,0,0,0-.74-.21c-.39,0-.61.23-.61.5s.22.44.69.62c.63.24,1,.56,1,1.1s-.5,1.09-1.36,1.09a2.08,2.08,0,0,1-1-.25Z"/><path class="cls-4" d="M112.43,11.84c0,.38,0,.71,0,1h-.59l0-.59h0a1.37,1.37,0,0,1-1.2.68c-.57,0-1.26-.32-1.26-1.59V9.19H110v2c0,.69.21,1.16.81,1.16a1,1,0,0,0,.87-.6,1,1,0,0,0,.06-.34V9.19h.66Z"/><path class="cls-4" d="M113.44,12.15a1.73,1.73,0,0,0,.87.26c.48,0,.71-.24.71-.54s-.19-.49-.68-.67c-.65-.23-1-.59-1-1a1.12,1.12,0,0,1,1.26-1.07,1.82,1.82,0,0,1,.9.23l-.17.48a1.42,1.42,0,0,0-.74-.21c-.39,0-.61.23-.61.5s.22.44.69.62c.63.24,1,.56,1,1.1s-.5,1.09-1.36,1.09a2.08,2.08,0,0,1-1-.25Z"/><path class="cls-4" d="M117.24,8.17a.41.41,0,0,1-.82,0,.4.4,0,0,1,.41-.41A.39.39,0,0,1,117.24,8.17Zm-.74,4.66V9.19h.66v3.64Z"/><path class="cls-4" d="M118.26,10.18c0-.38,0-.68,0-1h.59l0,.6h0a1.34,1.34,0,0,1,1.2-.68c.5,0,1.29.3,1.29,1.55v2.17h-.66v-2.1c0-.59-.22-1.08-.84-1.08a1,1,0,0,0-.93,1v2.19h-.66Z"/><path class="cls-4" d="M125.57,9.19c0,.26,0,.56,0,1V12.3A2.09,2.09,0,0,1,125,14a1.93,1.93,0,0,1-1.32.44,2.35,2.35,0,0,1-1.21-.3l.17-.5a2.06,2.06,0,0,0,1.07.29c.68,0,1.17-.35,1.17-1.27v-.41h0a1.3,1.3,0,0,1-1.16.61A1.63,1.63,0,0,1,122.17,11a1.75,1.75,0,0,1,1.64-1.93,1.21,1.21,0,0,1,1.14.63h0l0-.55Zm-.68,1.44a.93.93,0,0,0,0-.3,1,1,0,0,0-.93-.7c-.63,0-1.08.53-1.08,1.38s.36,1.31,1.08,1.31a1,1,0,0,0,.92-.68,1.15,1.15,0,0,0,.05-.35Z"/><path class="cls-4" d="M131.53,11a1.78,1.78,0,0,1-1.81,1.93A1.73,1.73,0,0,1,128,11a1.78,1.78,0,0,1,1.81-1.93A1.72,1.72,0,0,1,131.53,11Zm-2.89,0c0,.8.46,1.4,1.11,1.4s1.11-.59,1.11-1.41c0-.62-.31-1.4-1.09-1.4S128.64,10.33,128.64,11Z"/><path class="cls-4" d="M135.4,11.84c0,.38,0,.71,0,1h-.59l0-.59h0a1.37,1.37,0,0,1-1.2.68c-.57,0-1.26-.32-1.26-1.59V9.19H133v2c0,.69.21,1.16.81,1.16a1,1,0,0,0,.87-.6,1,1,0,0,0,.06-.34V9.19h.66Z"/><path class="cls-4" d="M136.5,10.33c0-.43,0-.8,0-1.14H137l0,.71h0a1.09,1.09,0,0,1,1-.8l.19,0v.62l-.23,0a.93.93,0,0,0-.89.85,1.85,1.85,0,0,0,0,.31v1.94h-.65Z"/><path class="cls-4" d="M141.29,8.17a.41.41,0,0,1-.82,0,.4.4,0,0,1,.41-.41A.39.39,0,0,1,141.29,8.17Zm-.74,4.66V9.19h.66v3.64Z"/><path class="cls-4" d="M142.31,10.18c0-.38,0-.68,0-1h.59l0,.6h0a1.34,1.34,0,0,1,1.2-.68c.5,0,1.29.3,1.29,1.55v2.17h-.66v-2.1c0-.59-.22-1.08-.84-1.08a1,1,0,0,0-.93,1v2.19h-.66Z"/><path class="cls-4" d="M147.25,8.14v1h.95v.5h-.95v2c0,.45.13.71.5.71a1.48,1.48,0,0,0,.38,0l0,.5a1.62,1.62,0,0,1-.59.09.92.92,0,0,1-.71-.28,1.35,1.35,0,0,1-.26-.95v-2H146v-.5h.56V8.32Z"/><path class="cls-4" d="M149.26,11.13a1.17,1.17,0,0,0,1.25,1.26,2.41,2.41,0,0,0,1-.19l.11.47a3,3,0,0,1-1.21.23,1.69,1.69,0,0,1-1.79-1.84,1.77,1.77,0,0,1,1.71-2,1.54,1.54,0,0,1,1.5,1.71,2.53,2.53,0,0,1,0,.31Zm1.94-.47a.94.94,0,0,0-.92-1.08,1.1,1.1,0,0,0-1,1.08Z"/><path class="cls-4" d="M155.8,9.19c0,.26,0,.56,0,1V12.3a2.09,2.09,0,0,1-.52,1.66,1.93,1.93,0,0,1-1.32.44,2.35,2.35,0,0,1-1.21-.3l.17-.5a2.06,2.06,0,0,0,1.07.29c.68,0,1.17-.35,1.17-1.27v-.41h0a1.3,1.3,0,0,1-1.16.61A1.63,1.63,0,0,1,152.4,11,1.75,1.75,0,0,1,154,9.11a1.21,1.21,0,0,1,1.14.63h0l0-.55Zm-.68,1.44a.93.93,0,0,0,0-.3,1,1,0,0,0-.93-.7c-.63,0-1.08.53-1.08,1.38s.36,1.31,1.08,1.31a1,1,0,0,0,.92-.68,1.15,1.15,0,0,0,.05-.35Z"/><path class="cls-4" d="M156.82,10.33c0-.43,0-.8,0-1.14h.58l0,.71h0a1.09,1.09,0,0,1,1-.8l.19,0v.62l-.23,0a.93.93,0,0,0-.89.85,1.85,1.85,0,0,0,0,.31v1.94h-.65Z"/><path class="cls-4" d="M161.25,12.83l-.05-.46h0a1.36,1.36,0,0,1-1.11.54,1,1,0,0,1-1.11-1c0-.88.78-1.36,2.19-1.35v-.08a.75.75,0,0,0-.83-.84,1.81,1.81,0,0,0-.95.27l-.15-.44a2.26,2.26,0,0,1,1.2-.32c1.11,0,1.38.76,1.38,1.49V12a5.15,5.15,0,0,0,.06.87Zm-.1-1.86c-.72,0-1.54.11-1.54.82a.59.59,0,0,0,.62.63.91.91,0,0,0,.88-.61.69.69,0,0,0,0-.21Z"/><path class="cls-4" d="M163.63,8.14v1h.95v.5h-.95v2c0,.45.13.71.5.71a1.48,1.48,0,0,0,.38,0l0,.5a1.62,1.62,0,0,1-.59.09.92.92,0,0,1-.71-.28,1.35,1.35,0,0,1-.26-.95v-2h-.56v-.5H163V8.32Z"/><path class="cls-4" d="M165.64,11.13a1.17,1.17,0,0,0,1.25,1.26,2.41,2.41,0,0,0,1-.19l.11.47a3,3,0,0,1-1.21.23A1.69,1.69,0,0,1,165,11.07a1.77,1.77,0,0,1,1.71-2,1.54,1.54,0,0,1,1.5,1.71,2.53,2.53,0,0,1,0,.31Zm1.94-.47a.94.94,0,0,0-.92-1.08,1.1,1.1,0,0,0-1,1.08Z"/><path class="cls-4" d="M172.19,7.49v4.4c0,.32,0,.69,0,.94h-.59l0-.63h0a1.35,1.35,0,0,1-1.24.71,1.66,1.66,0,0,1-1.56-1.85,1.74,1.74,0,0,1,1.63-2,1.22,1.22,0,0,1,1.1.56h0V7.49Zm-.66,3.18a1.17,1.17,0,0,0,0-.28,1,1,0,0,0-1-.77c-.68,0-1.09.6-1.09,1.41s.36,1.35,1.08,1.35a1,1,0,0,0,1-.79,1.15,1.15,0,0,0,0-.29Z"/><path class="cls-4" d="M177.47,12.69a2.43,2.43,0,0,1-1,.21A1.73,1.73,0,0,1,174.61,11a1.85,1.85,0,0,1,2-1.93,2.22,2.22,0,0,1,.92.19l-.15.51a1.54,1.54,0,0,0-.77-.17A1.26,1.26,0,0,0,175.28,11a1.25,1.25,0,0,0,1.26,1.36,1.88,1.88,0,0,0,.81-.18Z"/><path class="cls-4" d="M178.24,7.49h.66V9.76h0a1.23,1.23,0,0,1,.47-.47,1.36,1.36,0,0,1,.68-.19c.49,0,1.27.3,1.27,1.56v2.17h-.66V10.74c0-.59-.22-1.08-.84-1.08a1,1,0,0,0-.89.66.81.81,0,0,0,0,.32v2.2h-.66Z"/><path class="cls-4" d="M184.43,12.83l-.05-.46h0a1.36,1.36,0,0,1-1.11.54,1,1,0,0,1-1.11-1c0-.88.78-1.36,2.19-1.35v-.08a.75.75,0,0,0-.83-.84,1.81,1.81,0,0,0-.95.27l-.15-.44a2.26,2.26,0,0,1,1.2-.32c1.11,0,1.38.76,1.38,1.49V12a5.15,5.15,0,0,0,.06.87Zm-.1-1.86c-.72,0-1.54.11-1.54.82a.59.59,0,0,0,.62.63.91.91,0,0,0,.88-.61.69.69,0,0,0,0-.21Z"/><path class="cls-4" d="M186.8,8.14v1h.95v.5h-.95v2c0,.45.13.71.5.71a1.48,1.48,0,0,0,.38,0l0,.5a1.62,1.62,0,0,1-.59.09.92.92,0,0,1-.71-.28,1.35,1.35,0,0,1-.26-.95v-2h-.56v-.5h.56V8.32Z"/><path class="cls-4" d="M190,12.15a1.73,1.73,0,0,0,.87.26c.48,0,.71-.24.71-.54s-.19-.49-.68-.67c-.65-.23-1-.59-1-1a1.12,1.12,0,0,1,1.26-1.07,1.82,1.82,0,0,1,.9.23l-.17.48a1.42,1.42,0,0,0-.74-.21c-.39,0-.61.23-.61.5s.22.44.69.62c.63.24,1,.56,1,1.1s-.5,1.09-1.36,1.09a2.08,2.08,0,0,1-1-.25Z"/><path class="cls-4" d="M193.31,9.19l.8,2.15c.08.24.17.53.23.74h0c.07-.22.14-.5.23-.76l.72-2.14h.7l-1,2.59a5.54,5.54,0,0,1-1.25,2.28,1.78,1.78,0,0,1-.81.43l-.17-.56a1.74,1.74,0,0,0,.58-.32,2,2,0,0,0,.56-.74.47.47,0,0,0,.05-.16.58.58,0,0,0,0-.17l-1.35-3.35Z"/><path class="cls-4" d="M196.47,12.15a1.73,1.73,0,0,0,.87.26c.48,0,.71-.24.71-.54s-.19-.49-.68-.67c-.65-.23-1-.59-1-1a1.12,1.12,0,0,1,1.26-1.07,1.82,1.82,0,0,1,.9.23l-.17.48a1.42,1.42,0,0,0-.74-.21c-.39,0-.61.23-.61.5s.22.44.69.62c.63.24,1,.56,1,1.1s-.5,1.09-1.36,1.09a2.08,2.08,0,0,1-1-.25Z"/><path class="cls-4" d="M200.34,8.14v1h.95v.5h-.95v2c0,.45.13.71.5.71a1.48,1.48,0,0,0,.38,0l0,.5a1.62,1.62,0,0,1-.59.09.92.92,0,0,1-.71-.28,1.35,1.35,0,0,1-.26-.95v-2h-.56v-.5h.56V8.32Z"/><path class="cls-4" d="M202.35,11.13a1.17,1.17,0,0,0,1.25,1.26,2.41,2.41,0,0,0,1-.19l.11.47a3,3,0,0,1-1.21.23,1.69,1.69,0,0,1-1.79-1.84,1.77,1.77,0,0,1,1.71-2,1.54,1.54,0,0,1,1.5,1.71,2.53,2.53,0,0,1,0,.31Zm1.94-.47a.94.94,0,0,0-.92-1.08,1.1,1.1,0,0,0-1,1.08Z"/><path class="cls-4" d="M205.75,10.18c0-.38,0-.68,0-1h.58l0,.59h0a1.25,1.25,0,0,1,1.14-.67,1.08,1.08,0,0,1,1,.73h0a1.49,1.49,0,0,1,.41-.47,1.24,1.24,0,0,1,.81-.26c.48,0,1.2.32,1.2,1.58v2.14h-.65V10.77c0-.7-.26-1.12-.79-1.12a.86.86,0,0,0-.78.6,1.08,1.08,0,0,0-.05.33v2.25H208V10.65c0-.58-.26-1-.76-1a.91.91,0,0,0-.82.66.92.92,0,0,0-.05.32v2.2h-.65Z"/></g></g></svg>