<svg xmlns="http://www.w3.org/2000/svg" viewBox="0 0 190.35 20.63"><defs><style>.cls-1{opacity:0.2;}.cls-2{fill:#3e4eaa;}.cls-3{fill:#0e174a;}.cls-4{fill:#ffbe03;}</style></defs><title>Asset 74</title><g id="Layer_2" data-name="Layer 2"><g id="Layer_1-2" data-name="Layer 1"><g class="cls-1"><path class="cls-2" d="M187.29,20.63H11c-.5,0-.9-.54-.9-1.2V15.26c0-.66.4-1.2.9-1.2H187.28c.5,0,.9.53.9,1.2v4.17C188.19,20.09,187.79,20.63,187.29,20.63Z"/></g><rect class="cls-3" x="10" y="2.95" width="180.35" height="14.41" rx="2.79" ry="2.79"/><rect class="cls-4" x="2.92" y="2.92" width="14.08" height="14.08" transform="translate(-4.12 9.95) rotate(-45)"/><path class="cls-4" d="M25.22,12.7a2.44,2.44,0,0,1-1,.21A1.73,1.73,0,0,1,22.36,11a1.85,1.85,0,0,1,2-1.93,2.22,2.22,0,0,1,.92.19l-.15.51a1.54,1.54,0,0,0-.77-.17A1.26,1.26,0,0,0,23,11a1.25,1.25,0,0,0,1.26,1.36,1.88,1.88,0,0,0,.81-.18Z"/><path class="cls-4" d="M29.24,11a1.78,1.78,0,0,1-1.81,1.93A1.73,1.73,0,0,1,25.68,11a1.78,1.78,0,0,1,1.81-1.93A1.72,1.72,0,0,1,29.24,11Zm-2.89,0c0,.8.46,1.4,1.11,1.4s1.11-.59,1.11-1.41c0-.62-.31-1.4-1.09-1.4S26.35,10.33,26.35,11Z"/><path class="cls-4" d="M30.07,10.18c0-.38,0-.68,0-1h.58l0,.59h0a1.25,1.25,0,0,1,1.14-.67,1.08,1.08,0,0,1,1,.73h0a1.5,1.5,0,0,1,.41-.47,1.24,1.24,0,0,1,.81-.26c.48,0,1.2.32,1.2,1.58v2.14h-.65V10.77c0-.7-.26-1.12-.79-1.12a.86.86,0,0,0-.78.6,1.08,1.08,0,0,0-.05.33v2.25h-.65V10.65c0-.58-.26-1-.76-1a1,1,0,0,0-.87,1v2.2h-.65Z"/><path class="cls-4" d="M36.71,11.13A1.17,1.17,0,0,0,38,12.39a2.39,2.39,0,0,0,1-.19l.11.47a3,3,0,0,1-1.21.23,1.69,1.69,0,0,1-1.79-1.84,1.77,1.77,0,0,1,1.71-2,1.54,1.54,0,0,1,1.5,1.72,2.53,2.53,0,0,1,0,.31Zm1.94-.47a.94.94,0,0,0-.92-1.08,1.1,1.1,0,0,0-1,1.08Z"/><path class="cls-4" d="M40,12.15a1.73,1.73,0,0,0,.87.26c.48,0,.71-.24.71-.54s-.19-.49-.68-.67c-.65-.23-1-.59-1-1a1.12,1.12,0,0,1,1.26-1.07,1.82,1.82,0,0,1,.9.23l-.17.48a1.42,1.42,0,0,0-.74-.21c-.39,0-.61.23-.61.5s.22.44.69.62c.63.24,1,.56,1,1.1s-.5,1.09-1.36,1.09a2.08,2.08,0,0,1-1-.25Z"/><path class="cls-4" d="M44.68,10.38c0-.47,0-.84,0-1.19h.59l0,.62h0a1.43,1.43,0,0,1,1.29-.71A1.65,1.65,0,0,1,48.12,11a1.72,1.72,0,0,1-1.66,2,1.28,1.28,0,0,1-1.12-.57h0v2h-.65Zm.65,1a1.49,1.49,0,0,0,0,.27,1,1,0,0,0,1,.77c.7,0,1.11-.57,1.11-1.41s-.38-1.35-1.08-1.35a1.06,1.06,0,0,0-1,.82,1.07,1.07,0,0,0,0,.27Z"/><path class="cls-4" d="M49,10.33c0-.43,0-.8,0-1.14h.58l0,.71h0a1.09,1.09,0,0,1,1-.8l.19,0v.62l-.23,0a.93.93,0,0,0-.89.85,1.84,1.84,0,0,0,0,.31v1.94H49Z"/><path class="cls-4" d="M51.71,11.13A1.17,1.17,0,0,0,53,12.39a2.39,2.39,0,0,0,1-.19l.11.47a3,3,0,0,1-1.21.23,1.69,1.69,0,0,1-1.79-1.84,1.77,1.77,0,0,1,1.71-2,1.54,1.54,0,0,1,1.5,1.72,2.53,2.53,0,0,1,0,.31Zm1.94-.47a.94.94,0,0,0-.92-1.08,1.1,1.1,0,0,0-1,1.08Z"/><path class="cls-4" d="M56.85,10.55V11H55v-.49Z"/><path class="cls-4" d="M57.62,10.38c0-.47,0-.84,0-1.19h.59l0,.62h0a1.43,1.43,0,0,1,1.29-.71A1.65,1.65,0,0,1,61.07,11a1.72,1.72,0,0,1-1.66,2,1.28,1.28,0,0,1-1.12-.57h0v2h-.65Zm.65,1a1.49,1.49,0,0,0,0,.27,1,1,0,0,0,1,.77c.7,0,1.11-.57,1.11-1.41S60,9.63,59.32,9.63a1.06,1.06,0,0,0-1,.82,1.07,1.07,0,0,0,0,.27Z"/><path class="cls-4" d="M63.91,12.83l-.05-.46h0a1.36,1.36,0,0,1-1.11.54,1,1,0,0,1-1.11-1c0-.88.78-1.36,2.19-1.35v-.08A.75.75,0,0,0,63,9.6a1.81,1.81,0,0,0-.95.27l-.15-.44a2.26,2.26,0,0,1,1.2-.32c1.11,0,1.38.76,1.38,1.49V12a5.15,5.15,0,0,0,.06.87ZM63.82,11c-.72,0-1.54.11-1.54.82a.59.59,0,0,0,.62.63.91.91,0,0,0,.88-.61.69.69,0,0,0,0-.21Z"/><path class="cls-4" d="M68.12,12.7a2.44,2.44,0,0,1-1,.21A1.73,1.73,0,0,1,65.26,11a1.85,1.85,0,0,1,2-1.93,2.22,2.22,0,0,1,.92.19L68,9.81a1.53,1.53,0,0,0-.77-.17A1.26,1.26,0,0,0,65.93,11a1.25,1.25,0,0,0,1.26,1.36A1.88,1.88,0,0,0,68,12.2Z"/><path class="cls-4" d="M69.54,10.86h0c.09-.13.22-.29.32-.41L71,9.19h.8l-1.41,1.5,1.6,2.14h-.81l-1.26-1.75-.34.38v1.37h-.65V7.49h.65Z"/><path class="cls-4" d="M74.57,12.83l-.05-.46h0a1.35,1.35,0,0,1-1.11.54,1,1,0,0,1-1.11-1c0-.88.78-1.36,2.19-1.35v-.08a.75.75,0,0,0-.83-.84,1.81,1.81,0,0,0-.95.27l-.15-.44a2.26,2.26,0,0,1,1.2-.32c1.11,0,1.38.76,1.38,1.49V12a5.15,5.15,0,0,0,.06.87ZM74.47,11c-.72,0-1.54.11-1.54.82a.59.59,0,0,0,.62.63.91.91,0,0,0,.88-.61.69.69,0,0,0,0-.21Z"/><path class="cls-4" d="M79.31,9.19c0,.26,0,.56,0,1V12.3A2.09,2.09,0,0,1,78.76,14a1.93,1.93,0,0,1-1.32.44,2.35,2.35,0,0,1-1.21-.3l.17-.5a2.05,2.05,0,0,0,1.07.29c.68,0,1.17-.35,1.17-1.27v-.41h0a1.3,1.3,0,0,1-1.16.61A1.63,1.63,0,0,1,75.91,11a1.75,1.75,0,0,1,1.64-1.93,1.21,1.21,0,0,1,1.14.63h0l0-.55Zm-.68,1.44a.94.94,0,0,0,0-.3,1,1,0,0,0-.93-.7c-.63,0-1.08.53-1.08,1.38s.36,1.31,1.08,1.31a1,1,0,0,0,.92-.68,1.15,1.15,0,0,0,.05-.35Z"/><path class="cls-4" d="M80.74,11.13A1.17,1.17,0,0,0,82,12.39a2.39,2.39,0,0,0,1-.19l.11.47a3,3,0,0,1-1.21.23,1.69,1.69,0,0,1-1.79-1.84,1.77,1.77,0,0,1,1.71-2,1.54,1.54,0,0,1,1.5,1.72,2.53,2.53,0,0,1,0,.31Zm1.94-.47a.94.94,0,0,0-.92-1.08,1.1,1.1,0,0,0-1,1.08Z"/><path class="cls-4" d="M87.29,7.49v4.4c0,.32,0,.69,0,.94h-.59l0-.63h0a1.35,1.35,0,0,1-1.24.71,1.66,1.66,0,0,1-1.56-1.85,1.74,1.74,0,0,1,1.63-2,1.22,1.22,0,0,1,1.1.56h0V7.49Zm-.66,3.18a1.18,1.18,0,0,0,0-.28,1,1,0,0,0-1-.77c-.68,0-1.09.6-1.09,1.41s.36,1.35,1.08,1.35a1,1,0,0,0,1-.79,1.16,1.16,0,0,0,0-.29Z"/><path class="cls-4" d="M90.24,9.19,90.72,11c.11.41.2.78.27,1.16h0c.08-.37.2-.76.32-1.15l.59-1.86h.56L93.05,11c.14.44.24.82.32,1.19h0A11,11,0,0,1,93.68,11l.52-1.83h.65l-1.17,3.64h-.6l-.56-1.74a12,12,0,0,1-.32-1.2h0a10.82,10.82,0,0,1-.33,1.2l-.59,1.73h-.6l-1.1-3.64Z"/><path class="cls-4" d="M96.24,8.17a.41.41,0,0,1-.82,0,.4.4,0,0,1,.41-.41A.39.39,0,0,1,96.24,8.17Zm-.74,4.66V9.19h.66v3.64Z"/><path class="cls-4" d="M98.06,8.14v1H99v.5h-.95v2c0,.45.13.71.5.71a1.45,1.45,0,0,0,.38,0l0,.5a1.62,1.62,0,0,1-.59.09.92.92,0,0,1-.71-.28,1.35,1.35,0,0,1-.26-.95v-2h-.56v-.5h.56V8.32Z"/><path class="cls-4" d="M99.76,7.49h.66V9.76h0a1.23,1.23,0,0,1,.47-.47,1.36,1.36,0,0,1,.68-.19c.49,0,1.27.3,1.27,1.56v2.17h-.66V10.74c0-.59-.22-1.08-.84-1.08a1,1,0,0,0-.89.66.8.8,0,0,0,0,.32v2.2h-.66Z"/><path class="cls-4" d="M105.43,12.15a1.73,1.73,0,0,0,.87.26c.48,0,.71-.24.71-.54s-.19-.49-.68-.67c-.65-.23-1-.59-1-1a1.12,1.12,0,0,1,1.26-1.07,1.82,1.82,0,0,1,.9.23l-.17.48a1.42,1.42,0,0,0-.74-.21c-.39,0-.61.23-.61.5s.22.44.69.62c.63.24,1,.56,1,1.1s-.5,1.09-1.36,1.09a2.08,2.08,0,0,1-1-.25Z"/><path class="cls-4" d="M111.79,11A1.78,1.78,0,0,1,110,12.91,1.73,1.73,0,0,1,108.23,11,1.78,1.78,0,0,1,110,9.11,1.72,1.72,0,0,1,111.79,11Zm-2.89,0c0,.8.46,1.4,1.11,1.4s1.11-.59,1.11-1.41c0-.62-.31-1.4-1.09-1.4S108.9,10.33,108.9,11Z"/><path class="cls-4" d="M115.22,12.7a2.44,2.44,0,0,1-1,.21A1.73,1.73,0,0,1,112.36,11a1.85,1.85,0,0,1,2-1.93,2.22,2.22,0,0,1,.92.19l-.15.51a1.53,1.53,0,0,0-.77-.17A1.26,1.26,0,0,0,113,11a1.25,1.25,0,0,0,1.26,1.36,1.88,1.88,0,0,0,.81-.18Z"/><path class="cls-4" d="M118.54,12.7a2.44,2.44,0,0,1-1,.21A1.73,1.73,0,0,1,115.68,11a1.85,1.85,0,0,1,2-1.93,2.22,2.22,0,0,1,.92.19l-.15.51a1.54,1.54,0,0,0-.77-.17A1.26,1.26,0,0,0,116.35,11a1.25,1.25,0,0,0,1.26,1.36,1.88,1.88,0,0,0,.81-.18Z"/><path class="cls-4" d="M119.64,11.13a1.17,1.17,0,0,0,1.25,1.26,2.39,2.39,0,0,0,1-.19l.11.47a3,3,0,0,1-1.21.23A1.69,1.69,0,0,1,119,11.07a1.77,1.77,0,0,1,1.71-2,1.54,1.54,0,0,1,1.5,1.72,2.53,2.53,0,0,1,0,.31Zm1.94-.47a.94.94,0,0,0-.92-1.08,1.1,1.1,0,0,0-1,1.08Z"/><path class="cls-4" d="M123,10.33c0-.43,0-.8,0-1.14h.58l0,.71h0a1.09,1.09,0,0,1,1-.8l.19,0v.62l-.23,0a.93.93,0,0,0-.89.85,1.84,1.84,0,0,0,0,.31v1.94H123Z"/><path class="cls-4" d="M129.1,12.83l-.05-.46h0a1.36,1.36,0,0,1-1.11.54,1,1,0,0,1-1.11-1c0-.88.78-1.36,2.19-1.35v-.08a.75.75,0,0,0-.83-.84,1.81,1.81,0,0,0-.95.27l-.15-.44a2.26,2.26,0,0,1,1.2-.32c1.11,0,1.38.76,1.38,1.49V12a5.15,5.15,0,0,0,.06.87ZM129,11c-.72,0-1.54.11-1.54.82a.59.59,0,0,0,.62.63.91.91,0,0,0,.88-.61.69.69,0,0,0,0-.21Z"/><path class="cls-4" d="M130.71,10.18c0-.38,0-.68,0-1h.59l0,.6h0a1.34,1.34,0,0,1,1.2-.68c.5,0,1.29.3,1.29,1.55v2.17h-.66v-2.1c0-.59-.22-1.08-.84-1.08a1,1,0,0,0-.93,1v2.19h-.66Z"/><path class="cls-4" d="M138,7.49v4.4c0,.32,0,.69,0,.94h-.59l0-.63h0a1.35,1.35,0,0,1-1.24.71,1.66,1.66,0,0,1-1.56-1.85,1.74,1.74,0,0,1,1.63-2,1.22,1.22,0,0,1,1.1.56h0V7.49Zm-.66,3.18a1.18,1.18,0,0,0,0-.28,1,1,0,0,0-1-.77c-.68,0-1.09.6-1.09,1.41s.36,1.35,1.08,1.35a1,1,0,0,0,1-.79,1.16,1.16,0,0,0,0-.29Z"/><path class="cls-4" d="M143.31,12.7a2.44,2.44,0,0,1-1,.21A1.73,1.73,0,0,1,140.45,11a1.85,1.85,0,0,1,2-1.93,2.22,2.22,0,0,1,.92.19l-.15.51a1.53,1.53,0,0,0-.77-.17A1.26,1.26,0,0,0,141.12,11a1.25,1.25,0,0,0,1.26,1.36,1.88,1.88,0,0,0,.81-.18Z"/><path class="cls-4" d="M144.08,10.33c0-.43,0-.8,0-1.14h.58l0,.71h0a1.09,1.09,0,0,1,1-.8l.19,0v.62l-.23,0a.93.93,0,0,0-.89.85,1.84,1.84,0,0,0,0,.31v1.94h-.65Z"/><path class="cls-4" d="M147.31,8.17a.41.41,0,0,1-.82,0,.4.4,0,0,1,.41-.41A.39.39,0,0,1,147.31,8.17Zm-.74,4.66V9.19h.66v3.64Z"/><path class="cls-4" d="M150.93,12.7a2.44,2.44,0,0,1-1,.21A1.73,1.73,0,0,1,148.07,11a1.85,1.85,0,0,1,2-1.93,2.22,2.22,0,0,1,.92.19l-.15.51a1.53,1.53,0,0,0-.77-.17A1.26,1.26,0,0,0,148.74,11,1.25,1.25,0,0,0,150,12.38a1.88,1.88,0,0,0,.81-.18Z"/><path class="cls-4" d="M152.35,10.86h0c.09-.13.22-.29.32-.41l1.07-1.26h.8l-1.41,1.5,1.6,2.14h-.81l-1.26-1.75-.34.38v1.37h-.65V7.49h.65Z"/><path class="cls-4" d="M155.59,11.13a1.17,1.17,0,0,0,1.25,1.26,2.39,2.39,0,0,0,1-.19l.11.47a3,3,0,0,1-1.21.23A1.69,1.69,0,0,1,155,11.07a1.77,1.77,0,0,1,1.71-2,1.54,1.54,0,0,1,1.5,1.72,2.53,2.53,0,0,1,0,.31Zm1.94-.47a.94.94,0,0,0-.92-1.08,1.1,1.1,0,0,0-1,1.08Z"/><path class="cls-4" d="M159.79,8.14v1h.95v.5h-.95v2c0,.45.13.71.5.71a1.45,1.45,0,0,0,.38,0l0,.5a1.62,1.62,0,0,1-.59.09.92.92,0,0,1-.71-.28,1.35,1.35,0,0,1-.26-.95v-2h-.56v-.5h.56V8.32Z"/><path class="cls-4" d="M163.07,7.49h.66v5.34h-.66Z"/><path class="cls-4" d="M165.22,11.13a1.17,1.17,0,0,0,1.25,1.26,2.39,2.39,0,0,0,1-.19l.11.47a3,3,0,0,1-1.21.23,1.69,1.69,0,0,1-1.79-1.84,1.77,1.77,0,0,1,1.71-2,1.54,1.54,0,0,1,1.5,1.72,2.53,2.53,0,0,1,0,.31Zm1.94-.47a.94.94,0,0,0-.92-1.08,1.1,1.1,0,0,0-1,1.08Z"/><path class="cls-4" d="M170.63,12.83l-.05-.46h0a1.35,1.35,0,0,1-1.11.54,1,1,0,0,1-1.11-1c0-.88.78-1.36,2.19-1.35v-.08a.75.75,0,0,0-.83-.84,1.81,1.81,0,0,0-.95.27l-.15-.44a2.26,2.26,0,0,1,1.2-.32c1.11,0,1.38.76,1.38,1.49V12a5.15,5.15,0,0,0,.06.87Zm-.1-1.86c-.72,0-1.54.11-1.54.82a.59.59,0,0,0,.62.63.91.91,0,0,0,.88-.61.69.69,0,0,0,0-.21Z"/><path class="cls-4" d="M175.37,9.19c0,.26,0,.56,0,1V12.3a2.09,2.09,0,0,1-.52,1.66,1.93,1.93,0,0,1-1.32.44,2.35,2.35,0,0,1-1.21-.3l.17-.5a2.05,2.05,0,0,0,1.07.29c.68,0,1.17-.35,1.17-1.27v-.41h0a1.3,1.3,0,0,1-1.16.61A1.63,1.63,0,0,1,172,11a1.75,1.75,0,0,1,1.64-1.93,1.21,1.21,0,0,1,1.14.63h0l0-.55Zm-.68,1.44a.94.94,0,0,0,0-.3,1,1,0,0,0-.93-.7c-.63,0-1.08.53-1.08,1.38s.36,1.31,1.08,1.31a1,1,0,0,0,.92-.68,1.15,1.15,0,0,0,.05-.35Z"/><path class="cls-4" d="M179.48,11.84c0,.38,0,.71,0,1h-.59l0-.59h0a1.37,1.37,0,0,1-1.2.68c-.57,0-1.26-.32-1.26-1.59V9.19h.66v2c0,.69.21,1.16.81,1.16a.93.93,0,0,0,.93-.94V9.19h.66Z"/><path class="cls-4" d="M180.95,11.13a1.17,1.17,0,0,0,1.25,1.26,2.39,2.39,0,0,0,1-.19l.11.47a3,3,0,0,1-1.21.23,1.69,1.69,0,0,1-1.79-1.84,1.77,1.77,0,0,1,1.71-2,1.54,1.54,0,0,1,1.5,1.72,2.53,2.53,0,0,1,0,.31Zm1.94-.47A.94.94,0,0,0,182,9.58a1.1,1.1,0,0,0-1,1.08Z"/><path class="cls-4" d="M184.26,12.15a1.73,1.73,0,0,0,.87.26c.48,0,.71-.24.71-.54s-.19-.49-.68-.67c-.65-.23-1-.59-1-1a1.12,1.12,0,0,1,1.26-1.07,1.82,1.82,0,0,1,.9.23l-.17.48a1.42,1.42,0,0,0-.74-.21c-.39,0-.61.23-.61.5s.22.44.69.62c.63.24,1,.56,1,1.1s-.5,1.09-1.36,1.09a2.08,2.08,0,0,1-1-.25Z"/></g></g></svg>