<svg xmlns="http://www.w3.org/2000/svg" viewBox="0 0 234.18 20.63"><defs><style>.cls-1{opacity:0.2;}.cls-2{fill:#3e4eaa;}.cls-3{fill:#0e174a;}.cls-4{fill:#ffbe03;}</style></defs><title>Asset 100</title><g id="Layer_2" data-name="Layer 2"><g id="Layer_1-2" data-name="Layer 1"><g class="cls-1"><path class="cls-2" d="M230.37,20.63H11.24a1.16,1.16,0,0,1-1.12-1.2V15.26a1.16,1.16,0,0,1,1.12-1.2H230.36a1.16,1.16,0,0,1,1.12,1.2v4.17A1.16,1.16,0,0,1,230.37,20.63Z"/></g><rect class="cls-3" x="10" y="2.95" width="224.19" height="14.41" rx="2.79" ry="2.79"/><rect class="cls-4" x="2.92" y="2.92" width="14.08" height="14.08" transform="translate(-4.12 9.95) rotate(-45)"/><path class="cls-4" d="M24.51,12.64l-.13.06-.2.08-.26.07a1.43,1.43,0,0,1-.3,0,1.09,1.09,0,0,1-.32,0,.74.74,0,0,1-.26-.14.69.69,0,0,1-.18-.24.76.76,0,0,1-.07-.33V9.32h-.54V8.91h.54V7.59h.51V8.91h.9v.41h-.9V12a.41.41,0,0,0,.15.32.52.52,0,0,0,.32.1,1,1,0,0,0,.38-.07l.21-.1Z"/><path class="cls-4" d="M26.15,12.91a1.54,1.54,0,0,1-.55-.09,1.27,1.27,0,0,1-.42-.26,1.17,1.17,0,0,1-.27-.38,1.11,1.11,0,0,1-.1-.46,1,1,0,0,1,.12-.49,1.14,1.14,0,0,1,.34-.38,1.64,1.64,0,0,1,.52-.24,2.46,2.46,0,0,1,.67-.09,3.56,3.56,0,0,1,.6.05,2.68,2.68,0,0,1,.55.15v-.35a1.13,1.13,0,0,0-.3-.82,1.07,1.07,0,0,0-.8-.3,1.73,1.73,0,0,0-.63.12,3,3,0,0,0-.64.35l-.18-.34A3.37,3.37,0,0,1,25.82,9a2.24,2.24,0,0,1,.75-.13,1.55,1.55,0,0,1,1.14.41,1.53,1.53,0,0,1,.42,1.14v1.77c0,.14.06.21.18.21v.45h-.2a.45.45,0,0,1-.27-.09.35.35,0,0,1-.14-.27l0-.31a1.7,1.7,0,0,1-.67.54A2,2,0,0,1,26.15,12.91Zm.13-.39a1.66,1.66,0,0,0,.67-.15,1.32,1.32,0,0,0,.53-.4.77.77,0,0,0,.09-.15.35.35,0,0,0,0-.15V11a3.18,3.18,0,0,0-.53-.15,2.9,2.9,0,0,0-.54-.05,1.62,1.62,0,0,0-.89.22.69.69,0,0,0-.34.61.82.82,0,0,0,.06.31.78.78,0,0,0,.18.27,1,1,0,0,0,.3.2A1.11,1.11,0,0,0,26.28,12.52Z"/><path class="cls-4" d="M29.26,7.34h.51v4.6a.47.47,0,0,0,.12.34.45.45,0,0,0,.34.12l.2,0,.21-.06.09.41a1.71,1.71,0,0,1-.35.1,2.09,2.09,0,0,1-.36,0,.76.76,0,0,1-.56-.2.75.75,0,0,1-.2-.56Z"/><path class="cls-4" d="M34,12.83l-1.44-2-.84.78v1.23h-.51V7.34h.51v3.73l2.2-2.15h.58l-1.6,1.6,1.66,2.31Z"/><path class="cls-4" d="M41.86,8.91h.5l-1.68,3.92h-.43l-.83-2-.83,2h-.43L36.47,8.91H37l1.43,3.39.74-1.79-.67-1.59h.44l.51,1.28.5-1.28h.44l-.66,1.59.74,1.79Z"/><path class="cls-4" d="M43,8.09V7.34h.51v.75Zm0,4.74V8.91h.51v3.92Z"/><path class="cls-4" d="M46.53,12.64l-.13.06-.2.08-.26.07a1.43,1.43,0,0,1-.3,0,1.09,1.09,0,0,1-.32,0,.74.74,0,0,1-.26-.14.69.69,0,0,1-.18-.24.76.76,0,0,1-.07-.33V9.32h-.54V8.91h.54V7.59h.51V8.91h.9v.41h-.9V12a.41.41,0,0,0,.15.32.52.52,0,0,0,.32.1,1,1,0,0,0,.38-.07l.21-.1Z"/><path class="cls-4" d="M50.42,12.83h-.51V10.64a1.77,1.77,0,0,0-.23-1A.77.77,0,0,0,49,9.31a1.15,1.15,0,0,0-.43.09,1.61,1.61,0,0,0-.4.24,1.65,1.65,0,0,0-.33.35,1.5,1.5,0,0,0-.21.44v2.4h-.51V7.34h.51V9.8a1.83,1.83,0,0,1,.65-.7,1.66,1.66,0,0,1,.89-.26,1.24,1.24,0,0,1,.58.12,1,1,0,0,1,.38.35,1.57,1.57,0,0,1,.21.53,3.26,3.26,0,0,1,.07.69Z"/><path class="cls-4" d="M55.09,12.91a1.87,1.87,0,0,1-.79-.16,1.9,1.9,0,0,1-.62-.44,2,2,0,0,1-.4-.65,2.12,2.12,0,0,1-.14-.77,2.08,2.08,0,0,1,.15-.78,2,2,0,0,1,.41-.65A1.94,1.94,0,0,1,54.32,9a1.91,1.91,0,0,1,1.56,0,1.94,1.94,0,0,1,.62.44,2,2,0,0,1,.41.65,2.14,2.14,0,0,1,0,1.56,2,2,0,0,1-.41.65,1.9,1.9,0,0,1-.62.44A1.85,1.85,0,0,1,55.09,12.91Zm-1.42-2a1.68,1.68,0,0,0,.11.61,1.59,1.59,0,0,0,.3.5,1.37,1.37,0,0,0,.45.33,1.3,1.3,0,0,0,.55.12,1.26,1.26,0,0,0,.55-.12,1.48,1.48,0,0,0,.45-.34,1.62,1.62,0,0,0,.31-.5,1.73,1.73,0,0,0,0-1.23,1.62,1.62,0,0,0-.31-.5,1.49,1.49,0,0,0-.45-.34,1.24,1.24,0,0,0-.55-.12,1.26,1.26,0,0,0-.55.12,1.41,1.41,0,0,0-.45.34,1.7,1.7,0,0,0-.42,1.13Z"/><path class="cls-4" d="M59.71,12.64l-.13.06-.2.08-.26.07a1.43,1.43,0,0,1-.3,0,1.09,1.09,0,0,1-.32,0,.74.74,0,0,1-.26-.14.69.69,0,0,1-.18-.24.76.76,0,0,1-.07-.33V9.32h-.54V8.91H58V7.59h.51V8.91h.9v.41h-.9V12a.41.41,0,0,0,.15.32.52.52,0,0,0,.32.1,1,1,0,0,0,.38-.07l.21-.1Z"/><path class="cls-4" d="M63.6,12.83h-.51V10.64a1.77,1.77,0,0,0-.23-1,.77.77,0,0,0-.67-.33,1.15,1.15,0,0,0-.43.09,1.61,1.61,0,0,0-.4.24A1.65,1.65,0,0,0,61,10a1.5,1.5,0,0,0-.21.44v2.4h-.51V7.34h.51V9.8a1.83,1.83,0,0,1,.65-.7,1.66,1.66,0,0,1,.89-.26,1.24,1.24,0,0,1,.58.12,1,1,0,0,1,.38.35,1.57,1.57,0,0,1,.21.53,3.26,3.26,0,0,1,.07.69Z"/><path class="cls-4" d="M66.38,12.91A1.91,1.91,0,0,1,65,12.3a2,2,0,0,1-.41-.65,2.1,2.1,0,0,1-.15-.79,2.06,2.06,0,0,1,.15-.78,2,2,0,0,1,1-1.07,1.91,1.91,0,0,1,2.18.44,2.06,2.06,0,0,1,.54,1.41s0,.08,0,.12a.37.37,0,0,1,0,.08H64.95a1.65,1.65,0,0,0,.15.58,1.63,1.63,0,0,0,.32.46,1.37,1.37,0,0,0,.44.3,1.33,1.33,0,0,0,.54.11,1.41,1.41,0,0,0,.38-.05,1.55,1.55,0,0,0,.35-.14,1.22,1.22,0,0,0,.28-.22,1,1,0,0,0,.19-.29l.44.12a1.29,1.29,0,0,1-.26.39,1.79,1.79,0,0,1-.38.31,1.88,1.88,0,0,1-.48.2A2.05,2.05,0,0,1,66.38,12.91Zm1.44-2.24a1.59,1.59,0,0,0-.15-.58,1.57,1.57,0,0,0-.32-.45,1.42,1.42,0,0,0-2,0,1.43,1.43,0,0,0-.31.45,1.72,1.72,0,0,0-.14.57Z"/><path class="cls-4" d="M71,9.36a1.61,1.61,0,0,0-.9.29,1.44,1.44,0,0,0-.54.74v2.44h-.51V8.91h.48v.94a2.07,2.07,0,0,1,.53-.69,1.1,1.1,0,0,1,.71-.27H71Z"/><path class="cls-4" d="M73.22,10.86a2.14,2.14,0,0,1,.14-.78,2,2,0,0,1,.4-.64A1.88,1.88,0,0,1,74.38,9a2,2,0,0,1,.8-.16,1.83,1.83,0,0,1,1,.25,1.62,1.62,0,0,1,.62.68l-.5.16a1.2,1.2,0,0,0-.46-.47,1.29,1.29,0,0,0-.65-.17,1.32,1.32,0,0,0-.56.12,1.43,1.43,0,0,0-.45.33,1.5,1.5,0,0,0-.3.49,1.81,1.81,0,0,0,0,1.25,1.6,1.6,0,0,0,.31.51,1.48,1.48,0,0,0,.46.34,1.26,1.26,0,0,0,.55.12,1.34,1.34,0,0,0,.37-.05,1.45,1.45,0,0,0,.34-.15,1.23,1.23,0,0,0,.27-.21.7.7,0,0,0,.16-.26l.5.15a1.27,1.27,0,0,1-.24.39,1.67,1.67,0,0,1-.37.31,1.83,1.83,0,0,1-.47.2,2,2,0,0,1-.54.07,1.91,1.91,0,0,1-1.41-.61,2,2,0,0,1-.41-.65A2.1,2.1,0,0,1,73.22,10.86Z"/><path class="cls-4" d="M79.26,12.91a1.87,1.87,0,0,1-.79-.16,1.9,1.9,0,0,1-.62-.44,2,2,0,0,1-.4-.65,2.12,2.12,0,0,1-.14-.77,2.08,2.08,0,0,1,.15-.78,2,2,0,0,1,.41-.65A1.94,1.94,0,0,1,78.48,9,1.91,1.91,0,0,1,80,9a1.94,1.94,0,0,1,.62.44,2,2,0,0,1,.41.65,2.14,2.14,0,0,1,0,1.56,2,2,0,0,1-.41.65,1.9,1.9,0,0,1-.62.44A1.85,1.85,0,0,1,79.26,12.91Zm-1.42-2a1.68,1.68,0,0,0,.11.61,1.59,1.59,0,0,0,.3.5,1.37,1.37,0,0,0,.45.33,1.3,1.3,0,0,0,.55.12,1.26,1.26,0,0,0,.55-.12,1.48,1.48,0,0,0,.45-.34,1.62,1.62,0,0,0,.31-.5,1.73,1.73,0,0,0,0-1.23,1.62,1.62,0,0,0-.31-.5,1.49,1.49,0,0,0-.45-.34,1.24,1.24,0,0,0-.55-.12,1.26,1.26,0,0,0-.55.12,1.41,1.41,0,0,0-.45.34,1.7,1.7,0,0,0-.42,1.13Z"/><path class="cls-4" d="M87.86,12.83h-.51V10.64a1.86,1.86,0,0,0-.21-1,.73.73,0,0,0-.65-.32,1.11,1.11,0,0,0-.42.08,1.31,1.31,0,0,0-.37.23,1.58,1.58,0,0,0-.3.36,1.74,1.74,0,0,0-.2.46v2.39h-.51V10.64a1.88,1.88,0,0,0-.21-1,.72.72,0,0,0-.65-.32,1.15,1.15,0,0,0-.79.31,1.72,1.72,0,0,0-.5.81v2.4H82V8.91h.47V9.8a1.85,1.85,0,0,1,.63-.7A1.56,1.56,0,0,1,84,8.85a1.13,1.13,0,0,1,.8.28,1.17,1.17,0,0,1,.36.73,1.68,1.68,0,0,1,1.52-1,1.18,1.18,0,0,1,.55.12,1,1,0,0,1,.37.34,1.6,1.6,0,0,1,.2.53,3.48,3.48,0,0,1,.06.7Z"/><path class="cls-4" d="M90.93,12.91a1.57,1.57,0,0,1-.88-.25,2,2,0,0,1-.62-.63v2.41h-.51V8.91h.46v.76a1.9,1.9,0,0,1,.62-.6,1.59,1.59,0,0,1,.83-.23,1.67,1.67,0,0,1,.75.17,1.92,1.92,0,0,1,.59.45,2.1,2.1,0,0,1,.39.65,2.14,2.14,0,0,1,.14.76,2.37,2.37,0,0,1-.13.78,2,2,0,0,1-.36.65,1.75,1.75,0,0,1-.56.44A1.59,1.59,0,0,1,90.93,12.91Zm-.14-.45a1.21,1.21,0,0,0,.57-.13A1.46,1.46,0,0,0,91.8,12a1.6,1.6,0,0,0,.28-.5,1.77,1.77,0,0,0,.1-.58,1.62,1.62,0,0,0-.11-.6,1.66,1.66,0,0,0-.31-.5,1.46,1.46,0,0,0-.46-.35,1.32,1.32,0,0,0-.58-.13,1.15,1.15,0,0,0-.41.08,1.83,1.83,0,0,0-.4.21,1.39,1.39,0,0,0-.32.31.83.83,0,0,0-.16.37v1.2a1.8,1.8,0,0,0,.23.39,1.6,1.6,0,0,0,.32.31,1.48,1.48,0,0,0,.38.21A1.24,1.24,0,0,0,90.79,12.45Z"/><path class="cls-4" d="M95.26,12.91a1.91,1.91,0,0,1-1.41-.61,2,2,0,0,1-.41-.65,2.1,2.1,0,0,1-.15-.79,2.06,2.06,0,0,1,.15-.78,2,2,0,0,1,1-1.07,1.91,1.91,0,0,1,2.18.44,2.06,2.06,0,0,1,.54,1.41s0,.08,0,.12a.37.37,0,0,1,0,.08H93.83a1.65,1.65,0,0,0,.15.58,1.63,1.63,0,0,0,.32.46,1.37,1.37,0,0,0,.44.3,1.33,1.33,0,0,0,.54.11,1.41,1.41,0,0,0,.38-.05,1.55,1.55,0,0,0,.35-.14,1.22,1.22,0,0,0,.28-.22,1,1,0,0,0,.19-.29l.44.12a1.29,1.29,0,0,1-.26.39,1.79,1.79,0,0,1-.38.31,1.88,1.88,0,0,1-.48.2A2.05,2.05,0,0,1,95.26,12.91Zm1.44-2.24a1.59,1.59,0,0,0-.15-.58,1.57,1.57,0,0,0-.32-.45,1.42,1.42,0,0,0-2,0,1.43,1.43,0,0,0-.31.45,1.72,1.72,0,0,0-.14.57Z"/><path class="cls-4" d="M99.81,12.64l-.13.06-.2.08-.26.07a1.43,1.43,0,0,1-.3,0,1.09,1.09,0,0,1-.32,0,.74.74,0,0,1-.26-.14.69.69,0,0,1-.18-.24.76.76,0,0,1-.07-.33V9.32h-.54V8.91h.54V7.59h.51V8.91h.9v.41h-.9V12a.41.41,0,0,0,.15.32.52.52,0,0,0,.32.1,1,1,0,0,0,.38-.07l.21-.1Z"/><path class="cls-4" d="M100.42,8.09V7.34h.51v.75Zm0,4.74V8.91h.51v3.92Z"/><path class="cls-4" d="M103.92,12.64l-.13.06-.2.08-.26.07a1.43,1.43,0,0,1-.3,0,1.09,1.09,0,0,1-.32,0,.74.74,0,0,1-.26-.14.69.69,0,0,1-.18-.24.76.76,0,0,1-.07-.33V9.32h-.54V8.91h.54V7.59h.51V8.91h.9v.41h-.9V12a.41.41,0,0,0,.15.32.52.52,0,0,0,.32.1,1,1,0,0,0,.38-.07l.21-.1Z"/><path class="cls-4" d="M106.13,12.91a1.87,1.87,0,0,1-.79-.16,1.9,1.9,0,0,1-.62-.44,2,2,0,0,1-.4-.65,2.12,2.12,0,0,1-.14-.77,2.08,2.08,0,0,1,.15-.78,2,2,0,0,1,.41-.65,1.94,1.94,0,0,1,.62-.44,1.91,1.91,0,0,1,1.56,0,1.94,1.94,0,0,1,.62.44,2,2,0,0,1,.41.65,2.14,2.14,0,0,1,0,1.56,2,2,0,0,1-.41.65,1.9,1.9,0,0,1-.62.44A1.85,1.85,0,0,1,106.13,12.91Zm-1.42-2a1.68,1.68,0,0,0,.11.61,1.59,1.59,0,0,0,.3.5,1.37,1.37,0,0,0,.45.33,1.3,1.3,0,0,0,.55.12,1.26,1.26,0,0,0,.55-.12,1.48,1.48,0,0,0,.45-.34,1.62,1.62,0,0,0,.31-.5,1.73,1.73,0,0,0,0-1.23,1.62,1.62,0,0,0-.31-.5,1.49,1.49,0,0,0-.45-.34,1.24,1.24,0,0,0-.55-.12,1.26,1.26,0,0,0-.55.12,1.41,1.41,0,0,0-.45.34,1.7,1.7,0,0,0-.42,1.13Z"/><path class="cls-4" d="M110.86,9.36a1.61,1.61,0,0,0-.9.29,1.44,1.44,0,0,0-.54.74v2.44h-.51V8.91h.48v.94a2.07,2.07,0,0,1,.53-.69,1.1,1.1,0,0,1,.71-.27h.23Z"/><path class="cls-4" d="M112.83,12.91a2.72,2.72,0,0,1-.89-.15,2.16,2.16,0,0,1-.75-.44l.23-.35a2.52,2.52,0,0,0,.67.41,2,2,0,0,0,.73.14,1.32,1.32,0,0,0,.76-.19.62.62,0,0,0,.28-.54.47.47,0,0,0-.08-.27.66.66,0,0,0-.22-.19,1.78,1.78,0,0,0-.37-.15l-.52-.13-.59-.17a1.82,1.82,0,0,1-.41-.19.67.67,0,0,1-.24-.26.84.84,0,0,1-.08-.39,1.11,1.11,0,0,1,.12-.52,1.06,1.06,0,0,1,.32-.37,1.45,1.45,0,0,1,.47-.22,2.09,2.09,0,0,1,.57-.08,2.2,2.2,0,0,1,.82.15,1.62,1.62,0,0,1,.59.39l-.25.3a1.37,1.37,0,0,0-.53-.34,1.9,1.9,0,0,0-.65-.11,1.62,1.62,0,0,0-.38,0,.89.89,0,0,0-.3.13.64.64,0,0,0-.21.23.67.67,0,0,0-.08.33.54.54,0,0,0,.05.26.44.44,0,0,0,.17.17,1.36,1.36,0,0,0,.3.13l.45.12.66.18A2.09,2.09,0,0,1,114,11a.83.83,0,0,1,.29.29.85.85,0,0,1,.1.42,1,1,0,0,1-.41.86A1.79,1.79,0,0,1,112.83,12.91Z"/><path class="cls-4" d="M118.31,12.91a1.09,1.09,0,0,1-.93-.42,2.11,2.11,0,0,1-.32-1.27V8.91h.51v2.21q0,1.33.91,1.33a1.36,1.36,0,0,0,.44-.08,1.4,1.4,0,0,0,.4-.22,1.79,1.79,0,0,0,.33-.34,1.71,1.71,0,0,0,.24-.44V8.91h.51v3.26c0,.14.06.21.19.21v.45l-.21,0a.44.44,0,0,1-.3-.11.33.33,0,0,1-.12-.26v-.54a1.88,1.88,0,0,1-1.65,1Z"/><path class="cls-4" d="M122.88,12.91a2.72,2.72,0,0,1-.89-.15,2.16,2.16,0,0,1-.75-.44l.23-.35a2.52,2.52,0,0,0,.67.41,2,2,0,0,0,.73.14,1.32,1.32,0,0,0,.76-.19.62.62,0,0,0,.28-.54.47.47,0,0,0-.08-.27.66.66,0,0,0-.22-.19,1.78,1.78,0,0,0-.37-.15l-.52-.13-.59-.17a1.82,1.82,0,0,1-.41-.19.67.67,0,0,1-.24-.26.84.84,0,0,1-.08-.39,1.11,1.11,0,0,1,.12-.52,1.06,1.06,0,0,1,.32-.37,1.45,1.45,0,0,1,.47-.22,2.09,2.09,0,0,1,.57-.08,2.2,2.2,0,0,1,.82.15,1.62,1.62,0,0,1,.59.39l-.25.3a1.37,1.37,0,0,0-.53-.34,1.9,1.9,0,0,0-.65-.11,1.62,1.62,0,0,0-.38,0,.89.89,0,0,0-.3.13.64.64,0,0,0-.21.23.67.67,0,0,0-.08.33.54.54,0,0,0,.05.26.44.44,0,0,0,.17.17,1.36,1.36,0,0,0,.3.13l.45.12.66.18A2.09,2.09,0,0,1,124,11a.83.83,0,0,1,.29.29.85.85,0,0,1,.1.42,1,1,0,0,1-.41.86A1.79,1.79,0,0,1,122.88,12.91Z"/><path class="cls-4" d="M125.22,8.09V7.34h.51v.75Zm0,4.74V8.91h.51v3.92Z"/><path class="cls-4" d="M130.12,12.83h-.51V10.64a1.94,1.94,0,0,0-.2-1,.7.7,0,0,0-.63-.32,1.31,1.31,0,0,0-.45.08,1.59,1.59,0,0,0-.42.23,1.64,1.64,0,0,0-.34.36,1.59,1.59,0,0,0-.22.45v2.4h-.51V8.91h.47V9.8a1.82,1.82,0,0,1,.3-.39,2,2,0,0,1,.39-.3,1.92,1.92,0,0,1,.46-.2,1.9,1.9,0,0,1,.51-.07,1.15,1.15,0,0,1,.55.12,1,1,0,0,1,.36.34,1.57,1.57,0,0,1,.2.53,3.75,3.75,0,0,1,.06.7Z"/><path class="cls-4" d="M132.77,12.88a1.62,1.62,0,0,1-.74-.17,1.92,1.92,0,0,1-.58-.45,2.05,2.05,0,0,1-.38-.64,2.1,2.1,0,0,1-.14-.74,2.32,2.32,0,0,1,.13-.78,2,2,0,0,1,.37-.65A1.8,1.8,0,0,1,132,9a1.65,1.65,0,0,1,.74-.17,1.51,1.51,0,0,1,.87.25,2.42,2.42,0,0,1,.63.64V8.91h.46v3.93a1.6,1.6,0,0,1-.15.72,1.55,1.55,0,0,1-.41.52,1.77,1.77,0,0,1-.61.32,2.59,2.59,0,0,1-.74.11,2.14,2.14,0,0,1-1.08-.24,1.92,1.92,0,0,1-.67-.65l.32-.25a1.41,1.41,0,0,0,.62.55,1.93,1.93,0,0,0,.82.18,1.86,1.86,0,0,0,.54-.08,1.31,1.31,0,0,0,.45-.23,1.09,1.09,0,0,0,.3-.39,1.27,1.27,0,0,0,.11-.55v-.77a1.71,1.71,0,0,1-.62.59A1.64,1.64,0,0,1,132.77,12.88Zm.14-.43a1.23,1.23,0,0,0,.44-.08,1.49,1.49,0,0,0,.69-.53,1,1,0,0,0,.16-.35V10.27a1.48,1.48,0,0,0-.23-.39,1.63,1.63,0,0,0-.71-.51,1.26,1.26,0,0,0-1,.06,1.43,1.43,0,0,0-.44.37,1.62,1.62,0,0,0-.27.51,1.83,1.83,0,0,0-.09.58,1.64,1.64,0,0,0,.42,1.1,1.45,1.45,0,0,0,.46.34A1.34,1.34,0,0,0,132.91,12.45Z"/><path class="cls-4" d="M139.43,12.91a1.87,1.87,0,0,1-.79-.16,1.9,1.9,0,0,1-.62-.44,2,2,0,0,1-.4-.65,2.12,2.12,0,0,1-.14-.77,2.08,2.08,0,0,1,.15-.78,2,2,0,0,1,.41-.65,1.94,1.94,0,0,1,.62-.44,1.91,1.91,0,0,1,1.56,0,1.94,1.94,0,0,1,.62.44,2,2,0,0,1,.41.65,2.14,2.14,0,0,1,0,1.56,2,2,0,0,1-.41.65,1.9,1.9,0,0,1-.62.44A1.85,1.85,0,0,1,139.43,12.91Zm-1.42-2a1.68,1.68,0,0,0,.11.61,1.59,1.59,0,0,0,.3.5,1.37,1.37,0,0,0,.45.33,1.3,1.3,0,0,0,.55.12,1.26,1.26,0,0,0,.55-.12,1.48,1.48,0,0,0,.45-.34,1.62,1.62,0,0,0,.31-.5,1.73,1.73,0,0,0,0-1.23,1.62,1.62,0,0,0-.31-.5,1.49,1.49,0,0,0-.45-.34,1.24,1.24,0,0,0-.55-.12,1.26,1.26,0,0,0-.55.12,1.41,1.41,0,0,0-.45.34,1.7,1.7,0,0,0-.42,1.13Z"/><path class="cls-4" d="M143.42,12.91a1.09,1.09,0,0,1-.93-.42,2.11,2.11,0,0,1-.32-1.27V8.91h.51v2.21q0,1.33.91,1.33a1.36,1.36,0,0,0,.44-.08,1.4,1.4,0,0,0,.4-.22,1.79,1.79,0,0,0,.33-.34,1.71,1.71,0,0,0,.24-.44V8.91h.51v3.26c0,.14.06.21.19.21v.45l-.21,0a.44.44,0,0,1-.3-.11.33.33,0,0,1-.12-.26v-.54a1.88,1.88,0,0,1-1.65,1Z"/><path class="cls-4" d="M148.63,9.36a1.61,1.61,0,0,0-.9.29,1.44,1.44,0,0,0-.54.74v2.44h-.51V8.91h.48v.94a2.07,2.07,0,0,1,.53-.69,1.1,1.1,0,0,1,.71-.27h.23Z"/><path class="cls-4" d="M151.07,8.09V7.34h.51v.75Zm0,4.74V8.91h.51v3.92Z"/><path class="cls-4" d="M156,12.83h-.51V10.64a1.94,1.94,0,0,0-.2-1,.7.7,0,0,0-.63-.32,1.31,1.31,0,0,0-.45.08,1.59,1.59,0,0,0-.42.23,1.64,1.64,0,0,0-.34.36,1.59,1.59,0,0,0-.22.45v2.4h-.51V8.91h.47V9.8a1.82,1.82,0,0,1,.3-.39,2,2,0,0,1,.39-.3,1.92,1.92,0,0,1,.46-.2,1.9,1.9,0,0,1,.51-.07,1.15,1.15,0,0,1,.55.12,1,1,0,0,1,.36.34,1.57,1.57,0,0,1,.2.53,3.75,3.75,0,0,1,.06.7Z"/><path class="cls-4" d="M158.9,12.64l-.13.06-.2.08-.26.07a1.43,1.43,0,0,1-.3,0,1.09,1.09,0,0,1-.32,0,.74.74,0,0,1-.26-.14.69.69,0,0,1-.18-.24.76.76,0,0,1-.07-.33V9.32h-.54V8.91h.54V7.59h.51V8.91h.9v.41h-.9V12a.41.41,0,0,0,.15.32.52.52,0,0,0,.32.1,1,1,0,0,0,.38-.07l.21-.1Z"/><path class="cls-4" d="M161.22,12.91a1.91,1.91,0,0,1-1.41-.61,2,2,0,0,1-.41-.65,2.1,2.1,0,0,1-.15-.79,2.06,2.06,0,0,1,.15-.78,2,2,0,0,1,1-1.07,1.91,1.91,0,0,1,2.18.44,2.06,2.06,0,0,1,.54,1.41s0,.08,0,.12a.37.37,0,0,1,0,.08h-3.35a1.65,1.65,0,0,0,.15.58,1.63,1.63,0,0,0,.32.46,1.37,1.37,0,0,0,.44.3,1.33,1.33,0,0,0,.54.11,1.41,1.41,0,0,0,.38-.05,1.55,1.55,0,0,0,.35-.14,1.22,1.22,0,0,0,.28-.22,1,1,0,0,0,.19-.29l.44.12a1.29,1.29,0,0,1-.26.39,1.79,1.79,0,0,1-.38.31,1.88,1.88,0,0,1-.48.2A2.05,2.05,0,0,1,161.22,12.91Zm1.44-2.24a1.59,1.59,0,0,0-.15-.58,1.57,1.57,0,0,0-.32-.45,1.42,1.42,0,0,0-2,0,1.43,1.43,0,0,0-.31.45,1.72,1.72,0,0,0-.14.57Z"/><path class="cls-4" d="M165.5,12.88a1.62,1.62,0,0,1-.74-.17,1.92,1.92,0,0,1-.58-.45,2.05,2.05,0,0,1-.38-.64,2.1,2.1,0,0,1-.14-.74,2.32,2.32,0,0,1,.13-.78,2,2,0,0,1,.37-.65,1.8,1.8,0,0,1,.58-.44,1.65,1.65,0,0,1,.74-.17,1.51,1.51,0,0,1,.87.25,2.42,2.42,0,0,1,.63.64V8.91h.46v3.93a1.6,1.6,0,0,1-.15.72,1.55,1.55,0,0,1-.41.52,1.77,1.77,0,0,1-.61.32,2.59,2.59,0,0,1-.74.11,2.14,2.14,0,0,1-1.08-.24,1.92,1.92,0,0,1-.67-.65l.32-.25a1.41,1.41,0,0,0,.62.55,1.93,1.93,0,0,0,.82.18,1.86,1.86,0,0,0,.54-.08,1.31,1.31,0,0,0,.45-.23,1.09,1.09,0,0,0,.3-.39,1.27,1.27,0,0,0,.11-.55v-.77a1.71,1.71,0,0,1-.62.59A1.64,1.64,0,0,1,165.5,12.88Zm.14-.43a1.23,1.23,0,0,0,.44-.08,1.49,1.49,0,0,0,.69-.53,1,1,0,0,0,.16-.35V10.27a1.48,1.48,0,0,0-.23-.39,1.63,1.63,0,0,0-.71-.51,1.26,1.26,0,0,0-1,.06,1.43,1.43,0,0,0-.44.37,1.62,1.62,0,0,0-.27.51,1.83,1.83,0,0,0-.09.58,1.64,1.64,0,0,0,.42,1.1,1.45,1.45,0,0,0,.46.34A1.34,1.34,0,0,0,165.64,12.45Z"/><path class="cls-4" d="M170.5,9.36a1.61,1.61,0,0,0-.9.29,1.44,1.44,0,0,0-.54.74v2.44h-.51V8.91H169v.94a2.07,2.07,0,0,1,.53-.69,1.1,1.1,0,0,1,.71-.27h.23Z"/><path class="cls-4" d="M172.15,12.91a1.54,1.54,0,0,1-.55-.09,1.27,1.27,0,0,1-.42-.26,1.17,1.17,0,0,1-.27-.38,1.11,1.11,0,0,1-.1-.46,1,1,0,0,1,.12-.49,1.14,1.14,0,0,1,.34-.38,1.64,1.64,0,0,1,.52-.24,2.46,2.46,0,0,1,.67-.09,3.56,3.56,0,0,1,.6.05,2.68,2.68,0,0,1,.55.15v-.35a1.13,1.13,0,0,0-.3-.82,1.07,1.07,0,0,0-.8-.3,1.73,1.73,0,0,0-.63.12,3,3,0,0,0-.64.35l-.18-.34a3.37,3.37,0,0,1,.74-.38,2.24,2.24,0,0,1,.75-.13,1.55,1.55,0,0,1,1.14.41,1.53,1.53,0,0,1,.42,1.14v1.77c0,.14.06.21.18.21v.45h-.2a.45.45,0,0,1-.27-.09.35.35,0,0,1-.14-.27l0-.31a1.7,1.7,0,0,1-.67.54A2,2,0,0,1,172.15,12.91Zm.13-.39a1.66,1.66,0,0,0,.67-.15,1.32,1.32,0,0,0,.53-.4.77.77,0,0,0,.09-.15.35.35,0,0,0,0-.15V11a3.18,3.18,0,0,0-.53-.15,2.9,2.9,0,0,0-.54-.05,1.62,1.62,0,0,0-.89.22.69.69,0,0,0-.34.61.82.82,0,0,0,.06.31.78.78,0,0,0,.18.27,1,1,0,0,0,.3.2A1.11,1.11,0,0,0,172.27,12.52Z"/><path class="cls-4" d="M177.07,12.64l-.13.06-.2.08-.26.07a1.43,1.43,0,0,1-.3,0,1.09,1.09,0,0,1-.32,0,.74.74,0,0,1-.26-.14.69.69,0,0,1-.18-.24.76.76,0,0,1-.07-.33V9.32h-.54V8.91h.54V7.59h.51V8.91h.9v.41h-.9V12a.41.41,0,0,0,.15.32.52.52,0,0,0,.32.1,1,1,0,0,0,.38-.07l.21-.1Z"/><path class="cls-4" d="M179.38,12.91A1.91,1.91,0,0,1,178,12.3a2,2,0,0,1-.41-.65,2.1,2.1,0,0,1-.15-.79,2.06,2.06,0,0,1,.15-.78,2,2,0,0,1,1-1.07,1.91,1.91,0,0,1,2.18.44,2.06,2.06,0,0,1,.54,1.41s0,.08,0,.12a.37.37,0,0,1,0,.08H178a1.65,1.65,0,0,0,.15.58,1.63,1.63,0,0,0,.32.46,1.37,1.37,0,0,0,.44.3,1.33,1.33,0,0,0,.54.11,1.41,1.41,0,0,0,.38-.05,1.55,1.55,0,0,0,.35-.14,1.22,1.22,0,0,0,.28-.22,1,1,0,0,0,.19-.29l.44.12a1.29,1.29,0,0,1-.26.39,1.79,1.79,0,0,1-.38.31,1.88,1.88,0,0,1-.48.2A2.05,2.05,0,0,1,179.38,12.91Zm1.44-2.24a1.59,1.59,0,0,0-.15-.58,1.57,1.57,0,0,0-.32-.45,1.42,1.42,0,0,0-2,0,1.43,1.43,0,0,0-.31.45,1.72,1.72,0,0,0-.14.57Z"/><path class="cls-4" d="M183.71,12.91a1.69,1.69,0,0,1-.75-.17,2,2,0,0,1-.6-.45,2,2,0,0,1-.39-.64,2.13,2.13,0,0,1-.14-.76,2.28,2.28,0,0,1,.14-.79,2.09,2.09,0,0,1,.37-.65A1.75,1.75,0,0,1,182.9,9a1.59,1.59,0,0,1,.72-.16,1.53,1.53,0,0,1,.88.26,2,2,0,0,1,.61.63V7.34h.51v4.83c0,.14.06.21.18.21v.45l-.2,0a.44.44,0,0,1-.31-.11.34.34,0,0,1-.12-.26v-.41a1.79,1.79,0,0,1-.64.61A1.64,1.64,0,0,1,183.71,12.91Zm.11-.45a1.25,1.25,0,0,0,.41-.08,1.58,1.58,0,0,0,.4-.21,1.49,1.49,0,0,0,.32-.31.81.81,0,0,0,.17-.38V10.27a1.3,1.3,0,0,0-.22-.38,1.85,1.85,0,0,0-.33-.31,1.53,1.53,0,0,0-.39-.21,1.2,1.2,0,0,0-.41-.08,1.22,1.22,0,0,0-.58.14,1.39,1.39,0,0,0-.44.36,1.71,1.71,0,0,0-.28.51,1.73,1.73,0,0,0-.1.59,1.64,1.64,0,0,0,.42,1.1,1.49,1.49,0,0,0,.46.34A1.3,1.3,0,0,0,183.81,12.45Z"/><path class="cls-4" d="M188.43,10.86a2.14,2.14,0,0,1,.14-.78,2,2,0,0,1,.4-.64A1.88,1.88,0,0,1,189.6,9a2,2,0,0,1,.8-.16,1.83,1.83,0,0,1,1,.25,1.62,1.62,0,0,1,.62.68l-.5.16a1.2,1.2,0,0,0-.46-.47,1.29,1.29,0,0,0-.65-.17,1.32,1.32,0,0,0-.56.12,1.43,1.43,0,0,0-.45.33,1.5,1.5,0,0,0-.3.49,1.81,1.81,0,0,0,0,1.25,1.6,1.6,0,0,0,.31.51,1.48,1.48,0,0,0,.46.34,1.26,1.26,0,0,0,.55.12,1.34,1.34,0,0,0,.37-.05,1.45,1.45,0,0,0,.34-.15,1.23,1.23,0,0,0,.27-.21.7.7,0,0,0,.16-.26l.5.15a1.27,1.27,0,0,1-.24.39,1.67,1.67,0,0,1-.37.31,1.83,1.83,0,0,1-.47.2,2,2,0,0,1-.54.07A1.91,1.91,0,0,1,189,12.3a2,2,0,0,1-.41-.65A2.1,2.1,0,0,1,188.43,10.86Z"/><path class="cls-4" d="M196.12,12.83h-.51V10.64a1.77,1.77,0,0,0-.23-1,.77.77,0,0,0-.67-.33,1.15,1.15,0,0,0-.43.09,1.61,1.61,0,0,0-.4.24,1.65,1.65,0,0,0-.33.35,1.5,1.5,0,0,0-.21.44v2.4h-.51V7.34h.51V9.8a1.83,1.83,0,0,1,.65-.7,1.66,1.66,0,0,1,.89-.26,1.24,1.24,0,0,1,.58.12,1,1,0,0,1,.38.35,1.57,1.57,0,0,1,.21.53,3.26,3.26,0,0,1,.07.69Z"/><path class="cls-4" d="M198.21,12.91a1.54,1.54,0,0,1-.55-.09,1.27,1.27,0,0,1-.42-.26,1.17,1.17,0,0,1-.27-.38,1.11,1.11,0,0,1-.1-.46,1,1,0,0,1,.12-.49,1.14,1.14,0,0,1,.34-.38,1.64,1.64,0,0,1,.52-.24,2.46,2.46,0,0,1,.67-.09,3.56,3.56,0,0,1,.6.05,2.68,2.68,0,0,1,.55.15v-.35a1.13,1.13,0,0,0-.3-.82,1.07,1.07,0,0,0-.8-.3,1.73,1.73,0,0,0-.63.12,3,3,0,0,0-.64.35l-.18-.34a3.37,3.37,0,0,1,.74-.38,2.24,2.24,0,0,1,.75-.13,1.55,1.55,0,0,1,1.14.41,1.53,1.53,0,0,1,.42,1.14v1.77c0,.14.06.21.18.21v.45h-.2a.45.45,0,0,1-.27-.09.35.35,0,0,1-.14-.27l0-.31a1.7,1.7,0,0,1-.67.54A2,2,0,0,1,198.21,12.91Zm.13-.39a1.66,1.66,0,0,0,.67-.15,1.32,1.32,0,0,0,.53-.4.77.77,0,0,0,.09-.15.35.35,0,0,0,0-.15V11a3.18,3.18,0,0,0-.53-.15,2.9,2.9,0,0,0-.54-.05,1.62,1.62,0,0,0-.89.22.69.69,0,0,0-.34.61.82.82,0,0,0,.06.31.78.78,0,0,0,.18.27,1,1,0,0,0,.3.2A1.11,1.11,0,0,0,198.34,12.52Z"/><path class="cls-4" d="M203.14,12.64l-.13.06-.2.08-.26.07a1.43,1.43,0,0,1-.3,0,1.09,1.09,0,0,1-.32,0,.74.74,0,0,1-.26-.14.69.69,0,0,1-.18-.24.76.76,0,0,1-.07-.33V9.32h-.54V8.91h.54V7.59h.51V8.91h.9v.41h-.9V12a.41.41,0,0,0,.15.32.52.52,0,0,0,.32.1,1,1,0,0,0,.38-.07l.21-.1Z"/><path class="cls-4" d="M207,12.91a2.72,2.72,0,0,1-.89-.15,2.16,2.16,0,0,1-.75-.44l.23-.35a2.52,2.52,0,0,0,.67.41,2,2,0,0,0,.73.14,1.32,1.32,0,0,0,.76-.19.62.62,0,0,0,.28-.54.47.47,0,0,0-.08-.27.66.66,0,0,0-.22-.19,1.78,1.78,0,0,0-.37-.15l-.52-.13-.59-.17a1.82,1.82,0,0,1-.41-.19.67.67,0,0,1-.24-.26.84.84,0,0,1-.08-.39,1.11,1.11,0,0,1,.12-.52,1.06,1.06,0,0,1,.32-.37,1.45,1.45,0,0,1,.47-.22,2.09,2.09,0,0,1,.57-.08,2.2,2.2,0,0,1,.82.15,1.62,1.62,0,0,1,.59.39l-.25.3a1.37,1.37,0,0,0-.53-.34,1.9,1.9,0,0,0-.65-.11,1.62,1.62,0,0,0-.38,0,.89.89,0,0,0-.3.13.64.64,0,0,0-.21.23A.67.67,0,0,0,206,10a.54.54,0,0,0,.05.26.44.44,0,0,0,.17.17,1.36,1.36,0,0,0,.3.13l.45.12.66.18a2.09,2.09,0,0,1,.48.21.83.83,0,0,1,.29.29.85.85,0,0,1,.1.42,1,1,0,0,1-.41.86A1.79,1.79,0,0,1,207,12.91Z"/><path class="cls-4" d="M209.46,14h.15l.16,0,.12,0,.08-.06a1,1,0,0,0,.11-.17l.16-.35.25-.6-1.71-3.92h.53l1.45,3.44,1.34-3.44h.49l-2,5.05a.9.9,0,0,1-.3.41.92.92,0,0,1-.54.13l-.26,0Z"/><path class="cls-4" d="M214.52,12.91a2.72,2.72,0,0,1-.89-.15,2.16,2.16,0,0,1-.75-.44l.23-.35a2.52,2.52,0,0,0,.67.41,2,2,0,0,0,.73.14,1.32,1.32,0,0,0,.76-.19.62.62,0,0,0,.28-.54.47.47,0,0,0-.08-.27.66.66,0,0,0-.22-.19,1.78,1.78,0,0,0-.37-.15l-.52-.13-.59-.17a1.82,1.82,0,0,1-.41-.19.67.67,0,0,1-.24-.26.84.84,0,0,1-.08-.39,1.11,1.11,0,0,1,.12-.52,1.06,1.06,0,0,1,.32-.37,1.45,1.45,0,0,1,.47-.22,2.09,2.09,0,0,1,.57-.08,2.2,2.2,0,0,1,.82.15,1.62,1.62,0,0,1,.59.39l-.25.3a1.37,1.37,0,0,0-.53-.34,1.9,1.9,0,0,0-.65-.11,1.62,1.62,0,0,0-.38,0,.89.89,0,0,0-.3.13.64.64,0,0,0-.21.23.67.67,0,0,0-.08.33.54.54,0,0,0,.05.26.44.44,0,0,0,.17.17,1.36,1.36,0,0,0,.3.13l.45.12.66.18a2.09,2.09,0,0,1,.48.21.83.83,0,0,1,.29.29.85.85,0,0,1,.1.42,1,1,0,0,1-.41.86A1.79,1.79,0,0,1,214.52,12.91Z"/><path class="cls-4" d="M218.75,12.64l-.13.06-.2.08-.26.07a1.43,1.43,0,0,1-.3,0,1.09,1.09,0,0,1-.32,0,.74.74,0,0,1-.26-.14.69.69,0,0,1-.18-.24.76.76,0,0,1-.07-.33V9.32h-.54V8.91H217V7.59h.51V8.91h.9v.41h-.9V12a.41.41,0,0,0,.15.32.52.52,0,0,0,.32.1,1,1,0,0,0,.38-.07l.21-.1Z"/><path class="cls-4" d="M221.07,12.91a1.91,1.91,0,0,1-1.41-.61,2,2,0,0,1-.41-.65,2.1,2.1,0,0,1-.15-.79,2.06,2.06,0,0,1,.15-.78,2,2,0,0,1,1-1.07,1.91,1.91,0,0,1,2.18.44,2.06,2.06,0,0,1,.54,1.41s0,.08,0,.12a.37.37,0,0,1,0,.08h-3.35a1.65,1.65,0,0,0,.15.58,1.63,1.63,0,0,0,.32.46,1.37,1.37,0,0,0,.44.3,1.33,1.33,0,0,0,.54.11,1.41,1.41,0,0,0,.38-.05,1.55,1.55,0,0,0,.35-.14,1.22,1.22,0,0,0,.28-.22,1,1,0,0,0,.19-.29l.44.12a1.29,1.29,0,0,1-.26.39,1.79,1.79,0,0,1-.38.31,1.88,1.88,0,0,1-.48.2A2.05,2.05,0,0,1,221.07,12.91Zm1.44-2.24a1.59,1.59,0,0,0-.15-.58,1.57,1.57,0,0,0-.32-.45,1.42,1.42,0,0,0-2,0,1.43,1.43,0,0,0-.31.45,1.72,1.72,0,0,0-.14.57Z"/><path class="cls-4" d="M229.59,12.83h-.51V10.64a1.86,1.86,0,0,0-.21-1,.73.73,0,0,0-.65-.32,1.11,1.11,0,0,0-.42.08,1.31,1.31,0,0,0-.37.23,1.58,1.58,0,0,0-.3.36,1.74,1.74,0,0,0-.2.46v2.39h-.51V10.64a1.88,1.88,0,0,0-.21-1,.72.72,0,0,0-.65-.32,1.15,1.15,0,0,0-.79.31,1.72,1.72,0,0,0-.5.81v2.4h-.51V8.91h.47V9.8a1.85,1.85,0,0,1,.63-.7,1.56,1.56,0,0,1,.86-.25,1.13,1.13,0,0,1,.8.28,1.17,1.17,0,0,1,.36.73,1.68,1.68,0,0,1,1.52-1A1.18,1.18,0,0,1,229,9a1,1,0,0,1,.37.34,1.6,1.6,0,0,1,.2.53,3.48,3.48,0,0,1,.06.7Z"/></g></g></svg>