<svg xmlns="http://www.w3.org/2000/svg" viewBox="0 0 111.75 20.63"><defs><style>.cls-1{opacity:0.2;}.cls-2{fill:#3e4eaa;}.cls-3{fill:#0e174a;}.cls-4{fill:#ffbe03;}</style></defs><title>Asset 76</title><g id="Layer_2" data-name="Layer 2"><g id="Layer_1-2" data-name="Layer 1"><g class="cls-1"><path class="cls-2" d="M110,20.63H10.56c-.28,0-.51-.54-.51-1.2V15.26c0-.66.23-1.2.51-1.2H110c.28,0,.51.53.51,1.2v4.17C110.53,20.09,110.3,20.63,110,20.63Z"/></g><rect class="cls-3" x="10" y="2.95" width="101.75" height="14.41" rx="2.79" ry="2.79"/><rect class="cls-4" x="2.92" y="2.92" width="14.08" height="14.08" transform="translate(-4.12 9.95) rotate(-45)"/><path class="cls-4" d="M25.92,11a1.78,1.78,0,0,1-1.81,1.93A1.73,1.73,0,0,1,22.36,11a1.78,1.78,0,0,1,1.81-1.93A1.72,1.72,0,0,1,25.92,11ZM23,11c0,.8.46,1.4,1.11,1.4s1.11-.59,1.11-1.41c0-.62-.31-1.4-1.09-1.4S23,10.33,23,11Z"/><path class="cls-4" d="M26.75,10.33c0-.43,0-.8,0-1.14h.58l0,.71h0a1.09,1.09,0,0,1,1-.8l.19,0v.62l-.23,0a.93.93,0,0,0-.89.85,1.84,1.84,0,0,0,0,.31v1.94h-.65Z"/><path class="cls-4" d="M33.4,12.7a2.44,2.44,0,0,1-1,.21A1.73,1.73,0,0,1,30.54,11a1.85,1.85,0,0,1,2-1.93,2.22,2.22,0,0,1,.92.19l-.15.51a1.54,1.54,0,0,0-.77-.17A1.26,1.26,0,0,0,31.21,11a1.25,1.25,0,0,0,1.26,1.36,1.88,1.88,0,0,0,.81-.18Z"/><path class="cls-4" d="M34.17,10.33c0-.43,0-.8,0-1.14h.58l0,.71h0a1.09,1.09,0,0,1,1-.8l.19,0v.62l-.23,0a.93.93,0,0,0-.89.85,1.84,1.84,0,0,0,0,.31v1.94h-.65Z"/><path class="cls-4" d="M36.92,11.13a1.17,1.17,0,0,0,1.25,1.26,2.39,2.39,0,0,0,1-.19l.11.47a3,3,0,0,1-1.21.23,1.69,1.69,0,0,1-1.79-1.84,1.77,1.77,0,0,1,1.71-2,1.54,1.54,0,0,1,1.5,1.72,2.53,2.53,0,0,1,0,.31Zm1.94-.47a.94.94,0,0,0-.92-1.08,1.1,1.1,0,0,0-1,1.08Z"/><path class="cls-4" d="M42.33,12.83l-.05-.46h0a1.35,1.35,0,0,1-1.11.54,1,1,0,0,1-1.11-1c0-.88.78-1.36,2.19-1.35v-.08a.75.75,0,0,0-.83-.84,1.81,1.81,0,0,0-.95.27l-.15-.44a2.26,2.26,0,0,1,1.2-.32c1.11,0,1.38.76,1.38,1.49V12a5.15,5.15,0,0,0,.06.87ZM42.23,11c-.72,0-1.54.11-1.54.82a.59.59,0,0,0,.62.63.91.91,0,0,0,.88-.61.69.69,0,0,0,0-.21Z"/><path class="cls-4" d="M44.71,8.14v1h.95v.5h-.95v2c0,.45.13.71.5.71a1.45,1.45,0,0,0,.38,0l0,.5a1.62,1.62,0,0,1-.59.09.92.92,0,0,1-.71-.28,1.35,1.35,0,0,1-.26-.95v-2H43.5v-.5h.56V8.32Z"/><path class="cls-4" d="M46.72,11.13A1.17,1.17,0,0,0,48,12.39a2.39,2.39,0,0,0,1-.19l.11.47a3,3,0,0,1-1.21.23,1.69,1.69,0,0,1-1.79-1.84,1.77,1.77,0,0,1,1.71-2,1.54,1.54,0,0,1,1.5,1.72,2.53,2.53,0,0,1,0,.31Zm1.94-.47a.94.94,0,0,0-.92-1.08,1.1,1.1,0,0,0-1,1.08Z"/><path class="cls-4" d="M52,9.19l.8,2.15c.08.24.17.53.23.74h0c.07-.22.14-.5.23-.76L54,9.19h.7l-1,2.6a5.54,5.54,0,0,1-1.25,2.28,1.8,1.8,0,0,1-.81.43l-.17-.56a1.75,1.75,0,0,0,.58-.32,2,2,0,0,0,.56-.74.47.47,0,0,0,.05-.16.57.57,0,0,0,0-.17L51.23,9.19Z"/><path class="cls-4" d="M58.47,11a1.78,1.78,0,0,1-1.81,1.93A1.73,1.73,0,0,1,54.91,11a1.78,1.78,0,0,1,1.81-1.93A1.72,1.72,0,0,1,58.47,11Zm-2.89,0c0,.8.46,1.4,1.11,1.4S57.8,11.82,57.8,11c0-.62-.31-1.4-1.09-1.4S55.58,10.33,55.58,11Z"/><path class="cls-4" d="M62.35,11.84c0,.38,0,.71,0,1h-.59l0-.59h0a1.37,1.37,0,0,1-1.2.68c-.57,0-1.26-.32-1.26-1.59V9.19h.66v2c0,.69.21,1.16.81,1.16a.93.93,0,0,0,.93-.94V9.19h.66Z"/><path class="cls-4" d="M63.45,10.33c0-.43,0-.8,0-1.14H64l0,.71h0a1.09,1.09,0,0,1,1-.8l.19,0v.62l-.23,0a.93.93,0,0,0-.89.85,1.84,1.84,0,0,0,0,.31v1.94h-.65Z"/><path class="cls-4" d="M70.79,11A1.78,1.78,0,0,1,69,12.91,1.73,1.73,0,0,1,67.24,11,1.78,1.78,0,0,1,69,9.11,1.72,1.72,0,0,1,70.79,11Zm-2.89,0c0,.8.46,1.4,1.11,1.4s1.11-.59,1.11-1.41c0-.62-.31-1.4-1.09-1.4S67.91,10.33,67.91,11Z"/><path class="cls-4" d="M71.84,9.19,72.32,11c.11.41.2.78.27,1.16h0c.08-.37.2-.76.32-1.15l.59-1.86h.56L74.65,11c.14.44.24.82.32,1.19h0A10.86,10.86,0,0,1,75.27,11l.52-1.83h.65l-1.17,3.64h-.6l-.56-1.74a12.14,12.14,0,0,1-.32-1.2h0a10.82,10.82,0,0,1-.33,1.2l-.59,1.73h-.6l-1.1-3.64Z"/><path class="cls-4" d="M77.11,10.18c0-.38,0-.68,0-1h.59l0,.6h0a1.34,1.34,0,0,1,1.2-.68c.5,0,1.29.3,1.29,1.55v2.17h-.66v-2.1c0-.59-.22-1.08-.84-1.08a1,1,0,0,0-.93,1v2.19h-.66Z"/><path class="cls-4" d="M82.87,7.49h.66v5.34h-.66Z"/><path class="cls-4" d="M85,11.13a1.17,1.17,0,0,0,1.25,1.26,2.39,2.39,0,0,0,1-.19l.11.47a3,3,0,0,1-1.21.23,1.69,1.69,0,0,1-1.79-1.84,1.77,1.77,0,0,1,1.71-2,1.54,1.54,0,0,1,1.5,1.72,2.53,2.53,0,0,1,0,.31ZM87,10.66A.94.94,0,0,0,86,9.58a1.1,1.1,0,0,0-1,1.08Z"/><path class="cls-4" d="M90.43,12.83l-.05-.46h0a1.36,1.36,0,0,1-1.11.54,1,1,0,0,1-1.11-1c0-.88.78-1.36,2.19-1.35v-.08a.75.75,0,0,0-.83-.84,1.81,1.81,0,0,0-.95.27l-.15-.44a2.26,2.26,0,0,1,1.2-.32c1.11,0,1.38.76,1.38,1.49V12a5.15,5.15,0,0,0,.06.87ZM90.33,11c-.72,0-1.54.11-1.54.82a.59.59,0,0,0,.62.63.91.91,0,0,0,.88-.61.69.69,0,0,0,0-.21Z"/><path class="cls-4" d="M95.17,9.19c0,.26,0,.56,0,1V12.3A2.09,2.09,0,0,1,94.62,14a1.93,1.93,0,0,1-1.32.44,2.35,2.35,0,0,1-1.21-.3l.17-.5a2.05,2.05,0,0,0,1.07.29c.68,0,1.17-.35,1.17-1.27v-.41h0a1.3,1.3,0,0,1-1.16.61A1.63,1.63,0,0,1,91.77,11a1.75,1.75,0,0,1,1.64-1.93,1.21,1.21,0,0,1,1.14.63h0l0-.55Zm-.68,1.44a.94.94,0,0,0,0-.3,1,1,0,0,0-.93-.7c-.63,0-1.08.53-1.08,1.38s.36,1.31,1.08,1.31a1,1,0,0,0,.92-.68,1.15,1.15,0,0,0,.05-.35Z"/><path class="cls-4" d="M99.28,11.84c0,.38,0,.71,0,1h-.59l0-.59h0a1.37,1.37,0,0,1-1.2.68c-.57,0-1.26-.32-1.26-1.59V9.19h.66v2c0,.69.21,1.16.81,1.16a.93.93,0,0,0,.93-.94V9.19h.66Z"/><path class="cls-4" d="M100.75,11.13A1.17,1.17,0,0,0,102,12.39a2.39,2.39,0,0,0,1-.19l.11.47a3,3,0,0,1-1.21.23,1.69,1.69,0,0,1-1.79-1.84,1.77,1.77,0,0,1,1.71-2,1.54,1.54,0,0,1,1.5,1.72,2.53,2.53,0,0,1,0,.31Zm1.94-.47a.94.94,0,0,0-.92-1.08,1.1,1.1,0,0,0-1,1.08Z"/><path class="cls-4" d="M104.06,12.15a1.73,1.73,0,0,0,.87.26c.48,0,.71-.24.71-.54s-.19-.49-.68-.67c-.65-.23-1-.59-1-1a1.12,1.12,0,0,1,1.26-1.07,1.82,1.82,0,0,1,.9.23l-.17.48a1.42,1.42,0,0,0-.74-.21c-.39,0-.61.23-.61.5s.22.44.69.62c.63.24,1,.56,1,1.1s-.5,1.09-1.36,1.09a2.08,2.08,0,0,1-1-.25Z"/></g></g></svg>