<svg xmlns="http://www.w3.org/2000/svg" viewBox="0 0 233.15 20.63"><defs><style>.cls-1{opacity:0.2;}.cls-2{fill:#3e4eaa;}.cls-3{fill:#0e174a;}.cls-4{fill:#ffbe03;}</style></defs><title>Asset 78</title><g id="Layer_2" data-name="Layer 2"><g id="Layer_1-2" data-name="Layer 1"><g class="cls-1"><path class="cls-2" d="M229.36,20.63H11.23a1.16,1.16,0,0,1-1.11-1.2V15.26a1.16,1.16,0,0,1,1.11-1.2H229.34a1.16,1.16,0,0,1,1.11,1.2v4.17A1.16,1.16,0,0,1,229.36,20.63Z"/></g><rect class="cls-3" x="10" y="2.95" width="223.15" height="14.41" rx="2.79" ry="2.79"/><rect class="cls-4" x="2.92" y="2.92" width="14.08" height="14.08" transform="translate(-4.12 9.95) rotate(-45)"/><path class="cls-4" d="M25.92,11a1.78,1.78,0,0,1-1.81,1.93A1.73,1.73,0,0,1,22.36,11a1.78,1.78,0,0,1,1.81-1.93A1.72,1.72,0,0,1,25.92,11ZM23,11c0,.8.46,1.4,1.11,1.4s1.11-.59,1.11-1.41c0-.62-.31-1.4-1.09-1.4S23,10.33,23,11Z"/><path class="cls-4" d="M29.79,11.84c0,.38,0,.71,0,1h-.59l0-.59h0a1.37,1.37,0,0,1-1.2.68c-.57,0-1.26-.32-1.26-1.59V9.19h.66v2c0,.69.21,1.16.81,1.16a.93.93,0,0,0,.93-.94V9.19h.66Z"/><path class="cls-4" d="M30.89,10.33c0-.43,0-.8,0-1.14h.58l0,.71h0a1.09,1.09,0,0,1,1-.8l.19,0v.62l-.23,0a.93.93,0,0,0-.89.85,1.84,1.84,0,0,0,0,.31v1.94h-.65Z"/><path class="cls-4" d="M34.85,12.15a1.73,1.73,0,0,0,.87.26c.48,0,.71-.24.71-.54s-.19-.49-.68-.67c-.65-.23-1-.59-1-1A1.12,1.12,0,0,1,36,9.11a1.82,1.82,0,0,1,.9.23l-.17.48A1.42,1.42,0,0,0,36,9.6c-.39,0-.61.23-.61.5s.22.44.69.62c.63.24,1,.56,1,1.1s-.5,1.09-1.36,1.09a2.08,2.08,0,0,1-1-.25Z"/><path class="cls-4" d="M38.16,9.19l.8,2.15c.08.24.17.53.23.74h0c.07-.22.14-.5.23-.76l.72-2.14h.7l-1,2.6a5.54,5.54,0,0,1-1.25,2.28,1.8,1.8,0,0,1-.81.43l-.17-.56a1.75,1.75,0,0,0,.58-.32,2,2,0,0,0,.56-.74.47.47,0,0,0,.05-.16.57.57,0,0,0,0-.17L37.44,9.19Z"/><path class="cls-4" d="M41.32,12.15a1.73,1.73,0,0,0,.87.26c.48,0,.71-.24.71-.54s-.19-.49-.68-.67c-.65-.23-1-.59-1-1a1.12,1.12,0,0,1,1.26-1.07,1.82,1.82,0,0,1,.9.23l-.17.48a1.42,1.42,0,0,0-.74-.21c-.39,0-.61.23-.61.5s.22.44.69.62c.63.24,1,.56,1,1.1s-.5,1.09-1.36,1.09a2.08,2.08,0,0,1-1-.25Z"/><path class="cls-4" d="M45.19,8.14v1h.95v.5h-.95v2c0,.45.13.71.5.71a1.45,1.45,0,0,0,.38,0l0,.5a1.62,1.62,0,0,1-.59.09.92.92,0,0,1-.71-.28,1.35,1.35,0,0,1-.26-.95v-2H44v-.5h.56V8.32Z"/><path class="cls-4" d="M47.2,11.13a1.17,1.17,0,0,0,1.25,1.26,2.39,2.39,0,0,0,1-.19l.11.47a3,3,0,0,1-1.21.23,1.69,1.69,0,0,1-1.79-1.84,1.77,1.77,0,0,1,1.71-2,1.54,1.54,0,0,1,1.5,1.72,2.53,2.53,0,0,1,0,.31Zm1.94-.47a.94.94,0,0,0-.92-1.08,1.1,1.1,0,0,0-1,1.08Z"/><path class="cls-4" d="M50.6,10.18c0-.38,0-.68,0-1h.58l0,.59h0a1.25,1.25,0,0,1,1.14-.67,1.08,1.08,0,0,1,1,.73h0a1.5,1.5,0,0,1,.41-.47,1.24,1.24,0,0,1,.81-.26c.48,0,1.2.32,1.2,1.58v2.14h-.65V10.77c0-.7-.26-1.12-.79-1.12a.86.86,0,0,0-.78.6,1.08,1.08,0,0,0-.05.33v2.25h-.65V10.65c0-.58-.26-1-.76-1a1,1,0,0,0-.87,1v2.2H50.6Z"/><path class="cls-4" d="M58.46,7.49h.66v5.34h-.66Z"/><path class="cls-4" d="M60.61,11.13a1.17,1.17,0,0,0,1.25,1.26,2.39,2.39,0,0,0,1-.19l.11.47a3,3,0,0,1-1.21.23A1.69,1.69,0,0,1,60,11.07a1.77,1.77,0,0,1,1.71-2,1.54,1.54,0,0,1,1.5,1.72,2.53,2.53,0,0,1,0,.31Zm1.94-.47a.94.94,0,0,0-.92-1.08,1.1,1.1,0,0,0-1,1.08Z"/><path class="cls-4" d="M64.8,8.14v1h.95v.5H64.8v2c0,.45.13.71.5.71a1.45,1.45,0,0,0,.38,0l0,.5a1.62,1.62,0,0,1-.59.09.92.92,0,0,1-.71-.28,1.35,1.35,0,0,1-.26-.95v-2h-.56v-.5h.56V8.32Z"/><path class="cls-4" d="M66.4,12.15a1.73,1.73,0,0,0,.87.26c.48,0,.71-.24.71-.54s-.19-.49-.68-.67c-.65-.23-1-.59-1-1A1.12,1.12,0,0,1,67.6,9.11a1.82,1.82,0,0,1,.9.23l-.17.48a1.42,1.42,0,0,0-.74-.21c-.39,0-.61.23-.61.5s.22.44.69.62c.63.24,1,.56,1,1.1s-.5,1.09-1.36,1.09a2.08,2.08,0,0,1-1-.25Z"/><path class="cls-4" d="M71.3,9.19l.8,2.15c.08.24.17.53.23.74h0c.07-.22.14-.5.23-.76l.72-2.14H74l-1,2.6a5.54,5.54,0,0,1-1.25,2.28,1.8,1.8,0,0,1-.81.43l-.17-.56a1.75,1.75,0,0,0,.58-.32,2,2,0,0,0,.56-.74.47.47,0,0,0,.05-.16.57.57,0,0,0,0-.17L70.58,9.19Z"/><path class="cls-4" d="M77.82,11A1.78,1.78,0,0,1,76,12.91,1.73,1.73,0,0,1,74.26,11a1.78,1.78,0,0,1,1.81-1.93A1.72,1.72,0,0,1,77.82,11Zm-2.89,0c0,.8.46,1.4,1.11,1.4s1.11-.59,1.11-1.41c0-.62-.31-1.4-1.09-1.4S74.93,10.33,74.93,11Z"/><path class="cls-4" d="M81.7,11.84c0,.38,0,.71,0,1h-.59l0-.59h0a1.37,1.37,0,0,1-1.2.68c-.57,0-1.26-.32-1.26-1.59V9.19h.66v2c0,.69.21,1.16.81,1.16a.93.93,0,0,0,.93-.94V9.19h.66Z"/><path class="cls-4" d="M87.44,11.84c0,.38,0,.71,0,1h-.59l0-.59h0a1.37,1.37,0,0,1-1.2.68c-.57,0-1.26-.32-1.26-1.59V9.19H85v2c0,.69.21,1.16.81,1.16a.93.93,0,0,0,.93-.94V9.19h.66Z"/><path class="cls-4" d="M88.53,10.38c0-.47,0-.84,0-1.19h.59l0,.62h0a1.43,1.43,0,0,1,1.29-.71A1.65,1.65,0,0,1,92,11a1.72,1.72,0,0,1-1.66,2,1.28,1.28,0,0,1-1.12-.57h0v2h-.65Zm.65,1a1.49,1.49,0,0,0,0,.27,1,1,0,0,0,1,.77c.7,0,1.11-.57,1.11-1.41s-.38-1.35-1.08-1.35a1.06,1.06,0,0,0-1,.82,1.07,1.07,0,0,0,0,.27Z"/><path class="cls-4" d="M92.81,7.49h.66v5.34h-.66Z"/><path class="cls-4" d="M97.88,11a1.78,1.78,0,0,1-1.81,1.93A1.73,1.73,0,0,1,94.32,11a1.78,1.78,0,0,1,1.81-1.93A1.72,1.72,0,0,1,97.88,11ZM95,11c0,.8.46,1.4,1.11,1.4S97.2,11.82,97.2,11c0-.62-.31-1.4-1.09-1.4S95,10.33,95,11Z"/><path class="cls-4" d="M100.73,12.83l-.05-.46h0a1.36,1.36,0,0,1-1.11.54,1,1,0,0,1-1.11-1c0-.88.78-1.36,2.19-1.35v-.08a.75.75,0,0,0-.83-.84,1.81,1.81,0,0,0-.95.27l-.15-.44a2.26,2.26,0,0,1,1.2-.32c1.11,0,1.38.76,1.38,1.49V12a5.15,5.15,0,0,0,.06.87Zm-.1-1.86c-.72,0-1.54.11-1.54.82a.59.59,0,0,0,.62.63.91.91,0,0,0,.88-.61.69.69,0,0,0,0-.21Z"/><path class="cls-4" d="M105.48,7.49v4.4c0,.32,0,.69,0,.94h-.59l0-.63h0a1.35,1.35,0,0,1-1.24.71,1.66,1.66,0,0,1-1.56-1.85,1.74,1.74,0,0,1,1.63-2,1.22,1.22,0,0,1,1.1.56h0V7.49Zm-.66,3.18a1.18,1.18,0,0,0,0-.28,1,1,0,0,0-1-.77c-.68,0-1.09.6-1.09,1.41s.36,1.35,1.08,1.35a1,1,0,0,0,1-.79,1.16,1.16,0,0,0,0-.29Z"/><path class="cls-4" d="M110.76,12.7a2.44,2.44,0,0,1-1,.21A1.73,1.73,0,0,1,107.9,11a1.85,1.85,0,0,1,2-1.93,2.22,2.22,0,0,1,.92.19l-.15.51a1.53,1.53,0,0,0-.77-.17A1.26,1.26,0,0,0,108.57,11a1.25,1.25,0,0,0,1.26,1.36,1.88,1.88,0,0,0,.81-.18Z"/><path class="cls-4" d="M114.58,11.84c0,.38,0,.71,0,1H114l0-.59h0a1.37,1.37,0,0,1-1.2.68c-.57,0-1.26-.32-1.26-1.59V9.19h.66v2c0,.69.21,1.16.81,1.16a.93.93,0,0,0,.93-.94V9.19h.66Z"/><path class="cls-4" d="M115.59,12.15a1.73,1.73,0,0,0,.87.26c.48,0,.71-.24.71-.54s-.19-.49-.68-.67c-.65-.23-1-.59-1-1a1.12,1.12,0,0,1,1.26-1.07,1.82,1.82,0,0,1,.9.23l-.17.48a1.42,1.42,0,0,0-.74-.21c-.39,0-.61.23-.61.5s.22.44.69.62c.63.24,1,.56,1,1.1s-.5,1.09-1.36,1.09a2.08,2.08,0,0,1-1-.25Z"/><path class="cls-4" d="M119.45,8.14v1h.95v.5h-.95v2c0,.45.13.71.5.71a1.45,1.45,0,0,0,.38,0l0,.5a1.62,1.62,0,0,1-.59.09.92.92,0,0,1-.71-.28,1.35,1.35,0,0,1-.26-.95v-2h-.56v-.5h.56V8.32Z"/><path class="cls-4" d="M124.39,11a1.78,1.78,0,0,1-1.81,1.93A1.73,1.73,0,0,1,120.83,11a1.78,1.78,0,0,1,1.81-1.93A1.72,1.72,0,0,1,124.39,11Zm-2.89,0c0,.8.46,1.4,1.11,1.4s1.11-.59,1.11-1.41c0-.62-.31-1.4-1.09-1.4S121.5,10.33,121.5,11Z"/><path class="cls-4" d="M125.22,10.18c0-.38,0-.68,0-1h.58l0,.59h0A1.25,1.25,0,0,1,127,9.11a1.08,1.08,0,0,1,1,.73h0a1.5,1.5,0,0,1,.41-.47,1.24,1.24,0,0,1,.81-.26c.48,0,1.2.32,1.2,1.58v2.14h-.65V10.77c0-.7-.26-1.12-.79-1.12a.86.86,0,0,0-.78.6,1.08,1.08,0,0,0-.05.33v2.25h-.65V10.65c0-.58-.26-1-.76-1a1,1,0,0,0-.87,1v2.2h-.65Z"/><path class="cls-4" d="M136.23,7.49v4.4c0,.32,0,.69,0,.94h-.59l0-.63h0a1.35,1.35,0,0,1-1.24.71,1.66,1.66,0,0,1-1.56-1.85,1.74,1.74,0,0,1,1.63-2,1.22,1.22,0,0,1,1.1.56h0V7.49Zm-.66,3.18a1.18,1.18,0,0,0,0-.28,1,1,0,0,0-1-.77c-.68,0-1.09.6-1.09,1.41s.36,1.35,1.08,1.35a1,1,0,0,0,1-.79,1.16,1.16,0,0,0,0-.29Z"/><path class="cls-4" d="M139.34,12.83l-.05-.46h0a1.35,1.35,0,0,1-1.11.54,1,1,0,0,1-1.11-1c0-.88.78-1.36,2.19-1.35v-.08a.75.75,0,0,0-.83-.84,1.81,1.81,0,0,0-.95.27l-.15-.44a2.26,2.26,0,0,1,1.2-.32c1.11,0,1.38.76,1.38,1.49V12a5.15,5.15,0,0,0,.06.87Zm-.1-1.86c-.72,0-1.54.11-1.54.82a.59.59,0,0,0,.62.63.91.91,0,0,0,.88-.61.69.69,0,0,0,0-.21Z"/><path class="cls-4" d="M141.72,8.14v1h.95v.5h-.95v2c0,.45.13.71.5.71a1.45,1.45,0,0,0,.38,0l0,.5a1.62,1.62,0,0,1-.59.09.92.92,0,0,1-.71-.28,1.35,1.35,0,0,1-.26-.95v-2h-.56v-.5h.56V8.32Z"/><path class="cls-4" d="M145.42,12.83l-.05-.46h0a1.36,1.36,0,0,1-1.11.54,1,1,0,0,1-1.11-1c0-.88.78-1.36,2.19-1.35v-.08a.75.75,0,0,0-.83-.84,1.81,1.81,0,0,0-.95.27l-.15-.44a2.26,2.26,0,0,1,1.2-.32c1.11,0,1.38.76,1.38,1.49V12a5.15,5.15,0,0,0,.06.87Zm-.1-1.86c-.72,0-1.54.11-1.54.82a.59.59,0,0,0,.62.63.91.91,0,0,0,.88-.61.69.69,0,0,0,0-.21Z"/><path class="cls-4" d="M148.69,12.83V9.69h-.51v-.5h.51V9a1.72,1.72,0,0,1,.42-1.27,1.27,1.27,0,0,1,.89-.34,1.53,1.53,0,0,1,.56.11l-.09.51a1,1,0,0,0-.42-.08c-.56,0-.71.5-.71,1.05v.2h.88v.5h-.88v3.14Z"/><path class="cls-4" d="M154,11a1.78,1.78,0,0,1-1.81,1.93A1.73,1.73,0,0,1,150.46,11a1.78,1.78,0,0,1,1.81-1.93A1.72,1.72,0,0,1,154,11Zm-2.89,0c0,.8.46,1.4,1.11,1.4s1.11-.59,1.11-1.41c0-.62-.31-1.4-1.09-1.4S151.13,10.33,151.13,11Z"/><path class="cls-4" d="M154.85,10.33c0-.43,0-.8,0-1.14h.58l0,.71h0a1.09,1.09,0,0,1,1-.8l.19,0v.62l-.23,0a.93.93,0,0,0-.89.85,1.84,1.84,0,0,0,0,.31v1.94h-.65Z"/><path class="cls-4" d="M160.92,12.83l-.05-.46h0a1.36,1.36,0,0,1-1.11.54,1,1,0,0,1-1.11-1c0-.88.78-1.36,2.19-1.35v-.08A.75.75,0,0,0,160,9.6a1.81,1.81,0,0,0-.95.27l-.15-.44a2.26,2.26,0,0,1,1.2-.32c1.11,0,1.38.76,1.38,1.49V12a5.15,5.15,0,0,0,.06.87Zm-.1-1.86c-.72,0-1.54.11-1.54.82a.59.59,0,0,0,.62.63.91.91,0,0,0,.88-.61.69.69,0,0,0,0-.21Z"/><path class="cls-4" d="M162.52,10.18c0-.38,0-.68,0-1h.59l0,.6h0a1.34,1.34,0,0,1,1.2-.68c.5,0,1.29.3,1.29,1.55v2.17H165v-2.1c0-.59-.22-1.08-.84-1.08a1,1,0,0,0-.93,1v2.19h-.66Z"/><path class="cls-4" d="M166.84,9.19l.8,2.15c.08.24.17.53.23.74h0c.07-.22.14-.5.23-.76l.72-2.14h.7l-1,2.6a5.54,5.54,0,0,1-1.25,2.28,1.8,1.8,0,0,1-.81.43l-.17-.56a1.75,1.75,0,0,0,.58-.32,2,2,0,0,0,.56-.74.47.47,0,0,0,.05-.16.57.57,0,0,0,0-.17l-1.35-3.36Z"/><path class="cls-4" d="M171.64,12.15a1.73,1.73,0,0,0,.87.26c.48,0,.71-.24.71-.54s-.19-.49-.68-.67c-.65-.23-1-.59-1-1a1.12,1.12,0,0,1,1.26-1.07,1.82,1.82,0,0,1,.9.23l-.17.48a1.42,1.42,0,0,0-.74-.21c-.39,0-.61.23-.61.5s.22.44.69.62c.63.24,1,.56,1,1.1s-.5,1.09-1.36,1.09a2.08,2.08,0,0,1-1-.25Z"/><path class="cls-4" d="M174.71,10.38c0-.47,0-.84,0-1.19h.59l0,.62h0a1.43,1.43,0,0,1,1.29-.71A1.65,1.65,0,0,1,178.15,11a1.72,1.72,0,0,1-1.66,2,1.28,1.28,0,0,1-1.12-.57h0v2h-.65Zm.65,1a1.49,1.49,0,0,0,0,.27,1,1,0,0,0,1,.77c.7,0,1.11-.57,1.11-1.41s-.38-1.35-1.08-1.35a1.06,1.06,0,0,0-1,.82,1.07,1.07,0,0,0,0,.27Z"/><path class="cls-4" d="M182.28,11a1.78,1.78,0,0,1-1.81,1.93A1.73,1.73,0,0,1,178.72,11a1.78,1.78,0,0,1,1.81-1.93A1.72,1.72,0,0,1,182.28,11Zm-2.89,0c0,.8.46,1.4,1.11,1.4s1.11-.59,1.11-1.41c0-.62-.31-1.4-1.09-1.4S179.39,10.33,179.39,11Z"/><path class="cls-4" d="M183.11,10.33c0-.43,0-.8,0-1.14h.58l0,.71h0a1.09,1.09,0,0,1,1-.8l.19,0v.62l-.23,0a.93.93,0,0,0-.89.85,1.84,1.84,0,0,0,0,.31v1.94h-.65Z"/><path class="cls-4" d="M186.55,8.14v1h.95v.5h-.95v2c0,.45.13.71.5.71a1.45,1.45,0,0,0,.38,0l0,.5a1.62,1.62,0,0,1-.59.09.92.92,0,0,1-.71-.28,1.35,1.35,0,0,1-.26-.95v-2h-.56v-.5h.56V8.32Z"/><path class="cls-4" d="M190.63,8.14v1h.95v.5h-.95v2c0,.45.13.71.5.71a1.45,1.45,0,0,0,.38,0l0,.5a1.62,1.62,0,0,1-.59.09.92.92,0,0,1-.71-.28,1.35,1.35,0,0,1-.26-.95v-2h-.56v-.5H190V8.32Z"/><path class="cls-4" d="M192.32,7.49H193V9.76h0a1.23,1.23,0,0,1,.47-.47,1.36,1.36,0,0,1,.68-.19c.49,0,1.27.3,1.27,1.56v2.17h-.66V10.74c0-.59-.22-1.08-.84-1.08a1,1,0,0,0-.89.66.8.8,0,0,0,0,.32v2.2h-.66Z"/><path class="cls-4" d="M198.51,12.83l-.05-.46h0a1.35,1.35,0,0,1-1.11.54,1,1,0,0,1-1.11-1c0-.88.78-1.36,2.19-1.35v-.08a.75.75,0,0,0-.83-.84,1.81,1.81,0,0,0-.95.27l-.15-.44a2.26,2.26,0,0,1,1.2-.32c1.11,0,1.38.76,1.38,1.49V12a5.15,5.15,0,0,0,.06.87Zm-.1-1.86c-.72,0-1.54.11-1.54.82a.59.59,0,0,0,.62.63.91.91,0,0,0,.88-.61.69.69,0,0,0,0-.21Z"/><path class="cls-4" d="M200.88,8.14v1h.95v.5h-.95v2c0,.45.13.71.5.71a1.45,1.45,0,0,0,.38,0l0,.5a1.62,1.62,0,0,1-.59.09.92.92,0,0,1-.71-.28,1.35,1.35,0,0,1-.26-.95v-2h-.56v-.5h.56V8.32Z"/><path class="cls-4" d="M204.41,9.19l.8,2.15c.08.24.17.53.23.74h0c.07-.22.14-.5.23-.76l.72-2.14h.7l-1,2.6a5.54,5.54,0,0,1-1.25,2.28,1.8,1.8,0,0,1-.81.43l-.17-.56a1.75,1.75,0,0,0,.58-.32,2,2,0,0,0,.56-.74.47.47,0,0,0,.05-.16.57.57,0,0,0,0-.17l-1.35-3.36Z"/><path class="cls-4" d="M210.93,11a1.78,1.78,0,0,1-1.81,1.93A1.73,1.73,0,0,1,207.37,11a1.78,1.78,0,0,1,1.81-1.93A1.72,1.72,0,0,1,210.93,11ZM208,11c0,.8.46,1.4,1.11,1.4s1.11-.59,1.11-1.41c0-.62-.31-1.4-1.09-1.4S208,10.33,208,11Z"/><path class="cls-4" d="M214.81,11.84c0,.38,0,.71,0,1h-.59l0-.59h0a1.37,1.37,0,0,1-1.2.68c-.57,0-1.26-.32-1.26-1.59V9.19h.66v2c0,.69.21,1.16.81,1.16a.93.93,0,0,0,.93-.94V9.19h.66Z"/><path class="cls-4" d="M217.76,9.19l.48,1.85c.11.41.2.78.27,1.16h0c.08-.37.2-.76.32-1.15l.59-1.86H220l.56,1.82c.14.44.24.82.32,1.19h0A10.86,10.86,0,0,1,221.2,11l.52-1.83h.65l-1.17,3.64h-.6L220,11.09a12.14,12.14,0,0,1-.32-1.2h0a10.82,10.82,0,0,1-.33,1.2l-.59,1.73h-.6l-1.1-3.64Z"/><path class="cls-4" d="M223.77,8.17a.41.41,0,0,1-.82,0,.4.4,0,0,1,.41-.41A.39.39,0,0,1,223.77,8.17ZM223,12.83V9.19h.66v3.64Z"/><path class="cls-4" d="M224.7,12.15a1.73,1.73,0,0,0,.87.26c.48,0,.71-.24.71-.54s-.19-.49-.68-.67c-.65-.23-1-.59-1-1a1.12,1.12,0,0,1,1.26-1.07,1.82,1.82,0,0,1,.9.23l-.17.48a1.42,1.42,0,0,0-.74-.21c-.39,0-.61.23-.61.5s.22.44.69.62c.63.24,1,.56,1,1.1s-.5,1.09-1.36,1.09a2.08,2.08,0,0,1-1-.25Z"/><path class="cls-4" d="M227.77,7.49h.66V9.76h0a1.23,1.23,0,0,1,.47-.47,1.36,1.36,0,0,1,.68-.19c.49,0,1.27.3,1.27,1.56v2.17h-.66V10.74c0-.59-.22-1.08-.84-1.08a1,1,0,0,0-.89.66.8.8,0,0,0,0,.32v2.2h-.66Z"/></g></g></svg>