<svg xmlns="http://www.w3.org/2000/svg" viewBox="0 0 257.15 20.63"><defs><style>.cls-1{opacity:0.2;}.cls-2{fill:#3e4eaa;}.cls-3{fill:#0e174a;}.cls-4{fill:#ffbe03;}</style></defs><title>Asset 96</title><g id="Layer_2" data-name="Layer 2"><g id="Layer_1-2" data-name="Layer 1"><g class="cls-1"><path class="cls-2" d="M252.95,20.63H11.37a1.22,1.22,0,0,1-1.23-1.2V15.26a1.22,1.22,0,0,1,1.23-1.2H252.93a1.22,1.22,0,0,1,1.23,1.2l0,4.17A1.22,1.22,0,0,1,252.95,20.63Z"/></g><rect class="cls-3" x="10" y="2.95" width="247.15" height="14.41" rx="2.79" ry="2.79"/><rect class="cls-4" x="2.92" y="2.92" width="14.08" height="14.08" transform="translate(-4.12 9.95) rotate(-45)"/><path class="cls-4" d="M24.31,12.91a1.88,1.88,0,0,1-.79-.16,1.91,1.91,0,0,1-.62-.44,2,2,0,0,1-.4-.65,2.12,2.12,0,0,1-.14-.77,2.09,2.09,0,0,1,.15-.78,2.05,2.05,0,0,1,.41-.65A2,2,0,0,1,23.53,9a1.91,1.91,0,0,1,1.56,0,2,2,0,0,1,.62.44,2.05,2.05,0,0,1,.41.65,2.1,2.1,0,0,1,.15.78,2.07,2.07,0,0,1-.15.77,2,2,0,0,1-.41.65,1.91,1.91,0,0,1-.62.44A1.86,1.86,0,0,1,24.31,12.91Zm-1.42-2a1.68,1.68,0,0,0,.11.61,1.61,1.61,0,0,0,.3.5,1.38,1.38,0,0,0,.45.33,1.3,1.3,0,0,0,.55.12,1.26,1.26,0,0,0,.55-.12,1.46,1.46,0,0,0,.45-.34,1.61,1.61,0,0,0,.31-.5,1.73,1.73,0,0,0,0-1.23,1.6,1.6,0,0,0-.31-.5,1.47,1.47,0,0,0-.45-.34,1.24,1.24,0,0,0-.55-.12,1.27,1.27,0,0,0-.55.12,1.39,1.39,0,0,0-.45.34,1.7,1.7,0,0,0-.42,1.13Z"/><path class="cls-4" d="M28.3,12.91a1.09,1.09,0,0,1-.93-.42,2.11,2.11,0,0,1-.32-1.27V8.91h.51v2.21q0,1.33.91,1.33a1.35,1.35,0,0,0,.44-.08,1.39,1.39,0,0,0,.4-.22,1.77,1.77,0,0,0,.33-.34,1.71,1.71,0,0,0,.24-.44V8.91h.51v3.25c0,.14.06.21.19.21v.45l-.21,0a.44.44,0,0,1-.3-.1.33.33,0,0,1-.12-.26v-.54a1.88,1.88,0,0,1-1.65,1Z"/><path class="cls-4" d="M33.51,9.37a1.61,1.61,0,0,0-.9.29,1.44,1.44,0,0,0-.54.74v2.44h-.51V8.91H32v.94a2.06,2.06,0,0,1,.53-.69,1.1,1.1,0,0,1,.71-.27h.23Z"/><path class="cls-4" d="M37.27,12.91a2.73,2.73,0,0,1-.89-.15,2.15,2.15,0,0,1-.75-.44l.23-.35a2.53,2.53,0,0,0,.67.41,2,2,0,0,0,.73.14,1.32,1.32,0,0,0,.76-.19.62.62,0,0,0,.28-.54.47.47,0,0,0-.08-.27.65.65,0,0,0-.22-.19,1.73,1.73,0,0,0-.37-.15L37.12,11l-.59-.17a1.8,1.8,0,0,1-.41-.19.68.68,0,0,1-.24-.26.84.84,0,0,1-.08-.39,1.11,1.11,0,0,1,.12-.52,1.06,1.06,0,0,1,.32-.37,1.43,1.43,0,0,1,.47-.22,2.09,2.09,0,0,1,.57-.08,2.19,2.19,0,0,1,.82.15,1.62,1.62,0,0,1,.59.39l-.25.3a1.37,1.37,0,0,0-.53-.34,1.91,1.91,0,0,0-.65-.11,1.62,1.62,0,0,0-.38,0,.9.9,0,0,0-.3.13.64.64,0,0,0-.21.23.68.68,0,0,0-.08.33.54.54,0,0,0,.05.26.45.45,0,0,0,.17.17,1.39,1.39,0,0,0,.3.13l.45.12.66.18a2.07,2.07,0,0,1,.48.21.83.83,0,0,1,.29.29.85.85,0,0,1,.1.42,1,1,0,0,1-.41.86A1.79,1.79,0,0,1,37.27,12.91Z"/><path class="cls-4" d="M39.75,14h.31l.12,0a.22.22,0,0,0,.08-.06,1,1,0,0,0,.11-.17l.16-.35.25-.6L39.08,8.91h.53l1.45,3.44L42.4,8.91h.49l-2,5.05a.9.9,0,0,1-.3.41.92.92,0,0,1-.54.14l-.26,0Z"/><path class="cls-4" d="M44.81,12.91a2.73,2.73,0,0,1-.89-.15,2.15,2.15,0,0,1-.75-.44L43.4,12a2.53,2.53,0,0,0,.67.41,2,2,0,0,0,.73.14,1.32,1.32,0,0,0,.76-.19.62.62,0,0,0,.28-.54.47.47,0,0,0-.08-.27.65.65,0,0,0-.22-.19,1.73,1.73,0,0,0-.37-.15L44.66,11l-.59-.17a1.8,1.8,0,0,1-.41-.19.68.68,0,0,1-.24-.26.84.84,0,0,1-.08-.39,1.11,1.11,0,0,1,.12-.52,1.06,1.06,0,0,1,.32-.37,1.43,1.43,0,0,1,.47-.22,2.09,2.09,0,0,1,.57-.08,2.19,2.19,0,0,1,.82.15,1.62,1.62,0,0,1,.59.39l-.25.3a1.37,1.37,0,0,0-.53-.34,1.91,1.91,0,0,0-.65-.11,1.62,1.62,0,0,0-.38,0,.9.9,0,0,0-.3.13.64.64,0,0,0-.21.23.68.68,0,0,0-.08.33.54.54,0,0,0,.05.26.45.45,0,0,0,.17.17,1.39,1.39,0,0,0,.3.13l.45.12.66.18A2.07,2.07,0,0,1,46,11a.83.83,0,0,1,.29.29.85.85,0,0,1,.1.42,1,1,0,0,1-.41.86A1.79,1.79,0,0,1,44.81,12.91Z"/><path class="cls-4" d="M49,12.64l-.13.06-.2.08-.26.07a1.46,1.46,0,0,1-.3,0,1.09,1.09,0,0,1-.32,0,.74.74,0,0,1-.26-.14.68.68,0,0,1-.18-.24.77.77,0,0,1-.07-.33V9.32h-.54V8.91h.54V7.59h.51V8.91h.9v.41h-.9V12a.41.41,0,0,0,.15.32.53.53,0,0,0,.32.1,1,1,0,0,0,.38-.07l.21-.1Z"/><path class="cls-4" d="M51.36,12.91a1.9,1.9,0,0,1-1.41-.6,2.05,2.05,0,0,1-.41-.65,2.11,2.11,0,0,1-.15-.79,2.06,2.06,0,0,1,.15-.78,2,2,0,0,1,1-1.08,2,2,0,0,1,1.57,0,1.87,1.87,0,0,1,.61.44,2.07,2.07,0,0,1,.54,1.41s0,.08,0,.12a.38.38,0,0,1,0,.08H49.93a1.65,1.65,0,0,0,.46,1,1.38,1.38,0,0,0,.44.3,1.34,1.34,0,0,0,.54.11,1.41,1.41,0,0,0,.38-.05,1.53,1.53,0,0,0,.35-.14,1.21,1.21,0,0,0,.28-.22,1,1,0,0,0,.19-.29l.44.12a1.3,1.3,0,0,1-.26.39,1.79,1.79,0,0,1-.38.31,1.88,1.88,0,0,1-.48.2A2.07,2.07,0,0,1,51.36,12.91Zm1.44-2.24a1.57,1.57,0,0,0-.46-1,1.42,1.42,0,0,0-2,0,1.44,1.44,0,0,0-.31.45,1.71,1.71,0,0,0-.14.57Z"/><path class="cls-4" d="M59.88,12.83h-.51V10.64a1.86,1.86,0,0,0-.21-1,.73.73,0,0,0-.65-.32,1.1,1.1,0,0,0-.42.08,1.3,1.3,0,0,0-.37.23,1.59,1.59,0,0,0-.3.36,1.72,1.72,0,0,0-.2.45v2.39h-.51V10.64a1.88,1.88,0,0,0-.21-1,.72.72,0,0,0-.65-.32,1.15,1.15,0,0,0-.79.31,1.72,1.72,0,0,0-.5.81v2.4h-.51V8.91h.47V9.8a1.85,1.85,0,0,1,.63-.7A1.56,1.56,0,0,1,56,8.85a1.13,1.13,0,0,1,.8.28,1.17,1.17,0,0,1,.36.73,1.68,1.68,0,0,1,1.52-1,1.18,1.18,0,0,1,.55.12,1,1,0,0,1,.37.34,1.61,1.61,0,0,1,.2.53,3.49,3.49,0,0,1,.06.7Z"/><path class="cls-4" d="M62.89,7.34h.51v4.6a.47.47,0,0,0,.12.34.45.45,0,0,0,.34.12l.2,0,.21-.06.09.41a1.65,1.65,0,0,1-.35.1,2,2,0,0,1-.36,0,.76.76,0,0,1-.56-.2.75.75,0,0,1-.2-.56Z"/><path class="cls-4" d="M66.57,12.91a1.9,1.9,0,0,1-1.41-.6,2.05,2.05,0,0,1-.41-.65,2.11,2.11,0,0,1-.15-.79,2.06,2.06,0,0,1,.15-.78,2,2,0,0,1,1-1.08,2,2,0,0,1,1.57,0,1.87,1.87,0,0,1,.61.44,2.07,2.07,0,0,1,.54,1.41s0,.08,0,.12a.38.38,0,0,1,0,.08H65.14a1.65,1.65,0,0,0,.46,1,1.38,1.38,0,0,0,.44.3,1.34,1.34,0,0,0,.54.11,1.41,1.41,0,0,0,.38-.05,1.53,1.53,0,0,0,.35-.14,1.21,1.21,0,0,0,.28-.22,1,1,0,0,0,.19-.29l.44.12a1.3,1.3,0,0,1-.26.39,1.79,1.79,0,0,1-.38.31,1.88,1.88,0,0,1-.48.2A2.07,2.07,0,0,1,66.57,12.91ZM68,10.67a1.57,1.57,0,0,0-.46-1,1.42,1.42,0,0,0-2,0,1.44,1.44,0,0,0-.31.45,1.71,1.71,0,0,0-.14.57Z"/><path class="cls-4" d="M71.12,12.64,71,12.7l-.2.08-.26.07a1.46,1.46,0,0,1-.3,0,1.09,1.09,0,0,1-.32,0,.74.74,0,0,1-.26-.14.68.68,0,0,1-.18-.24.77.77,0,0,1-.07-.33V9.32h-.54V8.91h.54V7.59h.51V8.91h.9v.41h-.9V12a.41.41,0,0,0,.15.32.53.53,0,0,0,.32.1,1,1,0,0,0,.38-.07l.21-.1Z"/><path class="cls-4" d="M73,12.91a2.73,2.73,0,0,1-.89-.15,2.15,2.15,0,0,1-.75-.44l.23-.35a2.53,2.53,0,0,0,.67.41,2,2,0,0,0,.73.14,1.32,1.32,0,0,0,.76-.19.62.62,0,0,0,.28-.54A.47.47,0,0,0,74,11.5a.65.65,0,0,0-.22-.19,1.73,1.73,0,0,0-.37-.15L72.89,11l-.59-.17a1.8,1.8,0,0,1-.41-.19.68.68,0,0,1-.24-.26.84.84,0,0,1-.08-.39,1.11,1.11,0,0,1,.12-.52A1.06,1.06,0,0,1,72,9.14a1.43,1.43,0,0,1,.47-.22A2.09,2.09,0,0,1,73,8.85a2.19,2.19,0,0,1,.82.15,1.62,1.62,0,0,1,.59.39l-.25.3a1.37,1.37,0,0,0-.53-.34A1.91,1.91,0,0,0,73,9.23a1.62,1.62,0,0,0-.38,0,.9.9,0,0,0-.3.13.64.64,0,0,0-.21.23.68.68,0,0,0-.08.33.54.54,0,0,0,.05.26.45.45,0,0,0,.17.17,1.39,1.39,0,0,0,.3.13l.45.12.66.18a2.07,2.07,0,0,1,.48.21.83.83,0,0,1,.29.29.85.85,0,0,1,.1.42,1,1,0,0,1-.41.86A1.79,1.79,0,0,1,73,12.91Z"/><path class="cls-4" d="M77.33,14h.31l.12,0a.22.22,0,0,0,.08-.06,1,1,0,0,0,.11-.17l.16-.35.25-.6L76.65,8.91h.53l1.45,3.44L80,8.91h.49l-2,5.05a.9.9,0,0,1-.3.41.92.92,0,0,1-.54.14l-.26,0Z"/><path class="cls-4" d="M82.72,12.91a1.88,1.88,0,0,1-.79-.16,1.91,1.91,0,0,1-.62-.44,2,2,0,0,1-.4-.65,2.12,2.12,0,0,1-.14-.77,2.09,2.09,0,0,1,.15-.78,2.05,2.05,0,0,1,.41-.65A2,2,0,0,1,81.94,9,1.91,1.91,0,0,1,83.5,9a2,2,0,0,1,.62.44,2.05,2.05,0,0,1,.41.65,2.1,2.1,0,0,1,.15.78,2.07,2.07,0,0,1-.15.77,2,2,0,0,1-.41.65,1.91,1.91,0,0,1-.62.44A1.86,1.86,0,0,1,82.72,12.91Zm-1.42-2a1.68,1.68,0,0,0,.11.61,1.61,1.61,0,0,0,.3.5,1.38,1.38,0,0,0,.45.33,1.3,1.3,0,0,0,.55.12,1.26,1.26,0,0,0,.55-.12,1.46,1.46,0,0,0,.45-.34,1.61,1.61,0,0,0,.31-.5,1.73,1.73,0,0,0,0-1.23,1.6,1.6,0,0,0-.31-.5,1.47,1.47,0,0,0-.45-.34,1.24,1.24,0,0,0-.55-.12,1.27,1.27,0,0,0-.55.12,1.39,1.39,0,0,0-.45.34,1.7,1.7,0,0,0-.42,1.13Z"/><path class="cls-4" d="M86.71,12.91a1.09,1.09,0,0,1-.93-.42,2.11,2.11,0,0,1-.32-1.27V8.91H86v2.21q0,1.33.91,1.33a1.35,1.35,0,0,0,.44-.08,1.39,1.39,0,0,0,.4-.22,1.77,1.77,0,0,0,.33-.34,1.71,1.71,0,0,0,.24-.44V8.91h.51v3.25c0,.14.06.21.19.21v.45l-.21,0a.44.44,0,0,1-.3-.1.33.33,0,0,1-.12-.26v-.54a1.88,1.88,0,0,1-1.65,1Z"/><path class="cls-4" d="M93.1,12.91a1.09,1.09,0,0,1-.93-.42,2.11,2.11,0,0,1-.32-1.27V8.91h.51v2.21q0,1.33.91,1.33a1.35,1.35,0,0,0,.44-.08,1.39,1.39,0,0,0,.4-.22,1.77,1.77,0,0,0,.33-.34,1.71,1.71,0,0,0,.24-.44V8.91h.51v3.25c0,.14.06.21.19.21v.45l-.21,0a.44.44,0,0,1-.3-.1.33.33,0,0,1-.12-.26v-.54a1.88,1.88,0,0,1-1.65,1Z"/><path class="cls-4" d="M98.36,12.91a1.57,1.57,0,0,1-.88-.25,2,2,0,0,1-.62-.64v2.41h-.51V8.91h.46v.76a1.89,1.89,0,0,1,.62-.6,1.6,1.6,0,0,1,.83-.23A1.67,1.67,0,0,1,99,9a1.91,1.91,0,0,1,.59.45,2.09,2.09,0,0,1,.39.65,2.13,2.13,0,0,1,.14.76,2.37,2.37,0,0,1-.13.78,2,2,0,0,1-.36.65,1.75,1.75,0,0,1-.56.44A1.6,1.6,0,0,1,98.36,12.91Zm-.14-.45a1.2,1.2,0,0,0,.57-.14,1.45,1.45,0,0,0,.44-.36,1.61,1.61,0,0,0,.28-.5,1.77,1.77,0,0,0,.1-.58,1.62,1.62,0,0,0-.11-.6,1.66,1.66,0,0,0-.31-.5,1.46,1.46,0,0,0-.46-.35,1.31,1.31,0,0,0-.58-.13,1.15,1.15,0,0,0-.41.08,1.79,1.79,0,0,0-.4.21A1.38,1.38,0,0,0,97,9.9a.83.83,0,0,0-.16.37v1.2a1.78,1.78,0,0,0,.23.39,1.63,1.63,0,0,0,.32.31,1.48,1.48,0,0,0,.38.21A1.23,1.23,0,0,0,98.22,12.45Z"/><path class="cls-4" d="M101,7.34h.51v4.6a.47.47,0,0,0,.12.34.45.45,0,0,0,.34.12l.2,0,.21-.06.09.41a1.65,1.65,0,0,1-.35.1,2,2,0,0,1-.36,0,.76.76,0,0,1-.56-.2.75.75,0,0,1-.2-.56Z"/><path class="cls-4" d="M104.65,12.91a1.88,1.88,0,0,1-.79-.16,1.91,1.91,0,0,1-.62-.44,2,2,0,0,1-.4-.65,2.12,2.12,0,0,1-.14-.77,2.09,2.09,0,0,1,.15-.78,2.05,2.05,0,0,1,.41-.65,2,2,0,0,1,.62-.44,1.91,1.91,0,0,1,1.56,0,2,2,0,0,1,.62.44,2.05,2.05,0,0,1,.41.65,2.1,2.1,0,0,1,.15.78,2.07,2.07,0,0,1-.15.77,2,2,0,0,1-.41.65,1.91,1.91,0,0,1-.62.44A1.86,1.86,0,0,1,104.65,12.91Zm-1.42-2a1.68,1.68,0,0,0,.11.61,1.61,1.61,0,0,0,.3.5,1.38,1.38,0,0,0,.45.33,1.3,1.3,0,0,0,.55.12,1.26,1.26,0,0,0,.55-.12,1.46,1.46,0,0,0,.45-.34,1.61,1.61,0,0,0,.31-.5,1.73,1.73,0,0,0,0-1.23,1.6,1.6,0,0,0-.31-.5,1.47,1.47,0,0,0-.45-.34,1.24,1.24,0,0,0-.55-.12,1.27,1.27,0,0,0-.55.12,1.39,1.39,0,0,0-.45.34,1.7,1.7,0,0,0-.42,1.13Z"/><path class="cls-4" d="M108.47,12.91a1.54,1.54,0,0,1-.55-.09,1.28,1.28,0,0,1-.42-.26,1.17,1.17,0,0,1-.27-.38,1.1,1.1,0,0,1-.1-.46,1,1,0,0,1,.12-.49,1.13,1.13,0,0,1,.34-.38,1.65,1.65,0,0,1,.52-.24,2.46,2.46,0,0,1,.67-.09,3.56,3.56,0,0,1,.6.05,2.62,2.62,0,0,1,.55.15v-.35a1.13,1.13,0,0,0-.3-.82,1.07,1.07,0,0,0-.8-.3,1.73,1.73,0,0,0-.63.12,3,3,0,0,0-.64.35l-.18-.34a3.41,3.41,0,0,1,.74-.38,2.24,2.24,0,0,1,.75-.13,1.55,1.55,0,0,1,1.14.41,1.53,1.53,0,0,1,.42,1.14v1.77c0,.14.06.21.18.21v.45h-.2a.46.46,0,0,1-.27-.09.35.35,0,0,1-.14-.27l0-.31a1.7,1.7,0,0,1-.67.54A2,2,0,0,1,108.47,12.91Zm.13-.39a1.66,1.66,0,0,0,.67-.15,1.31,1.31,0,0,0,.53-.4.79.79,0,0,0,.09-.15.34.34,0,0,0,0-.15V11a3.09,3.09,0,0,0-.53-.15,2.9,2.9,0,0,0-.54-.05,1.61,1.61,0,0,0-.89.22.69.69,0,0,0-.34.61.82.82,0,0,0,.06.31.78.78,0,0,0,.18.27,1,1,0,0,0,.3.2A1.1,1.1,0,0,0,108.6,12.51Z"/><path class="cls-4" d="M113.17,12.91a1.69,1.69,0,0,1-.75-.17,2,2,0,0,1-.6-.45,2,2,0,0,1-.39-.64,2.12,2.12,0,0,1-.14-.76,2.28,2.28,0,0,1,.14-.79,2.09,2.09,0,0,1,.37-.65,1.75,1.75,0,0,1,.56-.44,1.6,1.6,0,0,1,.72-.16,1.53,1.53,0,0,1,.88.26,2,2,0,0,1,.61.63V7.34h.51v4.83c0,.14.06.21.18.21v.45l-.2,0a.44.44,0,0,1-.31-.11.34.34,0,0,1-.12-.26v-.41a1.78,1.78,0,0,1-.64.61A1.64,1.64,0,0,1,113.17,12.91Zm.11-.45a1.23,1.23,0,0,0,.41-.08,1.58,1.58,0,0,0,.4-.21,1.51,1.51,0,0,0,.32-.31.81.81,0,0,0,.17-.38V10.27a1.3,1.3,0,0,0-.22-.38,1.86,1.86,0,0,0-.33-.31,1.55,1.55,0,0,0-.39-.21,1.2,1.2,0,0,0-.41-.08,1.22,1.22,0,0,0-.58.14,1.39,1.39,0,0,0-.44.36,1.7,1.7,0,0,0-.28.51,1.73,1.73,0,0,0-.1.59,1.64,1.64,0,0,0,.42,1.1,1.5,1.5,0,0,0,.46.34A1.32,1.32,0,0,0,113.28,12.45Z"/><path class="cls-4" d="M117.9,10.86a2.14,2.14,0,0,1,.14-.78,2,2,0,0,1,.4-.64,1.87,1.87,0,0,1,.62-.43,2,2,0,0,1,.8-.16,1.83,1.83,0,0,1,1,.25,1.62,1.62,0,0,1,.62.68l-.5.16a1.19,1.19,0,0,0-.46-.47,1.28,1.28,0,0,0-.65-.17,1.32,1.32,0,0,0-.56.12,1.44,1.44,0,0,0-.45.33,1.51,1.51,0,0,0-.3.49,1.81,1.81,0,0,0,0,1.25,1.59,1.59,0,0,0,.31.51,1.46,1.46,0,0,0,.46.34,1.26,1.26,0,0,0,.55.12,1.34,1.34,0,0,0,.37-.05,1.41,1.41,0,0,0,.34-.15,1.22,1.22,0,0,0,.27-.21.69.69,0,0,0,.16-.26l.5.15a1.29,1.29,0,0,1-.24.39,1.66,1.66,0,0,1-.37.31,1.83,1.83,0,0,1-.47.2,2,2,0,0,1-.54.07,1.9,1.9,0,0,1-1.41-.6,2.05,2.05,0,0,1-.41-.65A2.11,2.11,0,0,1,117.9,10.86Z"/><path class="cls-4" d="M123.5,12.91a1.09,1.09,0,0,1-.93-.42,2.11,2.11,0,0,1-.32-1.27V8.91h.51v2.21q0,1.33.91,1.33a1.35,1.35,0,0,0,.44-.08,1.39,1.39,0,0,0,.4-.22,1.77,1.77,0,0,0,.33-.34,1.71,1.71,0,0,0,.24-.44V8.91h.51v3.25c0,.14.06.21.19.21v.45l-.21,0a.44.44,0,0,1-.3-.1.33.33,0,0,1-.12-.26v-.54a1.88,1.88,0,0,1-1.65,1Z"/><path class="cls-4" d="M128.07,12.91a2.73,2.73,0,0,1-.89-.15,2.15,2.15,0,0,1-.75-.44l.23-.35a2.53,2.53,0,0,0,.67.41,2,2,0,0,0,.73.14,1.32,1.32,0,0,0,.76-.19.62.62,0,0,0,.28-.54.47.47,0,0,0-.08-.27.65.65,0,0,0-.22-.19,1.73,1.73,0,0,0-.37-.15l-.52-.13-.59-.17a1.8,1.8,0,0,1-.41-.19.68.68,0,0,1-.24-.26.84.84,0,0,1-.08-.39,1.11,1.11,0,0,1,.12-.52,1.06,1.06,0,0,1,.32-.37,1.43,1.43,0,0,1,.47-.22,2.09,2.09,0,0,1,.57-.08,2.19,2.19,0,0,1,.82.15,1.62,1.62,0,0,1,.59.39l-.25.3a1.37,1.37,0,0,0-.53-.34,1.91,1.91,0,0,0-.65-.11,1.62,1.62,0,0,0-.38,0,.9.9,0,0,0-.3.13.64.64,0,0,0-.21.23.68.68,0,0,0-.08.33.54.54,0,0,0,.05.26.45.45,0,0,0,.17.17,1.39,1.39,0,0,0,.3.13l.45.12.66.18a2.07,2.07,0,0,1,.48.21.83.83,0,0,1,.29.29.85.85,0,0,1,.1.42,1,1,0,0,1-.41.86A1.79,1.79,0,0,1,128.07,12.91Z"/><path class="cls-4" d="M132.31,12.64l-.13.06-.2.08-.26.07a1.46,1.46,0,0,1-.3,0,1.09,1.09,0,0,1-.32,0,.74.74,0,0,1-.26-.14.68.68,0,0,1-.18-.24.77.77,0,0,1-.07-.33V9.32H130V8.91h.54V7.59h.51V8.91h.9v.41h-.9V12a.41.41,0,0,0,.15.32.53.53,0,0,0,.32.1,1,1,0,0,0,.38-.07l.21-.1Z"/><path class="cls-4" d="M134.51,12.91a1.88,1.88,0,0,1-.79-.16,1.91,1.91,0,0,1-.62-.44,2,2,0,0,1-.4-.65,2.12,2.12,0,0,1-.14-.77,2.09,2.09,0,0,1,.15-.78,2.05,2.05,0,0,1,.41-.65,2,2,0,0,1,.62-.44,1.91,1.91,0,0,1,1.56,0,2,2,0,0,1,.62.44,2.05,2.05,0,0,1,.41.65,2.1,2.1,0,0,1,.15.78,2.07,2.07,0,0,1-.15.77,2,2,0,0,1-.41.65,1.91,1.91,0,0,1-.62.44A1.86,1.86,0,0,1,134.51,12.91Zm-1.42-2a1.68,1.68,0,0,0,.11.61,1.61,1.61,0,0,0,.3.5,1.38,1.38,0,0,0,.45.33,1.3,1.3,0,0,0,.55.12,1.26,1.26,0,0,0,.55-.12,1.46,1.46,0,0,0,.45-.34,1.61,1.61,0,0,0,.31-.5,1.73,1.73,0,0,0,0-1.23,1.6,1.6,0,0,0-.31-.5,1.47,1.47,0,0,0-.45-.34,1.24,1.24,0,0,0-.55-.12,1.27,1.27,0,0,0-.55.12,1.39,1.39,0,0,0-.45.34,1.7,1.7,0,0,0-.42,1.13Z"/><path class="cls-4" d="M143.12,12.83h-.51V10.64a1.86,1.86,0,0,0-.21-1,.73.73,0,0,0-.65-.32,1.1,1.1,0,0,0-.42.08,1.3,1.3,0,0,0-.37.23,1.59,1.59,0,0,0-.3.36,1.72,1.72,0,0,0-.2.45v2.39h-.51V10.64a1.88,1.88,0,0,0-.21-1,.72.72,0,0,0-.65-.32,1.15,1.15,0,0,0-.79.31,1.72,1.72,0,0,0-.5.81v2.4h-.51V8.91h.47V9.8a1.85,1.85,0,0,1,.63-.7,1.56,1.56,0,0,1,.86-.25,1.13,1.13,0,0,1,.8.28,1.17,1.17,0,0,1,.36.73,1.68,1.68,0,0,1,1.52-1,1.18,1.18,0,0,1,.55.12,1,1,0,0,1,.37.34,1.61,1.61,0,0,1,.2.53,3.49,3.49,0,0,1,.06.7Z"/><path class="cls-4" d="M147.73,12.91a1.69,1.69,0,0,1-.75-.17,2,2,0,0,1-.6-.45,2,2,0,0,1-.39-.64,2.12,2.12,0,0,1-.14-.76,2.28,2.28,0,0,1,.14-.79,2.09,2.09,0,0,1,.37-.65,1.75,1.75,0,0,1,.56-.44,1.6,1.6,0,0,1,.72-.16,1.53,1.53,0,0,1,.88.26,2,2,0,0,1,.61.63V7.34h.51v4.83c0,.14.06.21.18.21v.45l-.2,0a.44.44,0,0,1-.31-.11.34.34,0,0,1-.12-.26v-.41a1.78,1.78,0,0,1-.64.61A1.64,1.64,0,0,1,147.73,12.91Zm.11-.45a1.23,1.23,0,0,0,.41-.08,1.58,1.58,0,0,0,.4-.21,1.51,1.51,0,0,0,.32-.31.81.81,0,0,0,.17-.38V10.27a1.3,1.3,0,0,0-.22-.38,1.86,1.86,0,0,0-.33-.31,1.55,1.55,0,0,0-.39-.21,1.2,1.2,0,0,0-.41-.08,1.22,1.22,0,0,0-.58.14,1.39,1.39,0,0,0-.44.36,1.7,1.7,0,0,0-.28.51,1.73,1.73,0,0,0-.1.59,1.64,1.64,0,0,0,.42,1.1,1.5,1.5,0,0,0,.46.34A1.32,1.32,0,0,0,147.84,12.45Z"/><path class="cls-4" d="M151.83,12.91a1.54,1.54,0,0,1-.55-.09,1.28,1.28,0,0,1-.42-.26,1.17,1.17,0,0,1-.27-.38,1.1,1.1,0,0,1-.1-.46,1,1,0,0,1,.12-.49,1.13,1.13,0,0,1,.34-.38,1.65,1.65,0,0,1,.52-.24,2.46,2.46,0,0,1,.67-.09,3.56,3.56,0,0,1,.6.05,2.62,2.62,0,0,1,.55.15v-.35a1.13,1.13,0,0,0-.3-.82,1.07,1.07,0,0,0-.8-.3,1.73,1.73,0,0,0-.63.12,3,3,0,0,0-.64.35l-.18-.34a3.41,3.41,0,0,1,.74-.38,2.24,2.24,0,0,1,.75-.13,1.55,1.55,0,0,1,1.14.41,1.53,1.53,0,0,1,.42,1.14v1.77c0,.14.06.21.18.21v.45h-.2a.46.46,0,0,1-.27-.09.35.35,0,0,1-.14-.27l0-.31a1.7,1.7,0,0,1-.67.54A2,2,0,0,1,151.83,12.91Zm.13-.39a1.66,1.66,0,0,0,.67-.15,1.31,1.31,0,0,0,.53-.4.79.79,0,0,0,.09-.15.34.34,0,0,0,0-.15V11a3.09,3.09,0,0,0-.53-.15,2.9,2.9,0,0,0-.54-.05,1.61,1.61,0,0,0-.89.22.69.69,0,0,0-.34.61A.82.82,0,0,0,151,12a.78.78,0,0,0,.18.27,1,1,0,0,0,.3.2A1.1,1.1,0,0,0,152,12.51Z"/><path class="cls-4" d="M156.75,12.64l-.13.06-.2.08-.26.07a1.46,1.46,0,0,1-.3,0,1.09,1.09,0,0,1-.32,0,.74.74,0,0,1-.26-.14.68.68,0,0,1-.18-.24.77.77,0,0,1-.07-.33V9.32h-.54V8.91H155V7.59h.51V8.91h.9v.41h-.9V12a.41.41,0,0,0,.15.32.53.53,0,0,0,.32.1,1,1,0,0,0,.38-.07l.21-.1Z"/><path class="cls-4" d="M158.39,12.91a1.54,1.54,0,0,1-.55-.09,1.28,1.28,0,0,1-.42-.26,1.17,1.17,0,0,1-.27-.38,1.1,1.1,0,0,1-.1-.46,1,1,0,0,1,.12-.49,1.13,1.13,0,0,1,.34-.38,1.65,1.65,0,0,1,.52-.24,2.46,2.46,0,0,1,.67-.09,3.56,3.56,0,0,1,.6.05,2.62,2.62,0,0,1,.55.15v-.35a1.13,1.13,0,0,0-.3-.82,1.07,1.07,0,0,0-.8-.3,1.73,1.73,0,0,0-.63.12,3,3,0,0,0-.64.35l-.18-.34a3.41,3.41,0,0,1,.74-.38,2.24,2.24,0,0,1,.75-.13,1.55,1.55,0,0,1,1.14.41,1.53,1.53,0,0,1,.42,1.14v1.77c0,.14.06.21.18.21v.45h-.2a.46.46,0,0,1-.27-.09.35.35,0,0,1-.14-.27l0-.31a1.7,1.7,0,0,1-.67.54A2,2,0,0,1,158.39,12.91Zm.13-.39a1.66,1.66,0,0,0,.67-.15,1.31,1.31,0,0,0,.53-.4.79.79,0,0,0,.09-.15.34.34,0,0,0,0-.15V11a3.09,3.09,0,0,0-.53-.15,2.9,2.9,0,0,0-.54-.05,1.61,1.61,0,0,0-.89.22.69.69,0,0,0-.34.61.82.82,0,0,0,.06.31.78.78,0,0,0,.18.27,1,1,0,0,0,.3.2A1.1,1.1,0,0,0,158.52,12.51Z"/><path class="cls-4" d="M163.61,12.83V9.78h-.54V9.37h.54V8.81a1.84,1.84,0,0,1,.31-1.13,1,1,0,0,1,.85-.41,1.49,1.49,0,0,1,.44.07,1.31,1.31,0,0,1,.38.18l-.16.37a.77.77,0,0,0-.26-.13,1.08,1.08,0,0,0-.3,0,.63.63,0,0,0-.55.28,1.42,1.42,0,0,0-.19.8v.58h1.08v.41h-1.08v3.05Z"/><path class="cls-4" d="M167.63,12.91a1.88,1.88,0,0,1-.79-.16,1.91,1.91,0,0,1-.62-.44,2,2,0,0,1-.4-.65,2.12,2.12,0,0,1-.14-.77,2.09,2.09,0,0,1,.15-.78,2.05,2.05,0,0,1,.41-.65,2,2,0,0,1,.62-.44,1.91,1.91,0,0,1,1.56,0,2,2,0,0,1,.62.44,2.05,2.05,0,0,1,.41.65,2.1,2.1,0,0,1,.15.78,2.07,2.07,0,0,1-.15.77,2,2,0,0,1-.41.65,1.91,1.91,0,0,1-.62.44A1.86,1.86,0,0,1,167.63,12.91Zm-1.42-2a1.68,1.68,0,0,0,.11.61,1.61,1.61,0,0,0,.3.5,1.38,1.38,0,0,0,.45.33,1.3,1.3,0,0,0,.55.12,1.26,1.26,0,0,0,.55-.12,1.46,1.46,0,0,0,.45-.34,1.61,1.61,0,0,0,.31-.5,1.73,1.73,0,0,0,0-1.23,1.6,1.6,0,0,0-.31-.5,1.47,1.47,0,0,0-.45-.34,1.24,1.24,0,0,0-.55-.12,1.27,1.27,0,0,0-.55.12,1.39,1.39,0,0,0-.45.34,1.7,1.7,0,0,0-.42,1.13Z"/><path class="cls-4" d="M172.36,9.37a1.61,1.61,0,0,0-.9.29,1.44,1.44,0,0,0-.54.74v2.44h-.51V8.91h.48v.94a2.06,2.06,0,0,1,.53-.69,1.1,1.1,0,0,1,.71-.27h.23Z"/><path class="cls-4" d="M175.84,12.91a1.54,1.54,0,0,1-.55-.09,1.28,1.28,0,0,1-.42-.26,1.17,1.17,0,0,1-.27-.38,1.1,1.1,0,0,1-.1-.46,1,1,0,0,1,.12-.49,1.13,1.13,0,0,1,.34-.38,1.65,1.65,0,0,1,.52-.24,2.46,2.46,0,0,1,.67-.09,3.56,3.56,0,0,1,.6.05,2.62,2.62,0,0,1,.55.15v-.35a1.13,1.13,0,0,0-.3-.82,1.07,1.07,0,0,0-.8-.3,1.73,1.73,0,0,0-.63.12,3,3,0,0,0-.64.35l-.18-.34a3.41,3.41,0,0,1,.74-.38,2.24,2.24,0,0,1,.75-.13,1.55,1.55,0,0,1,1.14.41,1.53,1.53,0,0,1,.42,1.14v1.77c0,.14.06.21.18.21v.45h-.2a.46.46,0,0,1-.27-.09.35.35,0,0,1-.14-.27l0-.31a1.7,1.7,0,0,1-.67.54A2,2,0,0,1,175.84,12.91Zm.13-.39a1.66,1.66,0,0,0,.67-.15,1.31,1.31,0,0,0,.53-.4.79.79,0,0,0,.09-.15.34.34,0,0,0,0-.15V11a3.09,3.09,0,0,0-.53-.15,2.9,2.9,0,0,0-.54-.05,1.61,1.61,0,0,0-.89.22.69.69,0,0,0-.34.61.82.82,0,0,0,.06.31.78.78,0,0,0,.18.27,1,1,0,0,0,.3.2A1.1,1.1,0,0,0,176,12.51Z"/><path class="cls-4" d="M182.22,12.83h-.51V10.64a1.94,1.94,0,0,0-.2-1,.7.7,0,0,0-.63-.32,1.3,1.3,0,0,0-.45.08,1.57,1.57,0,0,0-.42.23,1.65,1.65,0,0,0-.34.36,1.58,1.58,0,0,0-.22.45v2.4h-.51V8.91h.47V9.8a1.81,1.81,0,0,1,.3-.39,2,2,0,0,1,.39-.3,1.92,1.92,0,0,1,.46-.2,1.9,1.9,0,0,1,.51-.07,1.15,1.15,0,0,1,.55.12.94.94,0,0,1,.36.34,1.56,1.56,0,0,1,.2.53,3.75,3.75,0,0,1,.06.7Z"/><path class="cls-4" d="M183.43,14h.31l.12,0a.22.22,0,0,0,.08-.06,1,1,0,0,0,.11-.17l.16-.35.25-.6-1.71-3.92h.53l1.45,3.44,1.34-3.44h.49l-2,5.05a.9.9,0,0,1-.3.41.92.92,0,0,1-.54.14l-.26,0Z"/><path class="cls-4" d="M190.31,12.91a2.73,2.73,0,0,1-.89-.15,2.15,2.15,0,0,1-.75-.44l.23-.35a2.53,2.53,0,0,0,.67.41,2,2,0,0,0,.73.14,1.32,1.32,0,0,0,.76-.19.62.62,0,0,0,.28-.54.47.47,0,0,0-.08-.27.65.65,0,0,0-.22-.19,1.73,1.73,0,0,0-.37-.15l-.52-.13-.59-.17a1.8,1.8,0,0,1-.41-.19.68.68,0,0,1-.24-.26.84.84,0,0,1-.08-.39,1.11,1.11,0,0,1,.12-.52,1.06,1.06,0,0,1,.32-.37,1.43,1.43,0,0,1,.47-.22,2.09,2.09,0,0,1,.57-.08,2.19,2.19,0,0,1,.82.15,1.62,1.62,0,0,1,.59.39l-.25.3a1.37,1.37,0,0,0-.53-.34,1.91,1.91,0,0,0-.65-.11,1.62,1.62,0,0,0-.38,0,.9.9,0,0,0-.3.13.64.64,0,0,0-.21.23.68.68,0,0,0-.08.33.54.54,0,0,0,.05.26.45.45,0,0,0,.17.17,1.39,1.39,0,0,0,.3.13l.45.12.66.18a2.07,2.07,0,0,1,.48.21.83.83,0,0,1,.29.29.85.85,0,0,1,.1.42,1,1,0,0,1-.41.86A1.79,1.79,0,0,1,190.31,12.91Z"/><path class="cls-4" d="M194.67,12.91a1.57,1.57,0,0,1-.88-.25,2,2,0,0,1-.62-.64v2.41h-.51V8.91h.46v.76a1.89,1.89,0,0,1,.62-.6,1.6,1.6,0,0,1,.83-.23,1.67,1.67,0,0,1,.75.17,1.91,1.91,0,0,1,.59.45,2.09,2.09,0,0,1,.39.65,2.13,2.13,0,0,1,.14.76,2.37,2.37,0,0,1-.13.78,2,2,0,0,1-.36.65,1.75,1.75,0,0,1-.56.44A1.6,1.6,0,0,1,194.67,12.91Zm-.14-.45a1.2,1.2,0,0,0,.57-.14,1.45,1.45,0,0,0,.44-.36,1.61,1.61,0,0,0,.28-.5,1.77,1.77,0,0,0,.1-.58,1.62,1.62,0,0,0-.11-.6,1.66,1.66,0,0,0-.31-.5,1.46,1.46,0,0,0-.46-.35,1.31,1.31,0,0,0-.58-.13,1.15,1.15,0,0,0-.41.08,1.79,1.79,0,0,0-.4.21,1.38,1.38,0,0,0-.32.31.83.83,0,0,0-.16.37v1.2a1.78,1.78,0,0,0,.23.39,1.63,1.63,0,0,0,.32.31,1.48,1.48,0,0,0,.38.21A1.23,1.23,0,0,0,194.52,12.45Z"/><path class="cls-4" d="M199,12.91a1.88,1.88,0,0,1-.79-.16,1.91,1.91,0,0,1-.62-.44,2,2,0,0,1-.4-.65,2.12,2.12,0,0,1-.14-.77,2.09,2.09,0,0,1,.15-.78,2.05,2.05,0,0,1,.41-.65A2,2,0,0,1,198.2,9a1.91,1.91,0,0,1,1.56,0,2,2,0,0,1,.62.44,2.05,2.05,0,0,1,.41.65,2.1,2.1,0,0,1,.15.78,2.07,2.07,0,0,1-.15.77,2,2,0,0,1-.41.65,1.91,1.91,0,0,1-.62.44A1.86,1.86,0,0,1,199,12.91Zm-1.42-2a1.68,1.68,0,0,0,.11.61,1.61,1.61,0,0,0,.3.5,1.38,1.38,0,0,0,.45.33,1.3,1.3,0,0,0,.55.12,1.26,1.26,0,0,0,.55-.12A1.46,1.46,0,0,0,200,12a1.61,1.61,0,0,0,.31-.5,1.73,1.73,0,0,0,0-1.23,1.6,1.6,0,0,0-.31-.5,1.47,1.47,0,0,0-.45-.34A1.24,1.24,0,0,0,199,9.3a1.27,1.27,0,0,0-.55.12,1.39,1.39,0,0,0-.45.34,1.7,1.7,0,0,0-.42,1.13Z"/><path class="cls-4" d="M203.71,9.37a1.61,1.61,0,0,0-.9.29,1.44,1.44,0,0,0-.54.74v2.44h-.51V8.91h.48v.94a2.06,2.06,0,0,1,.53-.69,1.1,1.1,0,0,1,.71-.27h.23Z"/><path class="cls-4" d="M206.29,12.64l-.13.06-.2.08-.26.07a1.46,1.46,0,0,1-.3,0,1.09,1.09,0,0,1-.32,0,.74.74,0,0,1-.26-.14.68.68,0,0,1-.18-.24.77.77,0,0,1-.07-.33V9.32H204V8.91h.54V7.59h.51V8.91h.9v.41h-.9V12a.41.41,0,0,0,.15.32.53.53,0,0,0,.32.1,1,1,0,0,0,.38-.07l.21-.1Z"/><path class="cls-4" d="M210.71,12.64l-.13.06-.2.08-.26.07a1.46,1.46,0,0,1-.3,0,1.09,1.09,0,0,1-.32,0,.74.74,0,0,1-.26-.14.68.68,0,0,1-.18-.24.77.77,0,0,1-.07-.33V9.32h-.54V8.91H209V7.59h.51V8.91h.9v.41h-.9V12a.41.41,0,0,0,.15.32.53.53,0,0,0,.32.1,1,1,0,0,0,.38-.07l.21-.1Z"/><path class="cls-4" d="M214.6,12.83h-.51V10.64a1.77,1.77,0,0,0-.23-1,.77.77,0,0,0-.67-.33,1.14,1.14,0,0,0-.43.09,1.6,1.6,0,0,0-.4.24A1.61,1.61,0,0,0,212,10a1.48,1.48,0,0,0-.21.44v2.4h-.51V7.34h.51V9.8a1.83,1.83,0,0,1,.65-.7,1.66,1.66,0,0,1,.89-.26,1.23,1.23,0,0,1,.58.12,1,1,0,0,1,.38.35,1.56,1.56,0,0,1,.21.53,3.26,3.26,0,0,1,.07.69Z"/><path class="cls-4" d="M216.7,12.91a1.54,1.54,0,0,1-.55-.09,1.28,1.28,0,0,1-.42-.26,1.17,1.17,0,0,1-.27-.38,1.1,1.1,0,0,1-.1-.46,1,1,0,0,1,.12-.49,1.13,1.13,0,0,1,.34-.38,1.65,1.65,0,0,1,.52-.24,2.46,2.46,0,0,1,.67-.09,3.56,3.56,0,0,1,.6.05,2.62,2.62,0,0,1,.55.15v-.35a1.13,1.13,0,0,0-.3-.82,1.07,1.07,0,0,0-.8-.3,1.73,1.73,0,0,0-.63.12,3,3,0,0,0-.64.35l-.18-.34a3.41,3.41,0,0,1,.74-.38,2.24,2.24,0,0,1,.75-.13,1.55,1.55,0,0,1,1.14.41,1.53,1.53,0,0,1,.42,1.14v1.77c0,.14.06.21.18.21v.45h-.2a.46.46,0,0,1-.27-.09.35.35,0,0,1-.14-.27l0-.31a1.7,1.7,0,0,1-.67.54A2,2,0,0,1,216.7,12.91Zm.13-.39a1.66,1.66,0,0,0,.67-.15A1.31,1.31,0,0,0,218,12a.79.79,0,0,0,.09-.15.34.34,0,0,0,0-.15V11a3.09,3.09,0,0,0-.53-.15,2.9,2.9,0,0,0-.54-.05,1.61,1.61,0,0,0-.89.22.69.69,0,0,0-.34.61.82.82,0,0,0,.06.31.78.78,0,0,0,.18.27,1,1,0,0,0,.3.2A1.1,1.1,0,0,0,216.83,12.51Z"/><path class="cls-4" d="M221.62,12.64l-.13.06-.2.08-.26.07a1.46,1.46,0,0,1-.3,0,1.09,1.09,0,0,1-.32,0,.74.74,0,0,1-.26-.14.68.68,0,0,1-.18-.24.77.77,0,0,1-.07-.33V9.32h-.54V8.91h.54V7.59h.51V8.91h.9v.41h-.9V12a.41.41,0,0,0,.15.32.53.53,0,0,0,.32.1,1,1,0,0,0,.38-.07l.21-.1Z"/><path class="cls-4" d="M224.17,14h.31l.12,0a.22.22,0,0,0,.08-.06,1,1,0,0,0,.11-.17l.16-.35.25-.6L223.5,8.91H224l1.45,3.44,1.34-3.44h.49l-2,5.05a.9.9,0,0,1-.3.41.92.92,0,0,1-.54.14l-.26,0Z"/><path class="cls-4" d="M229.56,12.91a1.88,1.88,0,0,1-.79-.16,1.91,1.91,0,0,1-.62-.44,2,2,0,0,1-.4-.65,2.12,2.12,0,0,1-.14-.77,2.09,2.09,0,0,1,.15-.78,2.05,2.05,0,0,1,.41-.65,2,2,0,0,1,.62-.44,1.91,1.91,0,0,1,1.56,0,2,2,0,0,1,.62.44,2.05,2.05,0,0,1,.41.65,2.1,2.1,0,0,1,.15.78,2.07,2.07,0,0,1-.15.77,2,2,0,0,1-.41.65,1.91,1.91,0,0,1-.62.44A1.86,1.86,0,0,1,229.56,12.91Zm-1.42-2a1.68,1.68,0,0,0,.11.61,1.61,1.61,0,0,0,.3.5,1.38,1.38,0,0,0,.45.33,1.3,1.3,0,0,0,.55.12,1.26,1.26,0,0,0,.55-.12,1.46,1.46,0,0,0,.45-.34,1.61,1.61,0,0,0,.31-.5,1.73,1.73,0,0,0,0-1.23,1.6,1.6,0,0,0-.31-.5,1.47,1.47,0,0,0-.45-.34,1.24,1.24,0,0,0-.55-.12,1.27,1.27,0,0,0-.55.12,1.39,1.39,0,0,0-.45.34,1.7,1.7,0,0,0-.42,1.13Z"/><path class="cls-4" d="M233.55,12.91a1.09,1.09,0,0,1-.93-.42,2.11,2.11,0,0,1-.32-1.27V8.91h.51v2.21q0,1.33.91,1.33a1.35,1.35,0,0,0,.44-.08,1.39,1.39,0,0,0,.4-.22,1.77,1.77,0,0,0,.33-.34,1.71,1.71,0,0,0,.24-.44V8.91h.51v3.25c0,.14.06.21.19.21v.45l-.21,0a.44.44,0,0,1-.3-.1.33.33,0,0,1-.12-.26v-.54a1.88,1.88,0,0,1-1.65,1Z"/><path class="cls-4" d="M243.48,8.91h.5l-1.68,3.92h-.43l-.83-2-.83,2h-.43L238.1,8.91h.49L240,12.3l.74-1.79-.67-1.59h.44L241,10.2l.5-1.28H242l-.66,1.59.74,1.79Z"/><path class="cls-4" d="M244.65,8.09V7.34h.51v.75Zm0,4.74V8.91h.51v3.92Z"/><path class="cls-4" d="M247.57,12.91a2.73,2.73,0,0,1-.89-.15,2.15,2.15,0,0,1-.75-.44l.23-.35a2.53,2.53,0,0,0,.67.41,2,2,0,0,0,.73.14,1.32,1.32,0,0,0,.76-.19.62.62,0,0,0,.28-.54.47.47,0,0,0-.08-.27.65.65,0,0,0-.22-.19,1.73,1.73,0,0,0-.37-.15l-.52-.13-.59-.17a1.8,1.8,0,0,1-.41-.19.68.68,0,0,1-.24-.26.84.84,0,0,1-.08-.39,1.11,1.11,0,0,1,.12-.52,1.06,1.06,0,0,1,.32-.37,1.43,1.43,0,0,1,.47-.22,2.09,2.09,0,0,1,.57-.08,2.19,2.19,0,0,1,.82.15,1.62,1.62,0,0,1,.59.39l-.25.3a1.37,1.37,0,0,0-.53-.34,1.91,1.91,0,0,0-.65-.11,1.62,1.62,0,0,0-.38,0,.9.9,0,0,0-.3.13.64.64,0,0,0-.21.23.68.68,0,0,0-.08.33.54.54,0,0,0,.05.26.45.45,0,0,0,.17.17,1.39,1.39,0,0,0,.3.13l.45.12.66.18a2.07,2.07,0,0,1,.48.21.83.83,0,0,1,.29.29.85.85,0,0,1,.1.42,1,1,0,0,1-.41.86A1.79,1.79,0,0,1,247.57,12.91Z"/><path class="cls-4" d="M253.21,12.83h-.51V10.64a1.77,1.77,0,0,0-.23-1,.77.77,0,0,0-.67-.33,1.14,1.14,0,0,0-.43.09,1.6,1.6,0,0,0-.4.24,1.61,1.61,0,0,0-.33.35,1.48,1.48,0,0,0-.21.44v2.4h-.51V7.34h.51V9.8a1.83,1.83,0,0,1,.65-.7,1.66,1.66,0,0,1,.89-.26,1.23,1.23,0,0,1,.58.12,1,1,0,0,1,.38.35,1.56,1.56,0,0,1,.21.53,3.26,3.26,0,0,1,.07.69Z"/></g></g></svg>