<svg xmlns="http://www.w3.org/2000/svg" viewBox="0 0 92.35 20.63"><defs><style>.cls-1{opacity:0.2;}.cls-2{fill:#3e4eaa;}.cls-3{fill:#0e174a;}.cls-4{fill:#ffbe03;}</style></defs><title>Asset 94</title><g id="Layer_2" data-name="Layer 2"><g id="Layer_1-2" data-name="Layer 1"><g class="cls-1"><path class="cls-2" d="M90.95,20.63H10.45c-.23,0-.41-.54-.41-1.2V15.26c0-.66.18-1.2.41-1.2H90.94c.23,0,.41.53.41,1.2v4.17C91.36,20.09,91.18,20.63,90.95,20.63Z"/></g><rect class="cls-3" x="10" y="2.95" width="82.35" height="14.41" rx="2.79" ry="2.79"/><rect class="cls-4" x="2.92" y="2.92" width="14.08" height="14.08" transform="translate(-4.12 9.95) rotate(-45)"/><path class="cls-4" d="M24.31,12.91a1.88,1.88,0,0,1-.79-.16,1.91,1.91,0,0,1-.62-.44,2,2,0,0,1-.4-.65,2.12,2.12,0,0,1-.14-.77,2.09,2.09,0,0,1,.15-.78,2.05,2.05,0,0,1,.41-.65A2,2,0,0,1,23.53,9a1.91,1.91,0,0,1,1.56,0,2,2,0,0,1,.62.44,2.05,2.05,0,0,1,.41.65,2.1,2.1,0,0,1,.15.78,2.07,2.07,0,0,1-.15.77,2,2,0,0,1-.41.65,1.91,1.91,0,0,1-.62.44A1.86,1.86,0,0,1,24.31,12.91Zm-1.42-2a1.68,1.68,0,0,0,.11.61,1.61,1.61,0,0,0,.3.5,1.38,1.38,0,0,0,.45.33,1.3,1.3,0,0,0,.55.12,1.26,1.26,0,0,0,.55-.12,1.46,1.46,0,0,0,.45-.34,1.61,1.61,0,0,0,.31-.5,1.73,1.73,0,0,0,0-1.23,1.6,1.6,0,0,0-.31-.5,1.47,1.47,0,0,0-.45-.34,1.24,1.24,0,0,0-.55-.12,1.27,1.27,0,0,0-.55.12,1.39,1.39,0,0,0-.45.34,1.7,1.7,0,0,0-.42,1.13Z"/><path class="cls-4" d="M29,9.37a1.61,1.61,0,0,0-.9.29,1.44,1.44,0,0,0-.54.74v2.44h-.51V8.91h.48v.94a2.06,2.06,0,0,1,.53-.69,1.1,1.1,0,0,1,.71-.27H29Z"/><path class="cls-4" d="M31.24,10.86a2.14,2.14,0,0,1,.14-.78,2,2,0,0,1,.4-.64A1.87,1.87,0,0,1,32.4,9a2,2,0,0,1,.8-.16,1.83,1.83,0,0,1,1,.25,1.62,1.62,0,0,1,.62.68l-.5.16a1.19,1.19,0,0,0-.46-.47,1.28,1.28,0,0,0-.65-.17,1.32,1.32,0,0,0-.56.12,1.44,1.44,0,0,0-.45.33,1.51,1.51,0,0,0-.3.49,1.81,1.81,0,0,0,0,1.25,1.59,1.59,0,0,0,.31.51,1.46,1.46,0,0,0,.46.34,1.26,1.26,0,0,0,.55.12,1.34,1.34,0,0,0,.37-.05,1.41,1.41,0,0,0,.34-.15,1.22,1.22,0,0,0,.27-.21.69.69,0,0,0,.16-.26l.5.15a1.29,1.29,0,0,1-.24.39,1.66,1.66,0,0,1-.37.31,1.83,1.83,0,0,1-.47.2,2,2,0,0,1-.54.07,1.9,1.9,0,0,1-1.41-.6,2.05,2.05,0,0,1-.41-.65A2.11,2.11,0,0,1,31.24,10.86Z"/><path class="cls-4" d="M37.58,9.37a1.61,1.61,0,0,0-.9.29,1.44,1.44,0,0,0-.54.74v2.44h-.51V8.91h.48v.94a2.06,2.06,0,0,1,.53-.69,1.1,1.1,0,0,1,.71-.27h.23Z"/><path class="cls-4" d="M40,12.91a1.9,1.9,0,0,1-1.41-.6,2.05,2.05,0,0,1-.41-.65,2.11,2.11,0,0,1-.15-.79,2.06,2.06,0,0,1,.15-.78,2,2,0,0,1,1-1.08,2,2,0,0,1,1.57,0,1.87,1.87,0,0,1,.61.44,2.07,2.07,0,0,1,.54,1.41s0,.08,0,.12a.38.38,0,0,1,0,.08H38.55a1.65,1.65,0,0,0,.46,1,1.38,1.38,0,0,0,.44.3,1.34,1.34,0,0,0,.54.11,1.41,1.41,0,0,0,.38-.05,1.53,1.53,0,0,0,.35-.14A1.21,1.21,0,0,0,41,12.1a1,1,0,0,0,.19-.29l.44.12a1.3,1.3,0,0,1-.26.39,1.79,1.79,0,0,1-.38.31,1.88,1.88,0,0,1-.48.2A2.07,2.07,0,0,1,40,12.91Zm1.44-2.24a1.57,1.57,0,0,0-.46-1,1.42,1.42,0,0,0-2,0,1.44,1.44,0,0,0-.31.45,1.71,1.71,0,0,0-.14.57Z"/><path class="cls-4" d="M43.71,12.91a1.54,1.54,0,0,1-.55-.09,1.28,1.28,0,0,1-.42-.26,1.17,1.17,0,0,1-.27-.38,1.1,1.1,0,0,1-.1-.46,1,1,0,0,1,.12-.49,1.13,1.13,0,0,1,.34-.38,1.65,1.65,0,0,1,.52-.24,2.46,2.46,0,0,1,.67-.09,3.56,3.56,0,0,1,.6.05,2.62,2.62,0,0,1,.55.15v-.35a1.13,1.13,0,0,0-.3-.82,1.07,1.07,0,0,0-.8-.3,1.73,1.73,0,0,0-.63.12,3,3,0,0,0-.64.35l-.18-.34A3.41,3.41,0,0,1,43.38,9a2.24,2.24,0,0,1,.75-.13,1.55,1.55,0,0,1,1.14.41,1.53,1.53,0,0,1,.42,1.14v1.77c0,.14.06.21.18.21v.45h-.2a.46.46,0,0,1-.27-.09.35.35,0,0,1-.14-.27l0-.31a1.7,1.7,0,0,1-.67.54A2,2,0,0,1,43.71,12.91Zm.13-.39a1.66,1.66,0,0,0,.67-.15A1.31,1.31,0,0,0,45,12a.79.79,0,0,0,.09-.15.34.34,0,0,0,0-.15V11a3.09,3.09,0,0,0-.53-.15,2.9,2.9,0,0,0-.54-.05,1.61,1.61,0,0,0-.89.22.69.69,0,0,0-.34.61.82.82,0,0,0,.06.31.78.78,0,0,0,.18.27,1,1,0,0,0,.3.2A1.1,1.1,0,0,0,43.84,12.52Z"/><path class="cls-4" d="M48.64,12.64l-.13.06-.2.08-.26.07a1.46,1.46,0,0,1-.3,0,1.09,1.09,0,0,1-.32,0,.74.74,0,0,1-.26-.14.68.68,0,0,1-.18-.24.77.77,0,0,1-.07-.33V9.32h-.54V8.91h.54V7.59h.51V8.91h.9v.41h-.9V12a.41.41,0,0,0,.15.32.53.53,0,0,0,.32.1,1,1,0,0,0,.38-.07l.21-.1Z"/><path class="cls-4" d="M51,12.91a1.9,1.9,0,0,1-1.41-.6,2.05,2.05,0,0,1-.41-.65,2.11,2.11,0,0,1-.15-.79,2.06,2.06,0,0,1,.15-.78,2,2,0,0,1,1-1.08,2,2,0,0,1,1.57,0,1.87,1.87,0,0,1,.61.44,2.07,2.07,0,0,1,.54,1.41s0,.08,0,.12a.38.38,0,0,1,0,.08H49.52a1.65,1.65,0,0,0,.46,1,1.38,1.38,0,0,0,.44.3,1.34,1.34,0,0,0,.54.11,1.41,1.41,0,0,0,.38-.05,1.53,1.53,0,0,0,.35-.14A1.21,1.21,0,0,0,52,12.1a1,1,0,0,0,.19-.29l.44.12a1.3,1.3,0,0,1-.26.39,1.79,1.79,0,0,1-.38.31,1.88,1.88,0,0,1-.48.2A2.07,2.07,0,0,1,51,12.91Zm1.44-2.24a1.57,1.57,0,0,0-.46-1,1.42,1.42,0,0,0-2,0,1.44,1.44,0,0,0-.31.45,1.71,1.71,0,0,0-.14.57Z"/><path class="cls-4" d="M55.6,14h.31L56,14a.22.22,0,0,0,.08-.06,1,1,0,0,0,.11-.17l.16-.35.25-.6L54.92,8.91h.53l1.45,3.44,1.34-3.44h.49L56.7,14a.9.9,0,0,1-.3.41.92.92,0,0,1-.54.14l-.26,0Z"/><path class="cls-4" d="M61,12.91a1.88,1.88,0,0,1-.79-.16,1.91,1.91,0,0,1-.62-.44,2,2,0,0,1-.4-.65,2.12,2.12,0,0,1-.14-.77,2.09,2.09,0,0,1,.15-.78,2.05,2.05,0,0,1,.41-.65A2,2,0,0,1,60.21,9a1.91,1.91,0,0,1,1.56,0,2,2,0,0,1,.62.44,2.05,2.05,0,0,1,.41.65,2.1,2.1,0,0,1,.15.78,2.07,2.07,0,0,1-.15.77,2,2,0,0,1-.41.65,1.91,1.91,0,0,1-.62.44A1.86,1.86,0,0,1,61,12.91Zm-1.42-2a1.68,1.68,0,0,0,.11.61,1.61,1.61,0,0,0,.3.5,1.38,1.38,0,0,0,.45.33,1.3,1.3,0,0,0,.55.12,1.26,1.26,0,0,0,.55-.12A1.46,1.46,0,0,0,62,12a1.61,1.61,0,0,0,.31-.5,1.73,1.73,0,0,0,0-1.23,1.6,1.6,0,0,0-.31-.5,1.47,1.47,0,0,0-.45-.34A1.24,1.24,0,0,0,61,9.3a1.27,1.27,0,0,0-.55.12,1.39,1.39,0,0,0-.45.34,1.7,1.7,0,0,0-.42,1.13Z"/><path class="cls-4" d="M65,12.91a1.09,1.09,0,0,1-.93-.42,2.11,2.11,0,0,1-.32-1.27V8.91h.51v2.21q0,1.33.91,1.33a1.35,1.35,0,0,0,.44-.08,1.39,1.39,0,0,0,.4-.22,1.77,1.77,0,0,0,.33-.34,1.71,1.71,0,0,0,.24-.44V8.91h.51v3.25c0,.14.06.21.19.21v.45l-.21,0a.44.44,0,0,1-.3-.1.33.33,0,0,1-.12-.26v-.54a1.88,1.88,0,0,1-1.65,1Z"/><path class="cls-4" d="M70.19,9.37a1.61,1.61,0,0,0-.9.29,1.44,1.44,0,0,0-.54.74v2.44h-.51V8.91h.48v.94a2.06,2.06,0,0,1,.53-.69A1.1,1.1,0,0,1,70,8.89h.23Z"/><path class="cls-4" d="M74.32,12.91a1.88,1.88,0,0,1-.79-.16,1.91,1.91,0,0,1-.62-.44,2,2,0,0,1-.4-.65,2.12,2.12,0,0,1-.14-.77,2.09,2.09,0,0,1,.15-.78,2.05,2.05,0,0,1,.41-.65A2,2,0,0,1,73.55,9,1.91,1.91,0,0,1,75.1,9a2,2,0,0,1,.62.44,2.05,2.05,0,0,1,.41.65,2.1,2.1,0,0,1,.15.78,2.07,2.07,0,0,1-.15.77,2,2,0,0,1-.41.65,1.91,1.91,0,0,1-.62.44A1.86,1.86,0,0,1,74.32,12.91Zm-1.42-2a1.68,1.68,0,0,0,.11.61,1.61,1.61,0,0,0,.3.5,1.38,1.38,0,0,0,.45.33,1.3,1.3,0,0,0,.55.12,1.26,1.26,0,0,0,.55-.12,1.46,1.46,0,0,0,.45-.34,1.61,1.61,0,0,0,.31-.5,1.73,1.73,0,0,0,0-1.23,1.6,1.6,0,0,0-.31-.5,1.47,1.47,0,0,0-.45-.34,1.24,1.24,0,0,0-.55-.12,1.27,1.27,0,0,0-.55.12,1.39,1.39,0,0,0-.45.34,1.7,1.7,0,0,0-.42,1.13Z"/><path class="cls-4" d="M81.92,8.91h.5l-1.68,3.92h-.43l-.83-2-.83,2h-.43L76.53,8.91H77l1.43,3.39.74-1.79-.67-1.59H79l.51,1.28L80,8.92h.44l-.66,1.59.74,1.79Z"/><path class="cls-4" d="M86.37,12.83h-.51V10.64a1.94,1.94,0,0,0-.2-1A.7.7,0,0,0,85,9.31a1.3,1.3,0,0,0-.45.08,1.57,1.57,0,0,0-.42.23,1.65,1.65,0,0,0-.34.36,1.58,1.58,0,0,0-.22.45v2.4h-.51V8.91h.47V9.8a1.81,1.81,0,0,1,.3-.39,2,2,0,0,1,.39-.3,1.92,1.92,0,0,1,.46-.2,1.9,1.9,0,0,1,.51-.07,1.15,1.15,0,0,1,.55.12.94.94,0,0,1,.36.34,1.56,1.56,0,0,1,.2.53,3.75,3.75,0,0,1,.06.7Z"/></g></g></svg>